<svg width="73" height="73" viewBox="0 0 73 73" fill="none" xmlns="http://www.w3.org/2000/svg">
<g clip-path="url(#clip0_26486_245347)">
<path fill-rule="evenodd" clip-rule="evenodd" d="M66.0467 32.0519C68.3545 48.503 56.8888 63.7145 40.4332 66.0204C23.9876 68.3317 8.77858 56.8597 6.47029 40.4112C4.16142 23.9585 15.629 8.74838 32.0794 6.44153C48.5349 4.13397 63.7373 15.6018 66.0467 32.0519Z" fill="#CCE60C"/>
<mask id="mask0_26486_245347" style="mask-type:luminance" maskUnits="userSpaceOnUse" x="0" y="0" width="73" height="73">
<path d="M0.282715 9.12012L63.3688 0.25394L72.2351 63.3409L9.14901 72.2071L0.282715 9.12012Z" fill="white"/>
</mask>
<g mask="url(#mask0_26486_245347)">
<path fill-rule="evenodd" clip-rule="evenodd" d="M64.2913 32.2976C64.3095 32.4269 64.3233 32.555 64.3395 32.6829L55.7749 33.884C57.3716 33.2344 58.0214 31.7825 57.7081 29.5534L56.9611 24.2381C56.7622 22.8051 56.2617 21.7793 55.4743 21.1926C54.7636 20.6615 53.8089 20.476 52.6314 20.6414L49.109 21.1365L50.9907 34.5555L48.8825 34.8518L47.0035 21.4333L44.7586 21.7428L44.7638 21.7795C44.7638 21.7795 45.7427 28.7936 45.795 29.1774C45.6125 28.8349 42.0069 22.1312 42.0069 22.1312L39.7279 22.4515L41.6105 35.8713L40.393 36.0424L36.0136 22.9735L33.0049 23.3964L32.3905 37.1653L31.5633 37.2816L28.7978 31.5815C29.4907 31.1202 30.2363 30.1149 29.9303 27.9375C29.5389 25.1523 28.1282 24.0818 25.355 24.4681L22.0143 24.9376L23.9003 38.3569L21.6777 38.6675L20.7255 31.8623L16.7694 32.4182L17.0474 34.3844L18.5293 34.1761L18.7019 35.4045C18.8814 36.7058 18.6233 37.2353 17.7477 37.3584C17.0556 37.4556 16.6739 37.0756 16.5457 36.1633L15.5765 29.2669C15.4464 28.3412 15.704 27.8263 16.3394 27.7369C17.1566 27.6221 17.6545 27.9518 17.9448 30.0174L17.9549 30.0891L20.3174 29.7571L20.1871 28.8298C19.8669 26.5515 18.2614 25.2754 16.0966 25.5796C13.9768 25.8776 12.8002 27.4469 13.0996 29.5775L14.0711 36.4898C14.2846 38.0092 15.0806 39.0564 16.2196 39.4338L8.28555 40.5471C8.26584 40.4189 8.24373 40.2919 8.2258 40.1643C7.17586 32.6755 9.10432 25.2255 13.6582 19.1873C18.2095 13.1495 24.8399 9.24638 32.3264 8.19763C47.7794 6.03095 62.1186 16.8378 64.2905 32.2918L64.2913 32.2976ZM53.1972 32.3091L51.865 22.83L52.6005 22.7267C53.7963 22.5586 54.2639 22.9572 54.4535 24.3065L55.2792 30.1814C55.3832 30.921 55.3253 31.3867 55.092 31.6933C54.8823 31.9677 54.5236 32.1261 53.9296 32.2079L53.1974 32.3108L53.1972 32.3091ZM43.8588 35.5561L42.7343 27.5548C42.9061 27.8878 46.1685 34.1711 46.6834 35.16L43.8588 35.5561ZM34.8392 31.741L34.8581 30.7979L34.9444 26.2813L36.5421 31.5017L34.8392 31.741ZM34.7847 36.8289L34.783 33.9429L37.2039 33.6027L37.9997 36.3787L34.7847 36.8289ZM25.3324 30.6127L24.7726 26.6291L25.5277 26.5264C26.7778 26.3507 27.2467 26.7772 27.4586 28.2849C27.6703 29.7909 27.3355 30.3312 26.0838 30.5071L25.3324 30.6127ZM26.6878 32.4512L29.0489 37.6341L26.3721 38.0103L25.6187 32.65C25.9776 32.5982 26.3343 32.5319 26.6878 32.4512ZM19.1009 39.0297C19.415 38.7899 19.6664 38.4791 19.9156 38.098L20.3701 38.8513L19.1009 39.0297ZM55.4359 10.7962C48.6419 5.67503 40.2607 3.50413 31.8337 4.68592C23.41 5.86724 15.9494 10.2586 10.8265 17.052C5.70202 23.8465 3.5323 32.23 4.71492 40.6569C5.89766 49.0846 10.2928 56.5481 17.0897 61.6714C23.8819 66.7919 32.2608 68.9589 40.68 67.7757C49.1054 66.595 56.5685 62.2032 61.6897 55.4092C66.815 48.6147 68.9849 40.2328 67.803 31.8049C66.6207 23.3797 62.2285 15.9192 55.4359 10.7962Z" fill="#E51F22"/>
</g>
<path fill-rule="evenodd" clip-rule="evenodd" d="M21.439 38.695L14.8135 39.6262L16.7545 53.4365L19.3229 53.0756L18.4775 47.0606L21.598 46.622L21.2794 44.3546L18.1589 44.7932L17.7001 41.5284L21.8746 40.9417L21.5565 38.6785L21.439 38.695ZM27.6977 40.0077C28.9336 39.834 29.3745 40.2423 29.5869 41.7542C29.799 43.2627 29.4874 43.7751 28.2516 43.9487L27.5428 44.0484L26.9889 40.1073L27.6977 40.0077ZM24.2351 38.3021L24.1183 38.3185L26.0592 52.1288L28.6277 51.7679L27.8456 46.2032C28.2035 46.1478 28.5756 46.0785 28.8409 46.0123L31.2813 51.3958L33.8989 51.0279L31.0318 45.1006C31.7359 44.6164 32.4618 43.5858 32.1537 41.3934C31.7531 38.5431 30.3193 37.447 27.5056 37.8424L24.2351 38.3021ZM38.5585 39.4312L40.2122 44.9652L38.4935 45.2068L38.5578 39.4321L38.5585 39.4312ZM39.569 36.147L36.5778 36.5674L35.9736 50.7355L38.4311 50.3901L38.4638 47.319L40.8171 46.9883L41.7034 49.9302L44.1492 49.5865L39.6657 36.1334L39.569 36.147ZM47.6371 35.0131L45.1895 35.3571L47.1305 49.1675L49.6947 48.8071L47.7538 34.9967L47.6371 35.0131ZM51.5129 37.9039C51.8194 40.0846 53.4433 41.0928 54.877 41.9824C56.0751 42.7256 57.1101 43.3676 57.2739 44.5334C57.3745 45.2489 56.9818 45.7225 56.198 45.8326C55.47 45.935 54.906 45.2923 54.6517 44.0703L54.6258 43.9464L52.22 44.6416L52.2399 44.7468C52.6045 46.6634 54.0341 48.449 56.404 48.1159C58.749 47.7863 60.0102 46.2017 59.6981 43.981C59.4016 41.8712 57.724 40.8076 56.246 39.8698C55.0931 39.139 54.097 38.5077 53.9607 37.5378C53.8502 36.7514 54.163 36.2661 54.8401 36.171C55.1436 36.1283 55.8799 36.1634 56.1605 37.4098L56.1866 37.5286L58.6 36.9122L58.573 36.7986C58.0537 34.7371 56.5883 33.6165 54.7462 33.8754C52.3779 34.2082 51.2 35.6774 51.5129 37.9039Z" fill="white"/>
</g>
<defs>
<clipPath id="clip0_26486_245347">
<rect width="64" height="64" fill="white" transform="translate(0 8.90723) rotate(-8)"/>
</clipPath>
</defs>
</svg>
