<svg width="111" height="77" viewBox="0 0 111 77" fill="none" xmlns="http://www.w3.org/2000/svg">
<path d="M47.1016 41.7678C31.3868 15.6021 43.0492 -7.74631 65.027 2.44225C87.0049 12.6308 108.414 50.928 87.1953 58.4746C65.9741 66.0213 52.0678 50.0371 47.1016 41.7701V41.7678Z" fill="#FC7800"></path>
<path d="M65.2889 46.5517C56.4844 40.839 52.5438 24.5159 59.3542 15.8865C72.3777 -0.619027 91.0479 36.0693 91.3335 43.4524C91.619 50.8356 79.3308 55.6645 65.2889 46.554V46.5517Z" fill="#DF6530"></path>
<path d="M41.6189 22.1441C71.3138 29.5817 79.6471 54.302 56.8697 62.5737C34.0923 70.8454 -8.24064 58.8395 1.40622 38.5619C11.0531 18.2843 32.2386 19.796 41.6189 22.1464V22.1441Z" fill="#FC7800"></path>
<path d="M25.3591 31.5673C35.6437 29.4064 50.0188 38.1757 51.3323 49.0727C53.8452 69.9142 14.5891 57.1169 9.14456 52.0985C3.70005 47.08 8.96133 35.0125 25.3591 31.5673Z" fill="#DF6530"></path>
<path d="M69.0936 33.9273C39.3987 41.3649 31.0654 66.0852 53.8429 74.3569C76.6203 82.6286 118.953 70.6227 109.309 50.3451C99.6642 30.0675 78.4764 31.5792 69.096 33.9297L69.0936 33.9273Z" fill="#FC7800"></path>
<path d="M85.351 43.3481C75.0664 41.1872 60.6913 49.9565 59.3777 60.8535C56.8649 81.6951 96.121 68.8978 101.565 63.8793C107.01 58.8608 101.749 46.7933 85.351 43.3481Z" fill="#DF6530"></path>
</svg>