<svg width="111" height="103" viewBox="0 0 111 103" fill="none" xmlns="http://www.w3.org/2000/svg">
<g clip-path="url(#clip0_26215_132562)">
<path d="M51.1609 3.83515C51.6655 8.24793 50.8005 12.5475 50.1859 16.8961C49.5143 21.6523 48.3686 26.3709 46.3768 30.761C44.3736 35.1813 41.4788 39.16 37.8253 42.3799C33.743 45.9736 28.8413 48.3102 23.9357 50.5751C18.8405 52.9268 13.6238 55.2446 9.16976 58.7099C7.1476 60.2802 5.26202 62.0506 3.83171 64.1834C2.49246 66.1802 1.53259 68.4263 0.914183 70.744C-0.352988 75.5003 -0.311255 80.6718 1.10767 85.3904C2.54178 90.158 5.51242 94.2725 9.73126 96.9753C11.9242 98.3795 14.3447 99.4101 16.8107 100.237C19.8193 101.248 22.9265 101.969 26.102 102.177C28.3708 102.328 30.6889 102.256 32.9653 102.234C33.1512 102.234 33.3371 102.23 33.523 102.226C34.3045 102.4 35.0936 102.543 35.8866 102.656C38.1971 102.989 40.5569 103.125 42.8826 102.875C44.4039 102.713 45.9822 102.362 47.3291 101.618C48.9073 102.128 50.5766 102.4 52.2232 102.562C55.1597 102.849 58.2138 102.672 61.0061 101.671C61.3097 101.562 61.6132 101.441 61.9091 101.305C62.979 101.747 64.1855 101.992 64.9974 102.132C77.3731 104.204 83.6255 99.6403 83.9746 99.6856C91.2437 100.641 99.5372 98.7721 104.883 93.5553C106.837 91.649 108.271 89.369 109.227 86.8927C112.528 78.3276 110.134 67.3542 103.934 60.9068C101.521 58.3965 98.6419 56.3846 95.6598 54.5953C89.6123 50.9639 83.0071 48.1819 77.4604 43.7653C74.2431 41.2022 71.5191 38.0842 69.6715 34.3999C67.5658 30.2061 66.5377 25.5668 65.9382 20.9427C65.4564 17.2358 65.593 13.4912 65.2364 9.77296C65.206 9.4521 65.1719 9.12746 65.1339 8.80283C64.0868 6.50773 62.5047 4.46932 59.9628 2.87634C58.0583 1.6835 54.6665 -0.305837 52.337 0.0414474C50.1138 0.369858 50.9485 2.06098 51.1533 3.83515H51.1609Z" fill="#F9F4DC"></path>
<path d="M103.938 60.907C101.525 58.3967 98.6458 56.3847 95.6638 54.5954C89.6163 50.9641 83.011 48.182 77.4643 43.7655C74.2471 41.2023 71.523 38.0843 69.6754 34.4001C67.5736 30.2063 66.5416 25.567 65.9422 20.9428C65.4603 17.2359 65.5969 13.4913 65.2403 9.77311C65.2099 9.45224 65.1758 9.12761 65.1379 8.80297C64.6371 7.70072 64.0073 6.65887 63.2105 5.69629C62.8691 9.95052 62.7705 14.2274 63.0588 18.4892C63.442 24.1175 64.5157 29.7759 66.8224 34.955C67.953 37.4955 69.3795 39.934 71.1398 42.097C72.6916 44.0033 74.4671 45.717 76.311 47.3402C80.0973 50.6772 84.2099 53.6404 87.8635 57.1246C91.3653 60.4653 94.3966 64.3571 95.7548 69.053C95.7814 69.1399 95.6714 69.2267 95.5917 69.1738C93.6264 67.7922 92.2872 65.6934 90.6103 64.0099C89.7339 63.1266 88.7512 62.3338 87.8445 61.4807C86.9947 60.6842 86.1296 59.8878 85.147 59.2611C85.5188 59.8198 85.8944 60.3747 86.27 60.9258C89.9387 66.2748 93.9679 71.8879 93.93 78.6524C93.8958 84.6884 90.3902 90.4412 84.9384 93.1553C82.3775 94.4312 79.3158 95.005 76.4893 94.3935C74.4709 93.9556 73.143 92.2871 72.3198 90.5016C70.3962 86.3304 70.4645 81.6232 69.4098 77.2255C68.4613 73.262 66.9931 69.4532 65.4186 65.701C64.1021 62.5603 63.1309 59.1441 61.1998 56.3017C61.4236 56.8641 61.6437 57.4266 61.8523 57.9928C64.3791 64.7686 66.2722 72.2465 65.5135 79.5282C65.0127 84.3222 63.3357 89.7391 59.337 92.7929C55.3761 95.8166 49.4652 95.4202 45.2236 93.1818C40.9782 90.9395 38.091 86.8023 36.3685 82.4348C34.6271 78.0183 33.9025 73.1223 34.3236 68.3887C32.2977 72.5938 31.6868 77.5955 32.0473 82.197C32.2028 84.1788 32.7681 86.0247 33.3068 87.9272C33.8152 89.7165 34.3198 91.6227 34.0846 93.4951C33.857 95.3334 32.7605 96.8773 31.1405 97.7833C29.5964 98.6477 27.7981 98.6137 26.1591 98.0324C24.4291 97.4171 22.8925 96.3186 21.5267 95.1182C20.0167 93.797 18.6661 92.306 17.6948 90.5431C15.7751 87.059 15.4792 83.001 14.4814 79.2073C14.3296 79.6905 14.2234 80.1775 14.1475 80.6644C14.0982 81.2118 14.0679 81.7629 14.0565 82.3102C14.0489 82.5858 14.0489 82.8576 14.0565 83.1332C14.2538 86.0171 15.4337 88.8596 16.5984 91.4944C17.2889 93.0496 18.0932 94.6086 18.5864 96.2394C18.8178 97.0094 18.943 97.889 18.6319 98.6553C18.2829 99.5121 17.5051 99.9576 16.6477 100.177C16.7046 100.195 16.7577 100.214 16.8147 100.233C19.8232 101.245 22.9305 101.966 26.106 102.173C28.3747 102.324 30.6928 102.253 32.9692 102.23C33.1551 102.23 33.341 102.226 33.5269 102.222C34.3084 102.396 35.0976 102.54 35.8905 102.653C38.201 102.985 40.5608 103.121 42.8865 102.872C44.4079 102.709 45.9861 102.358 47.333 101.615C48.9113 102.124 50.5806 102.396 52.2271 102.558C55.1636 102.845 58.2177 102.668 61.0101 101.668C61.3136 101.558 61.6171 101.437 61.913 101.301C62.9829 101.743 64.1894 101.988 65.0013 102.128C77.3771 104.2 83.6294 99.6367 83.9785 99.682C91.2476 100.637 99.5412 98.7685 104.887 93.5517C106.841 91.6454 108.275 89.3654 109.231 86.8891C112.532 78.324 110.138 67.3506 103.938 60.9032V60.907Z" fill="#E6DDAD"></path>
</g>
<defs>
<clipPath id="clip0_26215_132562">
<rect width="110.714" height="103" fill="white"></rect>
</clipPath>
</defs>
</svg>