<svg width="106" height="109" viewBox="0 0 106 109" fill="none" xmlns="http://www.w3.org/2000/svg">
<g clip-path="url(#clip0_26215_132572)">
<path d="M36.6201 89.1947C37.5654 90.1015 38.5477 90.9868 39.5722 91.8307C50.5077 100.962 65.5245 105.604 79.3558 102.236C104.138 96.1874 112.424 68.9049 100.864 47.7061C90.4242 28.5555 68.8427 16.1588 48.9443 9.36025C46.9477 8.68597 44.9407 8.05095 42.9128 7.49446C33.0309 4.76041 23.2919 3.1696 13.116 5.3647C8.97977 6.27128 4.6251 7.91871 2.3803 11.5335C-3.50589 20.9545 2.91036 36.2547 6.73627 45.3759C11.8564 57.5705 19.2291 68.6987 27.4498 78.9504C30.3165 82.5314 33.2994 86.028 36.613 89.1823L36.6201 89.1947Z" fill="#9D6520"></path>
<path d="M45.0054 58.2565C37.6785 51.7596 30.6402 44.9617 23.8957 37.8431C17.4769 31.0646 11.5228 23.8326 4.95267 17.1923C4.78629 17.621 4.63224 18.0424 4.51181 18.494C9.90455 26.2693 16.4282 33.318 22.835 40.2195C29.8261 47.7412 37.1095 55.026 44.8642 61.7537C58.4535 73.5455 73.3108 83.7846 89.4387 91.6408C89.8912 91.8573 90.4488 91.797 90.8308 91.458C90.8308 91.458 90.8431 91.4508 90.8555 91.4436C91.5473 90.8407 91.3939 89.7367 90.5738 89.337C73.9686 81.2787 58.8327 70.5226 44.986 58.2513L45.0054 58.2565Z" fill="#804F20"></path>
<path d="M62.4332 98.4904C57.4507 96.2442 52.7697 93.2584 48.4792 89.8622C38.9978 82.3855 31.346 72.9288 23.9166 63.4583C23.5179 62.9617 23.016 63.3211 23.3847 63.8517C31.1046 74.8103 39.4859 85.6313 50.3719 93.5809C52.4292 95.0817 54.5691 96.4679 56.7774 97.7148C56.8764 97.773 56.9807 97.8116 57.0849 97.8502C59.4716 98.5453 61.9017 98.9997 64.3471 99.2792C63.7074 99.0228 63.0624 98.7861 62.4279 98.51L62.4332 98.4904Z" fill="#804F20"></path>
<path d="M78.1308 98.2764C79.404 97.9142 79.3614 96.0825 78.0827 95.8014C74.3436 94.9841 70.6532 93.9064 66.9737 92.3582C58.4112 88.7378 50.5235 83.563 43.5048 77.4332C26.8678 62.8955 15.1235 43.1306 3.90076 24.2216C3.91636 24.7098 3.95138 25.2032 3.98641 25.6966C4.00282 25.8694 4.04389 26.0278 4.12906 26.177C14.1775 46.0535 25.7985 65.3433 42.921 79.8959C50.178 86.0688 58.2672 91.3084 67.0558 94.9791C70.1202 96.2566 73.4175 97.4809 76.8198 98.4285C77.0406 98.4984 77.2824 98.4899 77.5029 98.444C77.7163 98.3858 77.9174 98.3347 78.1308 98.2764Z" fill="#804F20"></path>
<path d="M43.4792 11.1086C41.1916 10.4716 38.9147 9.91128 36.6435 9.44712C61.8302 21.0152 85.0809 37.8911 101.206 60.7505C101.129 60.2983 101.064 59.8389 100.98 59.3743C100.944 59.1963 100.884 59.0327 100.779 58.8783C93.5554 48.0112 85.104 37.9604 75.1134 29.6207C67.6426 23.3902 59.369 17.8274 50.5798 13.3779L50.168 13.2039C47.9682 12.4328 45.7332 11.7154 43.4844 11.0889L43.4792 11.1086Z" fill="#804F20"></path>
<path d="M69.8444 34.736C76.7205 41.5955 83.2112 48.8458 89.1051 56.5772C92.0113 60.4003 94.8084 64.3203 97.4821 68.3124C98.0265 69.1218 98.5517 70.0418 99.1105 70.9919C99.7209 72.0611 101.331 71.6845 101.451 70.4541C101.478 70.1564 101.506 69.8586 101.533 69.5608C101.56 69.2631 101.471 68.9339 101.278 68.682C100.933 68.2207 100.587 67.7594 100.241 67.2981C97.2287 63.2885 94.0945 59.3829 90.809 55.6155C84.3033 48.1087 77.3877 41.0071 69.9969 34.3983C69.7544 34.1752 69.6762 34.5856 69.8514 34.7485L69.8444 34.736Z" fill="#804F20"></path>
<path d="M83.3883 78.2488C77.0502 73.6279 70.9002 68.7316 64.8645 63.7187C52.9276 53.8133 41.3545 43.364 29.0501 33.9384C28.4699 33.4981 28.4585 34.3999 28.7895 34.7205C40.3139 45.9773 52.6292 56.6895 65.063 66.9181C70.6403 71.5024 76.3072 75.9846 82.1271 80.245C85.5694 82.7605 89.1343 85.5195 92.8517 87.9407C93.4017 88.2992 94.1462 88.1629 94.5364 87.6367C94.6138 87.5418 94.6912 87.4469 94.7615 87.3395C95.2115 86.7452 95.073 85.8978 94.4505 85.4987C90.7526 83.0827 86.9155 80.7976 83.3936 78.2291L83.3883 78.2488Z" fill="#804F20"></path>
<path d="M75.3856 89.3199C68.8391 85.8319 62.4844 82.1325 56.456 77.795C50.2614 73.3391 44.5329 68.3458 38.8974 63.1986C33.3222 58.0993 28.6005 52.7667 23.9757 46.7974C23.4511 46.1091 22.7698 46.6727 23.2943 47.361C31.9976 59.0053 42.0535 69.6774 53.6498 78.4389C59.5974 82.923 65.8548 87.1434 72.3804 90.7099C75.5609 92.45 79.1394 94.455 82.8368 96.0923C83.1709 96.2453 83.5786 96.2393 83.9135 96.077C84.0809 95.9958 84.2607 95.9074 84.4281 95.8262C85.3815 95.3359 85.3773 93.9459 84.3893 93.5116C81.3582 92.1484 78.2866 90.8585 75.405 89.3252L75.3856 89.3199Z" fill="#804F20"></path>
<path d="M99.7533 78.1092C99.7918 78.0038 99.8233 77.886 99.8618 77.7807C99.9859 77.3932 99.9229 76.9659 99.6995 76.6322C94.6751 69.2717 88.6604 62.4232 82.9408 55.7172C75.8538 47.4226 68.3389 39.4442 60.1433 32.2611C48.9852 22.4812 35.7787 13.5492 21.516 8.49943C21.334 8.43991 21.1539 8.41246 20.951 8.43149C19.4229 8.57774 17.8915 8.7757 16.348 9.09669C32.1064 14.9805 46.1542 23.6866 58.9073 35.0217C66.8536 42.0851 74.1051 49.919 80.9833 58.0205C86.664 64.716 91.8132 71.9207 97.5854 78.5461C98.2213 79.2855 99.4243 79.0307 99.7339 78.104L99.7533 78.1092Z" fill="#804F20"></path>
<path d="M76.2232 62.789C68.3987 55.7373 60.4317 48.8682 52.2256 42.2714C38.8352 31.4908 24.3974 20.4596 8.71217 13.0909C8.2137 12.8515 7.60866 12.9727 7.2375 13.3883C6.99117 13.6482 6.77138 13.9257 6.54636 14.2228C13.4462 18.4162 20.4373 22.4237 27.1756 26.9103C35.6649 32.5627 43.8185 38.6929 51.7399 45.1078C59.4738 51.367 66.9808 57.8913 74.3805 64.5445C81.7945 71.2226 88.9202 78.3176 96.7456 84.5068C97.0249 84.0454 97.297 83.5715 97.5568 83.1049C91.0183 75.7996 83.5026 69.3467 76.2303 62.8014L76.2232 62.789Z" fill="#804F20"></path>
<path d="M35.152 24.0599C40.6891 27.6234 46.0401 31.4945 51.2064 35.5894C55.8649 39.2846 60.0632 43.7292 64.9202 47.1095C65.3589 47.417 65.5036 46.8352 65.2626 46.5283C61.9742 42.3813 57.4827 39.0362 53.4463 35.6243C48.1093 31.1151 42.5772 26.8691 36.7726 22.9811C29.2844 17.9875 21.401 13.6556 13.1392 10.274C12.8388 10.151 12.5069 10.1459 12.1949 10.2618C11.6025 10.4916 11.0172 10.7339 10.4604 11.0258C19.0424 14.6515 27.3159 19.0042 35.1591 24.0724L35.152 24.0599Z" fill="#804F20"></path>
</g>
<defs>
<clipPath id="clip0_26215_132572">
<rect width="106" height="108.667" fill="white"></rect>
</clipPath>
</defs>
</svg>