<svg width="95" height="109" viewBox="0 0 95 109" fill="none" xmlns="http://www.w3.org/2000/svg">
<path d="M21.1861 86.3048C21.9184 87.4033 22.6751 88.4773 23.4563 89.527C32.0492 100.854 45.6465 108.763 59.8541 108.666C85.3398 108.519 99.5229 84.0588 93.0294 60.9654C87.1462 40.0935 68.9108 23.2007 51.0659 12.069C49.2839 10.946 47.453 9.89633 45.5977 8.87104C36.6142 3.98872 27.4843 0.229318 17.0849 0.00961322C12.8617 -0.0880333 8.24789 0.522314 5.24526 3.50053C-2.59087 11.239 0.216481 27.4727 1.90088 37.1641C4.14675 50.1023 8.83377 62.5278 14.5461 74.3186C16.5478 78.4198 18.6717 82.4966 21.1861 86.3048Z" fill="#9D6520"></path>
</svg>