<svg width="100" height="109" viewBox="0 0 100 109" fill="none" xmlns="http://www.w3.org/2000/svg">
<g clip-path="url(#clip0_26215_132586)">
<path d="M98.6933 55.1618C91.0431 102.066 62.8688 113.07 46.243 107.368C43.0881 106.287 39.7975 105.607 36.465 105.639C28.1121 105.725 17.7908 100.505 10.2711 90.005C9.96774 89.5849 9.65777 89.1333 9.33225 88.6388C3.23345 79.4615 -0.749222 66.5795 0.186849 50.0079C2.38015 11.1425 33.6418 6.31513 55.4055 15.6455C58.9498 17.1672 62.7744 17.9485 66.6347 17.9893C74.4551 18.0668 85.9569 20.9455 93.0188 29.3386C97.8561 35.0757 100.614 43.3961 98.6933 55.1618Z" fill="#E51F22"></path>
<path d="M74.9476 20.9888C71.858 20.7045 66.3451 27.914 56.2186 25.5079C55.9154 25.4325 55.6079 25.3535 55.2954 25.2628C54.9956 25.1791 54.6948 25.0835 54.3893 24.9802C43.0844 21.1754 46.5985 15.2358 39.4434 13.4845C47.3377 13.2392 51.228 16.5325 56.0706 18.1284C56.475 18.2636 56.8865 18.3863 57.3122 18.4877C57.5091 18.5398 57.7097 18.5875 57.9139 18.6309C63.6978 19.8611 69.4352 18.2251 74.9476 20.9888Z" fill="#C11417"></path>
<path d="M32.0125 44.4979C36.5187 33.0167 34.9429 21.6623 28.4929 19.137C22.0429 16.6116 13.1612 23.8717 8.65501 35.3528C4.14883 46.834 5.7246 58.1884 12.1746 60.7137C18.6246 63.2391 27.5063 55.979 32.0125 44.4979Z" fill="#F73C3F"></path>
<path d="M98.6934 55.1618C91.0432 102.066 62.8689 113.07 46.2431 107.368C43.0881 106.287 39.7975 105.607 36.465 105.639C28.1122 105.725 17.7908 100.505 10.2711 90.005C18.9601 101.989 20.3948 85.3323 46.2737 96.735C71.9358 108.039 103.572 47.4591 93.0188 29.3386C97.8561 35.0757 100.614 43.3961 98.6934 55.1618Z" fill="#C11417"></path>
<path d="M66.8109 3.50825C66.7567 3.53273 66.7029 3.56119 66.6487 3.58566C66.062 3.87018 65.4319 4.06606 64.7781 4.11957C61.7522 4.36721 58.8485 11.6798 57.3121 18.4877C56.7339 21.0283 56.3508 23.5009 56.2181 25.5039C55.9153 25.4325 55.6078 25.3535 55.2953 25.2628C55.3557 23.6505 55.5615 21.0722 56.0705 18.1284C57.1365 11.8961 59.562 4.03739 64.8312 0.315174C65.3622 -0.0609906 66.1015 0.291378 66.1464 0.937074C66.1471 0.945038 66.1478 0.953001 66.1487 0.964947C66.1781 1.37141 66.3971 1.74231 66.7443 1.96242L66.9009 2.06184C67.4512 2.40963 67.4019 3.22739 66.8192 3.51158L66.8109 3.50825Z" fill="#292929"></path>
</g>
<defs>
<clipPath id="clip0_26215_132586">
<rect width="100" height="108.667" fill="white"></rect>
</clipPath>
</defs>
</svg>