<svg width="100" height="98" viewBox="0 0 100 98" fill="none" xmlns="http://www.w3.org/2000/svg">
<path d="M85.1958 8.13446C84.0668 9.62657 82.9104 11.6791 83.2098 13.6285C83.8363 17.7197 91.0782 15.5159 93.1193 14.0307C95.1777 12.5317 96.6681 10.3692 97.8315 8.10696C99.074 5.69689 100.007 3.05991 99.9999 0.350724C99.9999 0.343848 92.221 2.56483 91.4947 2.89144C88.8375 4.07757 86.934 5.83441 85.1924 8.1379L85.1958 8.13446Z" fill="#837710"></path>
<path opacity="0.15" d="M85.1958 8.13446C84.0668 9.62657 82.9104 11.6791 83.2098 13.6285C83.8363 17.7197 91.0782 15.5159 93.1193 14.0307C95.1777 12.5317 96.6681 10.3692 97.8315 8.10696C99.074 5.69689 100.007 3.05991 99.9999 0.350724C99.9999 0.343848 92.221 2.56483 91.4947 2.89144C88.8375 4.07757 86.934 5.83441 85.1924 8.1379L85.1958 8.13446Z" fill="#837710"></path>
<path d="M5.85755 97.699C7.6474 97.1764 9.37873 96.1553 10.2496 95.062C11.2753 93.7693 11.8535 92.1878 12.4111 90.6373C16.8307 78.3737 21.1745 66.7428 27.8245 55.4798C31.7277 48.8684 36.7083 42.7659 43.0725 38.4649C48.7863 34.604 55.3502 32.3417 61.6835 29.7391C67.0496 27.5353 74.9077 25.5275 79.2653 21.3709C80.501 20.1951 79.8195 14.9315 78.6939 13.6456C75.603 18.0051 70.4228 19.5591 62.8744 22.1823C54.1524 25.2147 46.7796 27.1606 38.894 31.9636C29.6832 37.571 22.4618 46.0114 16.8789 55.2288C11.2959 64.4497 7.24123 74.4956 3.24161 84.5003C2.07477 87.4192 0.34689 91.4314 0.023341 94.5532C-0.32086 97.9087 3.21409 98.4657 5.85411 97.6921L5.85755 97.699Z" fill="#CDD508"></path>
<path d="M89.9699 21.8453C92.8199 21.113 95.2431 19.0983 96.847 16.6333C98.4545 14.1682 99.3046 11.2733 99.728 8.36475C97.6456 10.0769 94.6097 9.7434 92.0213 10.486C88.5174 11.4934 85.2061 14.818 83.609 18.0463C81.4647 22.3851 87.2438 22.5467 89.9699 21.8453Z" fill="#837710"></path>
<path opacity="0.25" d="M89.9699 21.8453C92.8199 21.113 95.2431 19.0983 96.847 16.6333C98.4545 14.1682 99.3046 11.2733 99.728 8.36475C97.6456 10.0769 94.6097 9.7434 92.0213 10.486C88.5174 11.4934 85.2061 14.818 83.609 18.0463C81.4647 22.3851 87.2438 22.5467 89.9699 21.8453Z" fill="#837710"></path>
<path d="M89.0852 7.23365C90.2624 4.82358 91.4396 2.41007 92.6167 0C89.0026 0.130646 85.595 1.32709 83.2028 3.92969C81.351 5.94782 77.5855 13.6628 80.9483 16.0007C84.2285 18.2835 88.0905 9.27242 89.0852 7.23365Z" fill="#837710"></path>
<path opacity="0.25" d="M89.0852 7.23365C90.2624 4.82358 91.4396 2.41007 92.6167 0C89.0026 0.130646 85.595 1.32709 83.2028 3.92969C81.351 5.94782 77.5855 13.6628 80.9483 16.0007C84.2285 18.2835 88.0905 9.27242 89.0852 7.23365Z" fill="#837710"></path>
<path d="M85.5642 18.5345C87.7361 16.7811 89.4502 14.5189 90.9028 12.1329C92.5721 9.39273 93.9214 6.46007 94.9196 3.41052C92.641 6.43944 88.483 7.158 85.0685 8.80826C81.42 10.572 76.8594 14.4982 76.4016 18.8164C75.8164 24.3276 83.5644 20.1504 85.5642 18.5345Z" fill="#837710"></path>
<path opacity="0.07" d="M85.5642 18.5345C87.7361 16.7811 89.4502 14.5189 90.9028 12.1329C92.5721 9.39273 93.9214 6.46007 94.9196 3.41052C92.641 6.43944 88.483 7.158 85.0685 8.80826C81.42 10.572 76.8594 14.4982 76.4016 18.8164C75.8164 24.3276 83.5644 20.1504 85.5642 18.5345Z" fill="#837710"></path>
<path d="M85.7502 23.2103C85.7502 23.2103 85.7708 23.2034 85.7846 23.1999C88.0184 22.4986 89.9804 21.0512 91.4742 19.2531C92.968 17.455 94.0179 15.3131 94.7304 13.0852C94.4997 13.8038 92.8269 14.4501 92.1695 14.5292C91.247 14.6426 89.6362 14.842 88.7 14.9452C86.473 15.1893 84.9206 15.4196 83.0585 16.2241C78.6975 18.1116 77.0832 20.6248 74.9285 24.3998C75.8475 23.8257 76.7975 23.7053 77.331 23.6641C78.1743 23.5953 79.0486 23.6331 79.885 23.6916C81.8469 23.8325 83.8571 23.7947 85.7502 23.2103Z" fill="#837710"></path>
<path opacity="0.15" d="M85.7502 23.2103C85.7502 23.2103 85.7708 23.2034 85.7846 23.1999C88.0184 22.4986 89.9804 21.0512 91.4742 19.2531C92.968 17.455 94.0179 15.3131 94.7304 13.0852C94.4997 13.8038 92.8269 14.4501 92.1695 14.5292C91.247 14.6426 89.6362 14.842 88.7 14.9452C86.473 15.1893 84.9206 15.4196 83.0585 16.2241C78.6975 18.1116 77.0832 20.6248 74.9285 24.3998C75.8475 23.8257 76.7975 23.7053 77.331 23.6641C78.1743 23.5953 79.0486 23.6331 79.885 23.6916C81.8469 23.8325 83.8571 23.7947 85.7502 23.2103Z" fill="#837710"></path>
<path d="M79.2515 7.65656C79.8332 6.65609 80.4906 5.70031 81.2375 4.84423C81.9707 4.00191 82.7899 3.23523 83.678 2.56137C84.122 2.22444 84.5832 1.90815 85.0617 1.61935C85.3405 1.45088 85.7156 1.20678 86.3971 0.893921C85.7569 1.9941 85.781 3.33837 85.6674 4.60357C85.4368 7.1271 84.628 9.6025 83.289 11.7513C80.2291 16.6574 75.8233 18.0326 74.2709 18.562C72.6979 19.0984 70.884 19.4663 69.2834 19.9166C71.3246 18.9265 73.1867 17.3381 74.7666 15.7085C75.5066 14.9452 76.0917 14.0582 76.5908 13.1196C76.9798 12.3839 77.3446 11.6447 77.6647 10.878C78.1191 9.79159 78.6423 8.69829 79.2481 7.65656H79.2515Z" fill="#837710"></path>
<path opacity="0.15" d="M79.2515 7.65656C79.8332 6.65609 80.4906 5.70031 81.2375 4.84423C81.9707 4.00191 82.7899 3.23523 83.678 2.56137C84.122 2.22444 84.5832 1.90815 85.0617 1.61935C85.3405 1.45088 85.7156 1.20678 86.3971 0.893921C85.7569 1.9941 85.781 3.33837 85.6674 4.60357C85.4368 7.1271 84.628 9.6025 83.289 11.7513C80.2291 16.6574 75.8233 18.0326 74.2709 18.562C72.6979 19.0984 70.884 19.4663 69.2834 19.9166C71.3246 18.9265 73.1867 17.3381 74.7666 15.7085C75.5066 14.9452 76.0917 14.0582 76.5908 13.1196C76.9798 12.3839 77.3446 11.6447 77.6647 10.878C78.1191 9.79159 78.6423 8.69829 79.2481 7.65656H79.2515Z" fill="#837710"></path>
<path d="M53.0682 26.3217C54.001 26.2461 54.9303 26.1154 55.8493 25.9298C57.8973 25.5172 59.0951 23.946 60.1966 22.2785C60.4616 21.8763 60.6716 21.4706 60.916 21.0615C61.064 20.8105 61.7627 19.7344 62.0622 19.7103C59.0745 19.9166 56.1763 21.2093 54.0216 23.2859C52.8961 24.3723 51.9358 25.6857 50.5383 26.3905C51.3816 26.4145 52.2283 26.3905 53.0682 26.3217Z" fill="#837710"></path>
<path opacity="0.25" d="M53.0682 26.3217C54.001 26.2461 54.9303 26.1154 55.8493 25.9298C57.8973 25.5172 59.0951 23.946 60.1966 22.2785C60.4616 21.8763 60.6716 21.4706 60.916 21.0615C61.064 20.8105 61.7627 19.7344 62.0622 19.7103C59.0745 19.9166 56.1763 21.2093 54.0216 23.2859C52.8961 24.3723 51.9358 25.6857 50.5383 26.3905C51.3816 26.4145 52.2283 26.3905 53.0682 26.3217Z" fill="#837710"></path>
<path d="M46.0293 34.5421C43.052 34.6349 41.1657 38.0936 40.2605 40.5518C41.2002 39.8126 41.9608 39.1525 43.0347 38.6231C44.0432 38.1246 45.2548 38.1486 46.3459 37.9183C48.1805 37.5263 49.8844 36.5396 51.1407 35.1438C49.5195 35.7764 47.771 34.4905 46.0328 34.5455L46.0293 34.5421Z" fill="#837710"></path>
<path opacity="0.25" d="M46.0293 34.5421C43.052 34.6349 41.1657 38.0936 40.2605 40.5518C41.2002 39.8126 41.9608 39.1525 43.0347 38.6231C44.0432 38.1246 45.2548 38.1486 46.3459 37.9183C48.1805 37.5263 49.8844 36.5396 51.1407 35.1438C49.5195 35.7764 47.771 34.4905 46.0328 34.5455L46.0293 34.5421Z" fill="#837710"></path>
<path d="M26.093 44.3508C26.926 43.9245 27.7383 43.4535 28.5162 42.9309C30.2545 41.7689 30.7604 39.8642 31.1425 37.9011C31.2354 37.4266 31.2733 36.9728 31.3456 36.5018C31.3869 36.2164 31.6209 34.9512 31.8894 34.8171C29.2081 36.1442 27.0155 38.4408 25.8177 41.181C25.1912 42.6112 24.8057 44.1961 23.78 45.3754C24.5682 45.0763 25.3392 44.7325 26.093 44.3474V44.3508Z" fill="#837710"></path>
<path opacity="0.25" d="M26.093 44.3508C26.926 43.9245 27.7383 43.4535 28.5162 42.9309C30.2545 41.7689 30.7604 39.8642 31.1425 37.9011C31.2354 37.4266 31.2733 36.9728 31.3456 36.5018C31.3869 36.2164 31.6209 34.9512 31.8894 34.8171C29.2081 36.1442 27.0155 38.4408 25.8177 41.181C25.1912 42.6112 24.8057 44.1961 23.78 45.3754C24.5682 45.0763 25.3392 44.7325 26.093 44.3474V44.3508Z" fill="#837710"></path>
<path d="M24.8919 57.7627C22.2656 59.1688 22.1176 63.1054 22.3999 65.708C22.9127 64.6319 23.2982 63.7002 24.0245 62.7478C24.706 61.8539 25.804 61.3382 26.6749 60.6472C28.1446 59.4817 29.2323 57.8383 29.7314 56.0333C28.5611 57.3192 26.4236 56.9444 24.8919 57.7661V57.7627Z" fill="#837710"></path>
<path opacity="0.25" d="M24.8919 57.7627C22.2656 59.1688 22.1176 63.1054 22.3999 65.708C22.9127 64.6319 23.2982 63.7002 24.0245 62.7478C24.706 61.8539 25.804 61.3382 26.6749 60.6472C28.1446 59.4817 29.2323 57.8383 29.7314 56.0333C28.5611 57.3192 26.4236 56.9444 24.8919 57.7661V57.7627Z" fill="#837710"></path>
<path d="M5.51336 81.4129C6.11915 80.6978 6.68019 79.9483 7.19993 79.1713C8.353 77.4316 8.08453 75.4754 7.67837 73.5192C7.57856 73.0447 7.44089 72.6115 7.32386 72.1508C7.25158 71.8689 6.97966 70.614 7.17585 70.3871C5.21391 72.6459 4.08149 75.6095 4.0333 78.5971C4.0092 80.158 4.26391 81.767 3.77515 83.2523C4.38782 82.6712 4.96608 82.0558 5.51336 81.4129Z" fill="#837710"></path>
<path opacity="0.25" d="M5.51336 81.4129C6.11915 80.6978 6.68019 79.9483 7.19993 79.1713C8.353 77.4316 8.08453 75.4754 7.67837 73.5192C7.57856 73.0447 7.44089 72.6115 7.32386 72.1508C7.25158 71.8689 6.97966 70.614 7.17585 70.3871C5.21391 72.6459 4.08149 75.6095 4.0333 78.5971C4.0092 80.158 4.26391 81.767 3.77515 83.2523C4.38782 82.6712 4.96608 82.0558 5.51336 81.4129Z" fill="#837710"></path>
</svg>