<svg width="77" height="109" viewBox="0 0 77 109" fill="none" xmlns="http://www.w3.org/2000/svg">
<path d="M24.5138 99.1261C36.7965 107.841 53.3602 112.127 65.5741 105.28C66.0796 104.995 66.5782 104.695 67.0596 104.379C77.6608 97.4533 78.7646 83.6453 72.0834 74.0804C66.3203 65.8287 56.6613 60.5038 48.3743 54.6004C42.9825 50.7606 31.4151 43.1187 32.4879 23.2416C32.7458 18.4888 30.0947 10.406 19.9336 9.93076C14.6622 9.68374 8.56904 11.7193 5.67373 19.6927C-6.95281 54.4722 2.43801 83.4577 24.5138 99.123V99.1261Z" fill="#8830A3"></path>
<path d="M23.3689 6.78513C29.9263 9.0552 31.9551 12.4071 32.7735 16.6346C33.4543 20.1491 34.7438 21.2029 34.7438 21.2029C34.7438 21.2029 31.1298 21.4811 28.4443 18.3137L25.7553 15.1462C25.7553 15.1462 26.0991 16.7972 23.4961 19.308C20.8897 21.8188 20.8209 24.1514 20.8209 24.1514C20.8209 24.1514 12.6611 18.4669 17.4408 13.6047C17.4408 13.6047 15.3054 14.7022 12.2794 14.2488C9.25345 13.7954 6.23779 15.6903 6.23779 15.6903C6.23779 15.6903 7.67513 11.9663 11.0518 9.29284C14.3838 6.65694 18.3623 5.05288 23.3655 6.78513H23.3689Z" fill="#CDD508"></path>
<path d="M11.0553 9.29288C14.3873 6.65698 18.3657 5.05292 23.3689 6.78517C24.8131 2.2513 28.7675 0 28.7675 0C31.4909 0.14696 31.6869 3.30504 31.6869 3.30504C27.4024 4.03046 25.5593 7.65755 25.5593 7.65755C24.0669 8.35796 22.6709 9.36479 21.7459 10.8125C19.0397 15.0525 20.5561 18.2887 20.5561 18.2887C20.5561 18.2887 24.0566 17.9698 25.7553 15.1431L25.5215 16.4783C25.2498 17.1912 24.6928 18.1511 23.4961 19.3049C20.8897 21.8157 20.8209 24.1484 20.8209 24.1484C20.8209 24.1484 12.6611 18.4638 17.4408 13.6016C17.4408 13.6016 15.3054 14.6991 12.2794 14.2457C9.25345 13.7924 6.23779 15.6872 6.23779 15.6872C6.23779 15.6872 7.67513 11.9632 11.0518 9.28975L11.0553 9.29288Z" fill="#CDD508"></path>
</svg>