<svg width="111" height="95" viewBox="0 0 111 95" fill="none" xmlns="http://www.w3.org/2000/svg">
<g clip-path="url(#clip0_26215_132574)">
<path d="M106.422 64.8195C99.698 80.7058 77.5152 101.518 48.1857 93.0389C18.8562 84.5593 15.7056 67.8363 8.43443 55.4774C1.16322 43.1186 -0.776917 31.9699 0.259681 19.8535L106.424 64.8195H106.422Z" fill="#6F6014"></path>
<path d="M79.2106 9.35489C73.2443 7.08911 67.1878 5.92618 61.3524 5.76311C52.5316 5.51421 43.7731 4.18178 35.2979 1.72288L33.1282 1.09421C22.6806 -1.93971 11.4261 1.46112 4.40601 9.77115C-1.58609 16.8646 -1.02164 27.3932 5.69371 33.8065L12.8404 40.6318C18.5965 46.1289 23.6357 52.3169 28.0332 58.9533C33.5059 67.2097 42.1592 74.2452 53.0059 78.3627C76.5494 87.2993 101.501 79.0965 108.738 60.0411C115.974 40.9858 102.756 18.2915 79.2128 9.35489H79.2106Z" fill="#D6FA4A"></path>
<path d="M91.3216 47.119C91.3216 47.1588 91.3216 47.1987 91.3216 47.2386C91.2851 53.7471 85.616 58.7861 79.2017 58.0543C74.9377 57.5677 70.5117 56.4112 66.1444 54.5348C60.6049 52.1579 55.8286 48.9096 52.0566 45.1887C46.9321 40.1339 47.9849 31.5276 54.1683 27.8685C57.908 25.6552 62.336 24.375 67.0839 24.375C80.4712 24.375 91.3236 34.5585 91.3236 47.121L91.3216 47.119Z" fill="#984F08"></path>
</g>
<defs>
<clipPath id="clip0_26215_132574">
<rect width="110.714" height="95" fill="white"></rect>
</clipPath>
</defs>
</svg>