<svg width="95" height="109" viewBox="0 0 95 109" fill="none" xmlns="http://www.w3.org/2000/svg">
<path d="M80.1945 75.754L83.0884 72.5664L87.537 65.0958L92.3894 54.2718L94.1034 46.3149L90.6754 40.8989L75.9905 55.028L80.1945 75.754Z" fill="#FFDD1B"></path>
<path d="M37.7191 95.0746C36.4276 97.6316 37.4613 99.9295 38.9069 102.179C40.2224 104.226 41.8886 106.024 43.8152 107.504C45.7843 109.017 48.5055 109.057 50.5145 107.601L65.319 96.8701C75.0319 89.8296 80.3866 78.2041 79.4432 66.2046L78.5715 55.1215L88.2871 44.1907C89.2969 43.0551 91.1571 43.5067 91.5397 44.9816L92.0579 46.9722C92.5416 48.8291 92.4645 50.7903 91.84 52.6045L87.5377 65.0984L92.5469 56.3987C95.2096 51.7736 95.7305 46.208 93.9739 41.1661C92.7382 37.6231 89.1614 35.4722 85.4729 36.0574L86.0415 34.7241C87.7476 30.7189 88.8983 26.4973 89.4616 22.1795L89.6928 20.3973C90.5592 13.7469 88.4864 7.04845 84.0193 2.06533L83.9714 2.01189C81.1997 -1.08218 76.225 -0.518407 74.2054 3.11807L69.826 11.0082C67.1154 15.8898 64.07 20.5737 60.711 25.0277L53.4191 34.6974C53.4191 32.0656 52.869 29.4631 51.8007 27.0611L51.5376 26.4679C49.6084 22.1207 46.9323 18.1502 43.6318 14.7382C41.0222 12.0396 38.0008 9.77647 34.6816 8.03438L34.4318 7.90346C29.3828 5.25292 23.6932 4.0853 18.017 4.53418C17.0231 4.61166 16.2897 5.49874 16.3906 6.49803L16.5607 8.13324L25.5906 10.9227L40.039 25.6476L41.8088 33.6527L40.7273 45.1152L25.3063 69.7662L46.2122 79.9542L37.7191 95.0773V95.0746Z" fill="#F9F4DC"></path>
<path d="M46.6168 43.0766C43.6804 49.4705 38.7642 54.3334 33.5211 59.2844C39.867 54.9239 46.2421 51.2286 52.6545 48.3483C53.752 47.854 55.0408 48.3884 55.482 49.5132L56.0321 50.9133C57.2173 53.9246 57.3156 57.2565 56.3137 60.3318L53.8849 67.7731C51.8519 74.004 48.8464 79.8715 44.9799 85.1539L37.7198 95.0747L43.9328 80.5555L38.9183 82.4365C33.8931 84.3229 28.6155 85.4344 23.2608 85.739L13.2476 86.3055C7.9142 86.6074 2.91029 83.7111 0.489381 78.9257C-0.172316 77.6191 -0.161687 76.0694 0.513297 74.7708C3.50555 69.0209 8.41646 64.516 14.385 62.0472C20.1622 59.6585 25.509 56.332 30.2152 52.1985L34.2652 48.6395C37.3903 45.8955 39.6145 42.2644 40.6483 38.2244C41.9637 33.0783 40.542 27.6143 36.8907 23.7721L35.756 22.5804C31.8044 18.4229 27.3373 14.7944 22.4662 11.7805L16.5641 8.12801C16.5535 7.45202 17.1248 6.91496 17.7945 6.96573L20.1011 7.14742C24.3556 7.48408 28.4029 9.12998 31.6901 11.8633C35.1341 14.7276 37.866 18.3561 39.673 22.4655L40.0371 23.2938C41.7006 27.0826 42.5005 31.1973 42.3729 35.3361L42.07 45.2622L46.6168 43.0713V43.0766Z" fill="#FFDD1B"></path>
</svg>