<svg width="90" height="109" viewBox="0 0 90 109" fill="none" xmlns="http://www.w3.org/2000/svg">
<g clip-path="url(#clip0_26215_132561)">
<path d="M36.7588 39.8129C35.352 38.7495 33.9711 37.6372 32.5446 36.6264C31.3315 36.3349 30.1518 36.1461 29.0757 36.0061C30.7774 37.2442 32.4878 38.5041 34.023 39.6536C35.4816 40.7453 36.781 41.7356 37.7633 42.5113C38.1582 42.1388 38.5679 41.7715 38.9912 41.4093C38.2335 40.9059 37.4919 40.3677 36.7601 39.8142L36.7588 39.8129Z" fill="#837710"></path>
<path d="M9.19163 22.5527C8.14762 22.1995 5.95473 21.6922 5.01562 22.1558C8.13652 23.0266 14.9077 26.2041 20.6645 30.0507C21.6123 30.1573 22.6316 30.3525 23.509 30.3461C22.2935 29.5382 21.0742 28.7509 19.8562 28.006C16.512 25.9613 12.9061 23.8075 9.19163 22.5527Z" fill="#837710"></path>
<path d="M24.4802 18.5585C24.8048 18.5893 25.0639 18.5585 25.2663 18.4789C25.2502 18.4095 25.2342 18.344 25.2194 18.2836C24.395 15.024 22.0035 11.4818 18.3593 11.6834C16.238 11.8003 15.7123 12.8509 15.9135 14.2624C18.2359 13.2362 22.6871 18.3864 24.4802 18.5585Z" fill="#6F6014"></path>
<path d="M25.2315 35.5145C23.6371 35.1947 21.8021 35.3886 20.267 34.8659C19.1366 34.4806 17.3731 33.1063 17.52 31.6563C17.6927 29.9494 19.0773 29.8749 20.6643 30.0522C14.9063 26.2043 8.13632 23.0281 5.01543 22.1573C5.95453 21.6937 8.14743 22.201 9.19143 22.5542C12.9071 23.809 16.5118 25.9628 19.856 28.0075C21.074 28.7524 22.2933 29.5397 23.5088 30.3476C24.6268 30.3386 25.5116 29.9982 25.7177 28.7152C26.0657 26.5408 21.3973 25.0715 19.9375 24.4293C19.3192 24.157 18.6997 23.8141 18.1123 23.4083C16.4587 23.6549 12.9762 20.6521 12.0655 19.9765C10.4292 18.7641 8.69411 17.9113 6.68509 17.6043C4.81181 17.3166 1.7847 17.5106 0.422319 19.1263C-2.11611 22.1368 1.60577 24.6323 3.9924 25.7959C5.81879 26.6859 7.87964 27.3461 9.85658 27.7455C10.908 27.9574 12.4863 27.7211 13.3415 28.5174C15.3012 30.3424 9.15441 33.4261 8.30415 34.7143C7.5847 35.8047 7.30581 37.1739 8.21653 38.2476C9.59126 39.8671 11.8076 39.1787 13.5229 38.6984C14.7064 38.367 18.8515 36.1528 19.9609 37.5514C20.8272 38.6431 18.7947 39.3701 18.2197 39.9339C17.1066 41.0256 17.0955 42.4345 18.3962 43.4286C20.3311 44.9082 22.9263 44.1555 24.8465 43.1101C28.0538 41.3634 30.5774 39.591 34.0191 39.6539C32.4828 38.5044 30.7736 37.2458 29.0719 36.0064C27.4972 35.8009 26.1422 35.6969 25.229 35.5132L25.2315 35.5145Z" fill="#6F6014"></path>
<path d="M32.5447 36.6266C33.9725 37.6374 35.3521 38.7496 36.7589 39.813C36.427 39.1375 36.153 38.4452 35.9284 37.7452C34.8079 37.2533 33.6627 36.895 32.5447 36.6266Z" fill="#6F6014"></path>
<path d="M39.0123 36.5327C36.5676 31.6547 33.4899 25.2394 31.9844 21.877C29.0363 15.2922 26.8853 7.58488 26.4905 4.16467C25.9166 5.06628 26.0882 7.39736 26.2745 8.52245C26.9409 12.5283 28.4773 16.5483 29.947 20.2845C31.8166 25.0365 34.1415 29.8669 36.2986 34.4867C37.0674 36.1332 37.9485 37.7425 38.7753 39.3736C39.0394 39.8951 39.2961 40.4191 39.5442 40.9457C39.9551 40.6104 40.3673 40.2945 40.7807 39.9991C40.2624 39.0089 39.6589 37.8234 39.0123 36.5314V36.5327Z" fill="#6F6014"></path>
<path d="M44.8209 20.973C44.0607 19.4921 42.7193 19.3033 41.5223 20.2948C40.9041 20.8073 39.9242 22.798 39.0086 21.75C37.8362 20.4079 40.5301 16.4521 41.0139 15.2795C41.7148 13.5816 42.6848 11.3944 41.3384 9.74912C40.4462 8.65743 39.1048 8.75118 37.9658 9.33684C36.6195 10.0291 32.8137 15.9255 31.3563 13.6471C30.7207 12.653 31.1699 11.0604 31.1169 9.94691C31.0194 7.85343 30.6837 5.63537 30.0963 3.62794C29.3287 1.00403 27.4838 -3.18549 24.2605 -0.998257C22.5304 0.175632 21.9171 3.26704 21.9232 5.23722C21.9306 7.34997 22.4958 9.2585 23.4152 11.1169C24.0199 12.3371 27.2037 17.712 25.2663 18.4775C25.0626 18.5571 24.8047 18.588 24.4802 18.5571C22.6883 18.385 18.2359 13.2348 15.9134 14.261C15.3236 14.5217 14.8707 15.1806 14.635 16.4226C14.0723 19.3765 15.8616 21.8528 18.1137 23.4068C18.7024 23.8127 19.3219 24.1556 19.9389 24.4279C21.4 25.07 26.0672 26.5393 25.7192 28.7137C25.5143 29.9968 24.6283 30.3371 23.5102 30.3461C22.634 30.3538 21.6135 30.1573 20.6657 30.0507C19.0788 29.8722 17.6942 29.948 17.5214 31.6549C17.3746 33.1049 19.138 34.4791 20.2684 34.8644C21.8035 35.3884 23.6373 35.1932 25.2329 35.513C26.1474 35.6967 27.5011 35.8007 29.0758 36.0062C30.1518 36.1462 31.3316 36.335 32.5446 36.6265C33.6627 36.895 34.8079 37.2533 35.9284 37.7452C36.9095 38.1755 37.8708 38.7085 38.7766 39.3737C37.9498 37.7426 37.0686 36.1334 36.2998 34.4868C34.1427 29.867 31.8166 25.0366 29.9482 20.2846C28.4785 16.5484 26.9421 12.5284 26.2757 8.52257C26.0881 7.3962 25.9166 5.06512 26.4917 4.1648C26.8866 7.585 29.0363 15.2923 31.9856 21.8772C33.4912 25.2396 36.5689 31.6549 39.0135 36.5328C39.4429 32.9777 41.4865 30.6299 43.6041 27.5732C44.8715 25.743 45.955 23.1769 44.8234 20.973H44.8209Z" fill="#CDD508"></path>
<path d="M86.8319 101.696C84.7486 99.6204 78.7753 100.382 79.786 93.4229C81.1679 83.9282 76.4714 84.5958 76.3456 78.4198C76.1826 70.4492 88.0282 53.8145 74.3304 39.2729C64.9847 29.3531 53.1124 28.4794 41.6546 36.6755C40.9636 37.1692 40.2747 37.6973 39.5878 38.2576C39.4022 38.4078 39.2166 38.5538 39.0309 38.7105C38.9051 38.8157 38.7855 38.923 38.6617 39.0304C37.9543 39.6357 37.2695 40.2497 36.6094 40.8722C26.0839 50.7942 21.738 62.7662 29.1366 75.2062C34.9573 84.9972 49.3481 91.0315 61.1751 87.9596C64.0957 87.1997 70.5476 85.7378 74.1448 90.6129C77.1933 94.7431 74.1221 95.0909 76.6488 98.8411C78.3133 101.31 81.6423 100.29 84.3485 102.267C87.8694 104.839 88.2468 109.744 89.7773 108.456C90.4765 107.868 89.5421 104.397 86.8319 101.698V101.696Z" fill="#B54D4D"></path>
</g>
<defs>
<clipPath id="clip0_26215_132561">
<rect width="90" height="108.667" fill="white"></rect>
</clipPath>
</defs>
</svg>