<svg width="100" height="106" viewBox="0 0 100 106" fill="none" xmlns="http://www.w3.org/2000/svg">
<path d="M43.5126 69.6266C43.7193 72.0627 43.8451 74.5078 43.8856 76.953C43.899 77.8941 43.7373 78.7587 44.344 79.4972C44.9372 80.2222 45.9574 80.8887 46.8157 81.2354C47.4674 81.4966 48.1685 81.6407 48.7797 81.9829C49.1437 82.1855 49.4717 82.4602 49.8133 82.6989C52.0019 84.2299 55.04 84.4461 57.4218 83.2392C57.6645 83.1177 57.9072 82.9781 58.1724 82.924C58.442 82.87 58.7206 82.9015 58.9948 82.924C61.6149 83.1177 64.0462 82.5683 64.6529 79.7719C66.1449 72.9003 67.2055 65.7945 69.4436 59.121C71.6592 52.506 74.8995 46.2603 78.7644 40.4649C77.1555 39.8299 75.4702 39.3841 73.758 39.1455C73.2906 39.0824 72.8052 39.0329 72.3603 39.1815C71.8435 39.3571 71.3312 39.6994 71.0885 40.1902C67.4437 47.5482 64.8776 53.7849 60.1453 61.368C60.8958 54.1001 61.2419 45.9226 61.9924 38.6501C59.5161 37.8891 56.932 37.4749 54.3434 37.4298C54.1007 37.4253 53.8355 37.4298 53.6423 37.5829C53.4131 37.7631 53.3637 38.0828 53.3322 38.371C52.5278 45.4903 51.7233 52.6096 50.9189 59.7289C48.6988 53.204 47.5977 47.3455 45.6473 41.3835C44.7484 38.6366 43.2564 37.4298 40.2903 37.7901C38.0387 38.0648 38.0162 40.1812 38.4791 42.0274C40.8071 51.2812 42.7216 60.2827 43.5036 69.6266H43.5126Z" fill="#CCE60C"></path>
<path d="M40.8835 10.4971C41.4363 9.65956 42.1599 8.96158 43.0497 8.50677C44.7485 7.63769 46.663 7.2054 48.5685 7.26394C49.2741 3.75157 52.2447 0.806574 55.7591 0.144627C59.2735 -0.517319 63.1115 1.1398 65.0439 4.15684C67.8078 1.77023 72.0233 1.22986 75.2951 2.85096C78.5668 4.47205 80.7015 8.15104 80.4902 11.803C81.7576 10.8754 85.0563 12.0191 86.1079 13.1899C89.0695 16.4907 88.3909 21.5971 86.018 25.3436C84.2114 28.1941 81.9014 28.9145 78.7465 28.122C78.6521 31.6614 75.6142 34.8135 72.1042 35.2548C68.5988 35.6961 64.9855 33.5527 63.471 30.3555C61.4352 32.4539 58.4691 33.4491 55.5569 33.6202C52.5907 33.7958 49.3954 33.0754 47.3686 30.8959C45.3417 28.7164 45.0271 24.8618 47.2517 22.885C44.1912 22.8535 41.2431 20.8406 40.0926 18.0037C39.1758 15.7387 39.4634 12.6586 40.8835 10.5016V10.4971Z" fill="#CCE60C"></path>
<path d="M40.6408 11.2176C38.4207 9.98825 35.7333 9.87567 33.4547 11.4112C30.8976 13.1314 29.5673 16.5041 30.2594 19.5122C26.9877 16.8959 21.5318 18.562 19.6668 22.3131C17.8017 26.0641 19.2398 30.9274 22.4037 33.6697C19.5184 33.6112 17.6264 36.9479 17.7523 39.8389C18.0623 47.0843 27.8101 49.2547 33.2705 46.4358C32.7357 46.715 36.5152 49.3403 36.722 49.4664C38.7174 50.6642 40.9644 51.4432 43.3103 51.3937C46.4517 51.3261 49.6291 49.624 51.0043 46.7961C50.5728 47.6832 56.4556 48.7369 57.1567 48.7144C59.5027 48.6423 61.7901 47.6652 63.2462 45.7829C65.4484 42.9325 65.2282 38.4745 62.7519 35.8537C64.9136 35.2638 66.5944 33.4311 67.4033 31.3372C68.5852 28.2706 68.7156 24.0287 66.3562 21.471C64.4147 19.3726 61.6149 18.4449 57.8039 19.5842C58.2892 16.2069 56.4062 12.6225 53.3502 11.114C50.1729 9.54695 45.3551 10.4926 43.0317 13.1989C42.3441 12.3839 41.5307 11.7129 40.6408 11.2221V11.2176Z" fill="#9E980A"></path>
<path d="M50.8741 34.7009C50.4022 39.366 54.2761 42.0859 58.4781 41.7301C57.4085 44.9633 58.4916 48.7954 61.0892 50.9884C63.6868 53.1814 67.6416 53.5956 70.6392 51.9881C73.6637 55.5815 79.1555 56.8288 83.4294 54.888C85.2586 54.055 87.0292 52.1096 86.2832 50.2364C87.7033 50.7002 89.146 51.173 90.638 51.209C92.1301 51.2451 93.7075 50.7903 94.6917 49.669C95.4692 48.7864 95.8017 47.5931 95.8826 46.4223C96.0444 44.0897 95.2445 41.7031 93.7165 39.9379C97.1635 39.7623 100.143 36.4751 99.9948 33.0213C99.8465 29.5674 96.5927 26.5504 93.1457 26.672C94.2333 23.7585 92.9255 20.1471 90.2291 18.607C87.5326 17.067 83.7665 17.783 81.8161 20.2011C81.0566 17.6794 78.6567 15.7386 76.0366 15.5225C73.4166 15.3063 70.7336 16.8283 69.5696 19.1924C66.0327 16.7068 61.4082 16.6527 58.8196 20.3857C57.1119 22.8444 57.2107 26.5549 59.3769 28.6218C55.5434 27.7257 51.283 30.7787 50.883 34.7009H50.8741Z" fill="#DDF39E"></path>
<path d="M4.14861 89.9172C3.12395 91.3492 2.05434 92.7541 0.935302 94.114C0.503867 94.6364 0.00950582 95.0327 0.000517579 95.7261C-0.0129648 96.4016 0.23872 97.2437 0.548815 97.8381C0.782509 98.2884 1.10159 98.6936 1.27686 99.171C1.38472 99.4547 1.43416 99.7563 1.51056 100.049C1.99593 101.913 3.56437 103.453 5.43392 103.908C5.62717 103.953 5.82042 103.989 5.99569 104.084C6.17096 104.178 6.31025 104.327 6.44957 104.467C7.79781 105.799 9.38875 106.637 11.0291 105.385C15.0558 102.31 18.9478 98.9053 23.2891 96.289C27.59 93.6953 32.2818 91.7815 37.1085 90.4125C36.5198 89.3093 35.8052 88.2781 34.9738 87.346C34.7491 87.0938 34.5019 86.8371 34.1873 86.7111C33.8233 86.5625 33.3828 86.5129 33.0188 86.6705C27.5854 89.0076 23.2666 91.2276 17.1321 93.1729C20.9341 89.5345 24.9384 85.207 28.7405 81.5686C27.7383 79.9925 26.5113 78.556 25.1092 77.3177C24.9788 77.2006 24.826 77.0791 24.6553 77.0745C24.4485 77.0655 24.2688 77.2186 24.116 77.3627C20.3544 80.8976 16.5928 84.428 12.8313 87.9584C14.6559 83.3338 16.7816 79.6052 18.4938 75.4174C19.2803 73.4856 19.0242 72.1257 17.2265 70.9369C15.8603 70.0318 14.8626 71.1846 14.2559 72.4184C11.2178 78.5876 8.07198 84.428 4.14861 89.9262V89.9172Z" fill="#CCE60C"></path>
<path d="M30.2819 56.2165C30.974 56.0138 31.6975 55.9733 32.3986 56.1354C33.7378 56.4506 34.9917 57.1126 36.0074 58.0357C38.0342 56.4371 41.0363 56.212 43.2744 57.4953C45.5125 58.7742 46.8472 61.485 46.5011 64.0428C49.1302 64.0248 51.6963 65.7044 52.739 68.127C53.7816 70.5496 53.2379 73.5712 51.4177 75.476C52.5458 75.557 53.8221 77.732 53.8536 78.8668C53.939 82.0639 51.1885 84.5496 48.137 85.4952C45.818 86.2157 44.2091 85.5268 42.8474 83.613C41.1441 85.5132 38.0073 85.8195 35.8726 84.4235C33.7424 83.0231 32.7581 80.1546 33.4188 77.6915C31.3245 77.8896 29.2303 77.0475 27.5495 75.7777C25.8417 74.4853 24.4215 72.594 24.3272 70.4461C24.2328 68.3026 25.8552 66.0376 27.9989 65.9926C26.3361 64.5426 25.6529 62.0569 26.345 59.9585C26.8978 58.2834 28.4932 56.7298 30.2774 56.212L30.2819 56.2165Z" fill="#CCE60C"></path>
<path d="M29.8145 56.5002C29.1673 54.7846 27.7472 53.4652 25.7788 53.24C23.5722 52.9878 21.2667 54.2172 20.2465 56.194C19.6713 53.2265 15.9007 51.5874 13.1234 52.7717C10.3505 53.956 8.8719 57.3018 9.3303 60.2873C7.77084 58.9048 5.17775 59.8505 3.89692 61.4941C0.68812 65.6189 5.02943 71.3737 9.3393 72.3824C8.91685 72.2834 9.76621 75.494 9.82014 75.6606C10.3549 77.2502 11.2268 78.7317 12.5391 79.8034C14.2963 81.2399 16.8355 81.7893 18.9073 80.8797C18.2556 81.1633 20.997 84.4956 21.3925 84.8153C22.7138 85.8735 24.4261 86.4094 26.1024 86.0581C28.6416 85.5223 30.601 82.9736 30.4617 80.3753C31.9223 81.0643 33.7019 80.8436 35.1221 80.0736C37.2028 78.9433 39.2521 76.6783 39.1488 74.1656C39.0634 72.1032 37.9578 70.284 35.3333 69.1222C37.1759 67.4966 37.814 64.6462 36.8388 62.3857C35.8231 60.0351 32.7402 58.3014 30.201 58.6977C30.201 57.9277 30.0662 57.1802 29.81 56.4912L29.8145 56.5002Z" fill="#DDF39E"></path>
<path d="M24.4799 74.1836C22.0441 76.5252 22.9025 79.8305 25.3743 81.6002C23.28 82.8745 22.0846 85.4863 22.4891 87.9044C22.8935 90.327 24.8709 92.4029 27.2663 92.9253C27.2483 96.3161 29.6841 99.5673 32.9334 100.504C34.3266 100.905 36.2051 100.662 36.668 99.2881C37.2297 100.207 37.805 101.143 38.605 101.859C39.4049 102.58 40.4835 103.066 41.5486 102.913C42.3845 102.791 43.126 102.292 43.7148 101.688C44.8922 100.481 45.5663 98.7973 45.5484 97.1131C47.5258 98.6307 50.6942 98.2254 52.2222 96.2575C53.7502 94.2897 53.3727 91.1106 51.4222 89.5615C53.3771 88.4718 54.3434 85.8735 53.5839 83.7661C52.8198 81.6587 50.42 80.2853 48.2224 80.7041C48.9819 78.9614 48.5684 76.7729 47.2292 75.4265C45.8899 74.0801 43.7103 73.6613 41.9666 74.4133C41.1846 71.3918 38.6724 69.1988 35.5085 70.0364C33.4232 70.5857 31.7469 72.6706 31.9716 74.8186C30.2819 72.531 26.5203 72.2113 24.471 74.1791L24.4799 74.1836Z" fill="#9E980A"></path>
</svg>