<svg width="102" height="109" viewBox="0 0 102 109" fill="none" xmlns="http://www.w3.org/2000/svg">
<g clip-path="url(#clip0_26215_132575)">
<path fill-rule="evenodd" clip-rule="evenodd" d="M91.804 12.1048L101.261 2.25256C101.816 1.67595 101.858 0.774881 101.36 0.148046C100.765 -0.605371 99.6464 -0.666056 98.9736 0.0157586L89.5919 9.51968L88.5018 12.8015L91.804 12.1048Z" fill="#FFFEF5"></path>
<path fill-rule="evenodd" clip-rule="evenodd" d="M99.5604 29.1445C100.2 30.5101 100.074 32.1067 99.2541 33.3703C97.1582 36.6035 94.1939 38.8049 90.4777 40.1128C83.3311 43.0415 76.3309 44.9199 69.5498 45.2047C67.6226 45.2851 65.8702 44.0829 65.2497 42.2505C63.0364 35.702 61.5331 29.3279 61.2336 23.2523C61.1655 21.8497 61.7932 20.5063 62.896 19.6416C66.1689 17.0714 68.879 14.7443 70.4559 12.907C71.0305 12.2373 71.7929 11.7544 72.6463 11.5295C78.7385 9.92618 84.6511 8.87864 90.2902 8.66556C92.4629 8.58233 94.3592 10.1293 94.7349 12.2764C95.8363 18.5864 97.3242 24.3766 99.5608 29.1465L99.5604 29.1445Z" fill="#772213"></path>
<path fill-rule="evenodd" clip-rule="evenodd" d="M87.3956 41.3115C81.3174 43.5499 75.3531 44.9591 69.5496 45.2028C67.6223 45.2831 65.8699 44.0809 65.2495 42.2485C63.1556 36.054 61.697 30.0171 61.2939 24.2407C61.1574 22.302 62.3237 20.5045 64.1498 19.8481C70.1663 17.6838 76.0041 16.2626 81.5669 15.9963C83.4956 15.9034 85.2539 17.1145 85.8748 18.9489C88.0144 25.2541 89.5876 31.2464 90.2118 36.7112C90.4411 38.7138 89.2821 40.6138 87.3932 41.3099L87.3956 41.3115Z" fill="#AA3F27"></path>
<path fill-rule="evenodd" clip-rule="evenodd" d="M85.5351 47.9926L80.4669 52.185C80.031 52.5447 79.5373 52.8206 79.0072 52.9972C71.7153 55.4144 64.7278 57.1964 58.3037 57.8199C56.11 58.0329 54.0348 56.6347 53.3082 54.4455C51.0536 47.6508 49.6504 40.5671 49.1165 33.184C49.0173 31.8174 49.4702 30.4725 50.3674 29.4935C51.8794 27.8427 54.1472 26.7151 56.5714 25.327C56.6605 25.2747 56.7527 25.2263 56.8457 25.1821C63.0398 22.171 70.572 20.7136 78.8461 20.1147C80.8995 19.9648 82.8239 21.2387 83.6202 23.2413C85.6952 28.4677 86.5511 35.9636 87.261 43.7267C87.4128 45.3745 86.7629 46.9773 85.533 47.993L85.5351 47.9926Z" fill="#772213"></path>
<path fill-rule="evenodd" clip-rule="evenodd" d="M76.096 53.9326C69.8538 55.8719 63.8667 57.28 58.3018 57.8204C56.1081 58.0334 54.0329 56.6352 53.3063 54.446C51.2354 48.2059 49.8833 41.7227 49.2638 34.989C49.0764 32.9405 50.1331 31.0087 51.9054 30.1485C57.5032 27.4327 63.3372 25.3832 69.9782 25.6085C71.861 25.6731 73.5452 26.895 74.2819 28.7206C76.7964 34.9541 78.4357 41.6065 79.3541 48.6073C79.6674 50.9996 78.2973 53.2496 76.096 53.9326Z" fill="#AA3F27"></path>
<path fill-rule="evenodd" clip-rule="evenodd" d="M75.8933 52.1234C73.3464 54.7444 71.9471 57.5203 71.0811 60.3666C70.6604 61.7582 69.6006 62.863 68.2284 63.3309C59.3388 66.3597 50.7423 68.4789 42.6042 69.1629C40.1183 69.3727 37.9344 67.5223 37.7331 65.0283C37.2381 58.8952 36.2056 53.2101 34.3243 48.2373C33.5761 46.2624 34.2729 44.0274 36.0333 42.8685C38.7979 41.0471 40.9733 38.944 42.513 36.5378C43.1923 35.4754 44.3052 34.7699 45.5483 34.5656C53.0557 33.3388 60.7241 31.7255 68.5307 29.7863C70.8417 29.2118 73.2001 30.5391 73.9102 32.8187C76.3355 40.6126 76.9633 45.0757 77.1634 48.7457C77.2323 50.0005 76.7675 51.2251 75.8933 52.1234Z" fill="#772213"></path>
<path fill-rule="evenodd" clip-rule="evenodd" d="M67.3479 63.6277C58.77 66.4993 50.4712 68.4999 42.6023 69.1627C40.1164 69.3726 37.9325 67.5222 37.7312 65.0281C37.2505 59.0683 36.2624 53.53 34.4778 48.6573C33.6469 46.3853 34.7334 43.8561 36.9645 42.9348C45.5066 39.4082 53.4581 37.1641 60.9333 35.9641C62.9545 35.6403 64.9464 36.7282 65.7598 38.6112C68.9581 46.0189 70.082 52.7176 70.412 59.1442C70.5144 61.1594 69.2563 62.9909 67.3462 63.6303L67.3479 63.6277Z" fill="#AA3F27"></path>
<path fill-rule="evenodd" clip-rule="evenodd" d="M69.0169 63.3025C69.7171 64.7967 69.5783 66.5438 68.6817 67.9264C66.3883 71.4643 63.1447 73.8731 59.0784 75.3042C51.2584 78.5089 43.5987 80.5643 36.1786 80.8759C34.0698 80.9639 32.1523 79.6484 31.4733 77.6433C29.0515 70.4778 27.4066 63.5031 27.0789 56.8551C27.0043 55.3204 27.6911 53.8504 28.8979 52.9042C32.4792 50.0918 35.4446 47.5455 37.1701 45.5351C37.7988 44.8023 38.633 44.2739 39.5669 44.0278C46.2331 42.2734 52.7027 41.1272 58.8731 40.894C61.2505 40.803 63.3256 42.4957 63.7366 44.8451C64.9418 51.7497 66.5699 58.0854 69.0173 63.3047L69.0169 63.3025Z" fill="#772213"></path>
<path fill-rule="evenodd" clip-rule="evenodd" d="M55.7039 76.6184C49.053 79.0678 42.5267 80.6097 36.1764 80.8764C34.0676 80.9643 32.1501 79.6488 31.4711 77.6437C29.18 70.8656 27.5839 64.2599 27.1428 57.9392C26.9935 55.8179 28.2698 53.851 30.2678 53.1327C36.8513 50.7645 43.2391 49.2094 49.326 48.9181C51.4364 48.8164 53.3604 50.1416 54.0398 52.1489C56.381 59.0481 58.1025 65.605 58.7854 71.5847C59.0363 73.776 57.7681 75.855 55.7013 76.6167L55.7039 76.6184Z" fill="#AA3F27"></path>
<path fill-rule="evenodd" clip-rule="evenodd" d="M54.2344 81.1561L49.1663 85.3485C48.7304 85.7082 48.2367 85.9841 47.7065 86.1606C40.4147 88.5779 33.4272 90.3599 27.0031 90.9834C24.8094 91.1964 22.7342 89.7981 22.0075 87.609C19.753 80.8143 18.3498 73.7306 17.8159 66.3475C17.7167 64.9808 18.1695 63.636 19.0667 62.657C20.5788 61.0062 22.8466 59.8786 25.2708 58.4904C25.3599 58.4382 25.452 58.3897 25.5451 58.3456C31.7392 55.3344 39.2714 53.877 47.5454 53.2782C49.5989 53.1283 51.5232 54.4022 52.3195 56.4048C54.3946 61.6312 55.2505 69.1271 55.9603 76.8902C56.1121 78.538 55.4622 80.1408 54.2323 81.1565L54.2344 81.1561Z" fill="#772213"></path>
<path fill-rule="evenodd" clip-rule="evenodd" d="M44.7977 87.0936C38.5555 89.0329 32.5684 90.4409 27.0035 90.9814C24.8098 91.1943 22.7346 89.7961 22.008 87.607C19.9372 81.3668 18.585 74.8837 17.9656 68.15C17.7782 66.1014 18.8349 64.1696 20.6072 63.3094C26.2049 60.5936 32.0389 58.5442 38.6799 58.7694C40.5628 58.834 42.2469 60.0559 42.9837 61.8815C45.4981 68.115 47.1374 74.7674 48.0558 81.7682C48.3691 84.1605 46.9991 86.4105 44.7977 87.0936Z" fill="#AA3F27"></path>
<path fill-rule="evenodd" clip-rule="evenodd" d="M44.5946 85.287C42.0477 87.9079 40.6484 90.6838 39.7824 93.5302C39.3617 94.9218 38.3019 96.0265 36.9297 96.4945C28.0401 99.5233 19.4436 101.642 11.3055 102.326C8.8196 102.536 6.63566 100.686 6.43439 98.1918C5.9394 92.0587 4.90695 86.3737 3.02562 81.4009C2.27742 79.426 2.97417 77.1909 4.73465 76.032C7.49917 74.2107 9.67463 72.1076 11.2143 69.7014C11.8936 68.6389 13.0065 67.9335 14.2496 67.7292C21.757 66.5023 29.4254 64.889 37.232 62.9499C39.543 62.3753 41.9014 63.7026 42.6115 65.9822C45.0368 73.7761 45.6646 78.2393 45.8647 81.9092C45.9336 83.164 45.4688 84.3887 44.5946 85.287Z" fill="#772213"></path>
<path fill-rule="evenodd" clip-rule="evenodd" d="M36.0535 96.789C27.4756 99.6605 19.1768 101.661 11.3079 102.324C8.82208 102.534 6.63814 100.683 6.43687 98.1894C5.95617 92.2295 4.96804 86.6913 3.18347 81.8185C2.35257 79.5465 3.43899 77.0173 5.67017 76.096C14.2122 72.5694 22.1637 70.3253 29.6389 69.1253C31.6601 68.8016 33.652 69.8894 34.4654 71.7724C37.6638 79.1801 38.7877 85.8788 39.1176 92.3055C39.2201 94.3206 37.962 96.1521 36.0518 96.7915L36.0535 96.789Z" fill="#AA3F27"></path>
<path fill-rule="evenodd" clip-rule="evenodd" d="M19.2085 89.6496L0.543336 109.092C0.0636808 109.592 -0.701937 108.906 -0.260669 108.371L16.9284 87.6075C17.4266 87.0049 18.3007 86.8762 18.9508 87.3102C19.7459 87.8407 19.8684 88.9593 19.2059 89.6479L19.2085 89.6496Z" fill="#FFFEF5"></path>
</g>
<defs>
<clipPath id="clip0_26215_132575">
<rect width="101.789" height="108.667" fill="white"></rect>
</clipPath>
</defs>
</svg>