<svg width="100" height="76" viewBox="0 0 100 76" fill="none" xmlns="http://www.w3.org/2000/svg">
<g clip-path="url(#clip0_26215_132578)">
<path d="M74.6728 43.834C45.4205 38.7096 41.9937 45.4108 39.5794 65.1519C37.9127 78.6647 15.514 79.5477 5.17128 67.8955C0.404921 62.5345 -1.80692 54.5087 1.74448 43.834C11.8847 13.434 52.8348 -11.0373 84.4236 5.15603C93.1308 9.61827 98.1152 16.5245 99.5482 23.3046C102.118 35.4141 93.4267 47.1295 74.6728 43.834Z" fill="#E29100"></path>
<path d="M80.6096 12.5C81.2115 8.89366 76.893 5.14806 70.9638 4.13398C65.0346 3.1199 59.7402 5.22134 59.1382 8.82768C58.5363 12.434 62.8549 16.1796 68.784 17.1937C74.7132 18.2078 80.0077 16.1063 80.6096 12.5Z" fill="#FBBA00"></path>
<path d="M74.673 43.834C45.4206 38.7095 41.9938 45.4108 39.5795 65.1519C37.9128 78.6647 15.5141 79.5477 5.17139 67.8954C38.5826 74.644 25.2025 42.5095 49.9845 29.2805C58.8786 24.5344 102.383 37.4639 99.5328 23.3046H99.5483C102.118 35.4141 93.4268 47.1295 74.673 43.834Z" fill="#BB6702"></path>
</g>
<defs>
<clipPath id="clip0_26215_132578">
<rect width="100" height="76" fill="white"></rect>
</clipPath>
</defs>
</svg>