<svg width="53" height="109" viewBox="0 0 53 109" fill="none" xmlns="http://www.w3.org/2000/svg">
<g clip-path="url(#clip0_26215_132558)">
<path d="M41.6012 12.4945C41.5704 12.6296 41.5311 12.7646 41.5002 12.8996C41.5535 12.7646 41.5816 12.6296 41.6012 12.4945Z" fill="#CDD508"></path>
<path d="M34.8839 31.6147C36.3284 32.4953 38.0954 33.6263 39.5455 32.757C40.788 32.0114 40.8974 30.2783 40.8301 28.8266C40.7628 27.3748 40.788 25.6614 41.9689 24.8202C43.3404 23.844 45.2309 24.7471 46.9054 24.5755C48.4115 24.4207 49.7046 23.3572 50.518 22.0743C50.9443 21.4019 51.2584 20.6704 51.5193 19.9164C50.044 18.7235 47.73 18.5125 46.3696 19.8489C49.9654 15.1335 52.1279 9.335 52.501 3.41269C52.5683 2.36609 52.5206 1.17318 51.7381 0.475449C50.417 -0.700572 48.3611 0.506397 47.1718 1.81465C44.4427 4.8166 42.513 8.53317 41.6014 12.4917C41.5818 12.6267 41.5538 12.7618 41.5005 12.8968C41.5285 12.7618 41.5706 12.6267 41.6014 12.4917C41.823 10.9049 39.8596 9.42503 38.202 9.80485C36.4013 10.2156 35.2176 11.9599 34.5753 13.6958C33.4366 16.7681 33.4422 20.2512 34.5922 23.3178C33.818 22.4147 32.2782 22.5779 31.3975 23.3797C30.5168 24.1816 30.1605 25.4026 29.9586 26.5786C29.824 27.3608 29.723 28.4046 29.6921 29.5637C31.5209 29.9548 33.2879 30.6413 34.8867 31.6147H34.8839Z" fill="#CDD508"></path>
<path d="M52.5121 21.1149C52.2708 20.6479 51.923 20.2484 51.5192 19.9192C51.2583 20.6732 50.947 21.4047 50.5178 22.0771C49.7044 23.36 48.4114 24.4235 46.9052 24.5783C45.2335 24.7499 43.3403 23.8468 41.9687 24.823C40.7879 25.6643 40.7655 27.3776 40.83 28.8294C40.8973 30.2811 40.7879 32.0142 39.5454 32.7598C38.0953 33.6291 36.3282 32.4953 34.8837 31.6175C33.285 30.6441 31.5179 29.9576 29.6892 29.5665C29.6022 32.9989 30.1576 37.4357 32.4099 38.9916C35.2484 40.9525 40.844 37.9787 43.2421 36.2484C44.5379 35.3144 45.7693 34.099 46.1002 32.5319C46.4312 30.9648 45.4776 29.0601 43.89 28.8969C46.2573 29.4427 48.9135 29.1445 50.8208 27.6365C52.728 26.1285 53.6312 23.2784 52.5149 21.1149H52.5121Z" fill="#9E980A"></path>
<path d="M19.9255 76.4837C20.9661 73.251 21.5215 69.8693 22.6939 66.6816C23.8691 63.494 25.7932 60.4076 28.7804 58.8011C31.0242 57.597 34.0843 56.9274 34.749 54.4656C35.3633 52.1839 33.355 49.8544 33.801 47.5333C34.1432 45.7439 35.8261 44.5538 37.4557 43.752C39.0881 42.9502 40.8916 42.2749 41.9911 40.8232C42.1818 40.57 42.3333 40.283 42.4511 39.9792C41.2731 38.5921 39.7725 37.4358 37.9802 36.648L32.867 34.3945C25.8633 31.3081 17.763 35.2104 15.7884 42.6238L1.26782 97.1541C9.95156 93.2209 16.9945 85.6021 19.9255 76.4837Z" fill="#E29100"></path>
<path d="M42.4511 39.9791C42.3361 40.283 42.1847 40.57 41.9911 40.8232C40.8916 42.2749 39.0853 42.9501 37.4557 43.752C35.8261 44.5538 34.1432 45.7439 33.801 47.5332C33.3579 49.8543 35.3661 52.1839 34.7491 54.4656C34.0843 56.9302 31.0214 57.5969 28.7804 58.8011C25.7961 60.4048 23.8691 63.4939 22.6939 66.6816C21.5187 69.8692 20.9633 73.251 19.9256 76.4836C16.9945 85.602 9.95159 93.2208 1.26785 97.154L0.230067 101.048C-1.54258 107.707 7.41603 111.657 11.1072 105.842L43.4889 54.8313C46.5462 50.0147 45.8786 44.0108 42.4511 39.9791Z" fill="#BB6702"></path>
</g>
<defs>
<clipPath id="clip0_26215_132558">
<rect width="53" height="108.667" fill="white"></rect>
</clipPath>
</defs>
</svg>