<svg width="111" height="107" viewBox="0 0 111 107" fill="none" xmlns="http://www.w3.org/2000/svg">
<path d="M58.3113 79.2604C64.0806 82.2253 72.2581 99.5439 74.2597 104.521C76.272 109.498 86.2478 105.206 93.4086 99.5118C100.569 93.8174 106.981 85.0618 102.592 81.9791C98.1931 78.9072 83.1652 67.0475 81.5703 60.7538L58.3113 79.2497V79.2604Z" fill="#D1D1D1"></path>
<path opacity="0.05" d="M58.3113 79.2604C64.0806 82.2253 72.2581 99.5439 74.2597 104.521C76.272 109.498 86.2478 105.206 93.4086 99.5118C100.569 93.8174 106.981 85.0618 102.592 81.9791C98.1931 78.9072 83.1652 67.0475 81.5703 60.7538L58.3113 79.2497V79.2604Z" fill="#292929"></path>
<path d="M104.947 13.8289L105.151 14.0858C105.782 14.8779 106.371 15.6914 106.949 16.537C107.12 16.7938 107.291 17.0293 107.43 17.2755C107.655 17.618 107.869 17.9498 108.062 18.2924C114.184 28.8997 108.982 36.1354 99.8522 42.4077C100.205 50.8315 90.7113 64.9282 75.7261 77.0555C60.6554 89.247 44.814 95.5836 36.6899 93.3572C27.9022 102.027 19.5426 105.506 9.19215 93.7211C9.11723 93.6569 9.03156 93.5606 8.95664 93.4642C8.62482 93.0789 8.27167 92.6721 7.95056 92.2654C5.40308 89.1292 3.48712 85.6292 2.19198 81.8936C1.98861 81.3477 1.80663 80.759 1.64608 80.181C1.14301 78.5326 0.757667 76.82 0.500778 75.086C0.404445 74.4331 0.297419 73.7481 0.243901 73.0844C-0.10932 69.7984 -0.0772563 66.416 0.329483 62.9374C0.393705 62.4129 0.447226 61.8991 0.532856 61.3853C0.821855 59.3731 1.22863 57.3394 1.77452 55.3271C1.77452 55.295 1.79593 55.2842 1.77452 55.2735C5.36025 41.7976 14.2122 28.0862 27.5275 17.3183C48.1214 0.652708 73.3713 -4.11042 91.1822 3.57481C91.7816 3.8317 92.3811 4.08859 92.9484 4.37759C93.5157 4.65588 94.0936 4.96629 94.6609 5.27669C96.0096 6.01525 97.3047 6.85013 98.5464 7.74924C98.9424 8.01683 99.317 8.31654 99.6917 8.62695C99.97 8.85172 100.259 9.07651 100.516 9.30128C100.783 9.53676 101.051 9.77223 101.308 10.0077C101.565 10.2218 101.8 10.4573 102.046 10.7035C102.507 11.1209 102.956 11.5812 103.395 12.0735C103.92 12.6301 104.444 13.2295 104.936 13.8396L104.947 13.8289Z" fill="#F6F6F6"></path>
<path d="M57.3801 72.5708C59.7242 75.7177 64.6907 84.9657 64.0592 85.2868C64.0592 85.2868 60.5484 81.4977 57.8939 79.9028C49.3524 74.8721 45.8094 78.5221 39.9438 84.7837C38.06 86.8067 36.219 87.4596 34.6134 87.2134C29.7004 86.4749 26.7569 77.3768 30.2249 72.132C33.6073 66.9835 43.5296 60.4971 49.4273 63.8366C52.8739 65.8168 55.0895 69.4668 57.3908 72.5601L57.3801 72.5708Z" fill="#D1D1D1"></path>
<path opacity="0.1" d="M57.3801 72.5708C59.7242 75.7177 64.6907 84.9657 64.0592 85.2868C64.0592 85.2868 60.5484 81.4977 57.8939 79.9028C49.3524 74.8721 45.8094 78.5221 39.9438 84.7837C38.06 86.8067 36.219 87.4596 34.6134 87.2134C29.7004 86.4749 26.7569 77.3768 30.2249 72.132C33.6073 66.9835 43.5296 60.4971 49.4273 63.8366C52.8739 65.8168 55.0895 69.4668 57.3908 72.5601L57.3801 72.5708Z" fill="#292929"></path>
<path d="M67.9766 49.0973C69.1112 52.8971 72.1832 55.8727 74.6878 58.8162C77.2353 61.8132 85.5628 68.107 86.0016 67.5718C86.0016 67.5718 82.6514 63.9112 81.7202 60.957C78.7338 51.5056 83.101 48.8725 90.4972 44.5697C100.13 38.993 88.1959 29.3383 80.3715 32.239C74.5915 34.3798 66.0393 42.6109 67.9766 49.0973Z" fill="#D1D1D1"></path>
<path opacity="0.1" d="M67.9766 49.0973C69.1112 52.8971 72.1832 55.8727 74.6878 58.8162C77.2353 61.8132 85.5628 68.107 86.0016 67.5718C86.0016 67.5718 82.6514 63.9112 81.7202 60.957C78.7338 51.5056 83.101 48.8725 90.4972 44.5697C100.13 38.993 88.1959 29.3383 80.3715 32.239C74.5915 34.3798 66.0393 42.6109 67.9766 49.0973Z" fill="#292929"></path>
</svg>