<svg width="99" height="109" viewBox="0 0 99 109" fill="none" xmlns="http://www.w3.org/2000/svg">
<g clip-path="url(#clip0_26215_132565)">
<path d="M54.4121 6.43608L81.4461 3.61913C87.9078 2.94582 93.6973 7.65113 94.3697 14.1224L97.1824 41.1966C100.53 73.4158 77.1267 102.297 44.9553 105.649L17.9212 108.466C11.4595 109.14 5.67 104.434 4.99769 97.9631L2.18492 70.8889C-1.16317 38.662 22.233 9.78914 54.4121 6.43608Z" fill="#FFDD1B"></path>
<path d="M84.5994 3.14576C88.2631 1.77442 92.3449 3.63277 93.7162 7.29652C101.553 28.2336 90.9163 51.5963 69.9792 59.4331L63.3454 61.9161L60.8624 55.2823C53.0256 34.3452 63.6623 10.9826 84.5994 3.14576Z" fill="#9E980A"></path>
<path d="M57.62 9.49352C59.4084 9.30717 60.7587 8.19875 60.636 7.0178C60.5133 5.83684 58.964 5.03055 57.1757 5.2169C55.3873 5.40325 54.037 6.51168 54.1597 7.69263C54.2823 8.87359 55.8316 9.67987 57.62 9.49352Z" fill="#FBBA00"></path>
<path d="M56.6046 16.6285C58.393 16.4422 59.7433 15.3338 59.6206 14.1528C59.4979 12.9719 57.9487 12.1656 56.1603 12.3519C54.3719 12.5383 53.0216 13.6467 53.1443 14.8276C53.267 16.0086 54.8162 16.8149 56.6046 16.6285Z" fill="#FBBA00"></path>
<path d="M49.6869 13.0332C51.4752 12.8468 52.8256 11.7384 52.7029 10.5575C52.5802 9.37651 51.0309 8.57023 49.2426 8.75658C47.4542 8.94293 46.1039 10.0513 46.2265 11.2323C46.3492 12.4133 47.8985 13.2195 49.6869 13.0332Z" fill="#FBBA00"></path>
</g>
<defs>
<clipPath id="clip0_26215_132565">
<rect width="99" height="108.667" fill="white"></rect>
</clipPath>
</defs>
</svg>