<svg width="72" height="109" viewBox="0 0 72 109" fill="none" xmlns="http://www.w3.org/2000/svg">
<path d="M71.9794 88.2345L70.7525 44.7382C70.6803 42.2024 70.0566 39.7132 68.9225 37.4469L66.2573 32.1211H5.73751L3.07238 37.4469C1.93828 39.7132 1.31451 42.2024 1.24234 44.7382L0.0154644 88.2345C0.00515438 88.4263 0 88.6208 0 88.8127C0 99.7781 16.1171 108.667 36 108.667C55.8829 108.667 72 99.7781 72 88.8127C72 88.6182 71.9948 88.4263 71.9845 88.2345H71.9794Z" fill="#49081A"></path>
<path d="M69.523 86.4583L68.3786 45.931C68.3116 43.5688 67.7291 41.2482 66.6723 39.1375L64.1876 34.1747H7.79695L5.31223 39.1375C4.25545 41.2482 3.67294 43.5688 3.60592 45.931L2.46151 86.4583C2.4512 86.6372 2.44604 86.8161 2.44604 86.9976C2.44604 97.2137 17.4652 105.496 35.9897 105.496C54.5142 105.496 69.5333 97.2137 69.5333 86.9976C69.5333 86.8161 69.5282 86.6372 69.5179 86.4583H69.523Z" fill="#99183D"></path>
<path d="M69.2112 18.3164C69.2112 19.3795 69.0462 20.4244 68.7317 21.4383C68.3967 22.5143 67.8915 23.5567 67.2316 24.5575C62.605 31.6025 50.3644 36.6354 35.9949 36.6354C21.6253 36.6354 9.38471 31.6025 4.75809 24.5575C4.09824 23.5567 3.59305 22.5143 3.25798 21.4383C2.94352 20.4244 2.77856 19.3795 2.77856 18.3164C2.77856 18.0467 2.78887 17.7796 2.80949 17.5126C3.57243 7.77098 18.1379 0 35.9949 0C53.8518 0 68.4173 7.77098 69.1802 17.5126C69.2008 17.7796 69.2112 18.0467 69.2112 18.3164Z" fill="#6D6D6D"></path>
<path d="M69.2112 18.3164V24.5576C69.2112 34.6725 54.339 42.8739 35.9949 42.8739C17.6508 42.8739 2.77856 34.6725 2.77856 24.5576V18.3164C2.77856 19.3795 2.94352 20.4244 3.25798 21.4383C3.59305 22.5143 4.09824 23.5567 4.75809 24.5576C9.38471 31.6025 21.6253 36.6354 35.9949 36.6354C50.3644 36.6354 62.605 31.6025 67.2316 24.5576C67.8915 23.5567 68.3967 22.5143 68.7317 21.4383C69.0462 20.4244 69.2112 19.3795 69.2112 18.3164Z" fill="#454545"></path>
<path d="M15.1402 92.4194C12.3952 91.5767 10.0084 90.4229 8.25056 88.7271C7.51854 88.0218 7.12934 87.0261 7.1577 86.0071L8.13973 50.6501C8.21447 47.9612 11.0523 46.2655 13.4288 47.4971C14.8206 48.2179 16.3517 48.778 18.0348 49.1617C19.7179 49.5455 20.9164 51.0831 20.8674 52.8307L19.8622 89.0305C19.7952 91.4548 17.4471 93.1299 15.1402 92.422V92.4194Z" fill="#CB1C48"></path>
</svg>