<svg width="111" height="106" viewBox="0 0 111 106" fill="none" xmlns="http://www.w3.org/2000/svg">
<g clip-path="url(#clip0_26215_132585)">
<path d="M109.698 63.0397L107.612 71.5695C106.068 77.8657 101.592 83.0334 95.5884 85.446L91.0351 87.2671C89.9103 87.7263 88.8864 88.419 88.0409 89.2984L82.6654 94.9486C69.1141 109.183 46.6346 109.744 32.4006 96.1939L31.5939 95.4234C30.3218 94.2093 28.7782 93.3143 27.0949 92.8084C23.9999 91.8745 21.254 90.0456 19.1984 87.5395L17.2514 85.158C15.7776 83.3602 14.49 81.4457 13.3962 79.4378C13.3962 79.4378 13.3885 79.4378 13.3885 79.4222C9.67292 72.6202 8.16808 64.7597 9.17648 56.9536L9.4247 55.0547C9.59535 53.716 9.44021 52.3541 8.9748 51.0855C6.22109 43.5908 7.37687 35.2089 12.0543 28.7415L16.274 22.9122C29.1427 5.12104 51.2654 -3.37764 72.69 1.24527L83.0144 3.47111C95.8366 6.23396 104.959 17.6044 104.959 30.7183C104.959 30.8973 104.951 31.084 104.951 31.263C104.92 32.7184 105.191 34.166 105.75 35.5046L108.046 41.0926C110.916 48.0425 111.49 55.7318 109.698 63.0397Z" fill="#BA7F3B"></path>
<path d="M14.6451 46.2057C13.7065 34.7807 18.6709 20.4061 42.1356 8.65431C44.0826 7.68148 46.2157 7.10556 48.3877 6.94213C73.5123 5.00424 93.7888 11.1603 99.048 27.3561C102.252 37.2323 97.0622 43.4351 93.0209 50.5718C91.3531 53.5214 88.9175 55.9652 85.9311 57.5528C81.2924 60.02 74.5207 63.7323 71.0301 66.215C65.3985 70.2075 57.0211 67.4524 48.7833 75.1728C40.5454 82.8932 30.1046 84.6288 20.4938 73.4684C12.9386 64.6973 12.6749 61.1484 13.978 55.6072C14.6994 52.533 14.8933 49.3655 14.6374 46.2135L14.6451 46.2057Z" fill="#DFA654"></path>
<path d="M44.6643 87.6095C43.3457 92.3725 48.9462 95.6335 55.3611 96.4273C61.7761 97.2211 72.9305 92.248 71.8058 84.2241C70.681 76.2001 63.6843 73.1649 54.5699 78.3482C48.7212 81.6714 45.2228 85.5783 44.6566 87.6173L44.6643 87.6095Z" fill="#DFA654"></path>
<path d="M109.698 63.0397L107.612 71.5695C106.068 77.8656 101.592 83.0333 95.5884 85.446L91.0351 87.2671C89.9103 87.7263 88.8864 88.4189 88.0409 89.2984L82.6654 94.9486C69.1141 109.183 46.6346 109.743 32.4007 96.1938L31.5939 95.4234C30.3218 94.2093 28.7782 93.3143 27.0949 92.8084C23.9999 91.8745 21.254 90.0455 19.1984 87.5395L17.2514 85.158C15.7776 83.3602 14.49 81.4457 13.3962 79.4377C18.9269 87.5551 32.3076 89.8354 44.4782 99.019C56.6565 108.21 77.4993 97.9449 81.9285 89.9833C86.3577 82.0138 98.8773 86.6056 104.222 68.8377C109.566 51.0621 104.074 41.5673 104.951 31.263C104.92 32.7184 105.191 34.1659 105.75 35.5046L108.046 41.0925C110.916 48.0424 111.49 55.7317 109.698 63.0397Z" fill="#8C5B2E"></path>
<path d="M25.846 46.914C29.7573 46.914 32.928 43.0323 32.928 38.2441C32.928 33.4558 29.7573 29.5742 25.846 29.5742C21.9347 29.5742 18.7639 33.4558 18.7639 38.2441C18.7639 43.0323 21.9347 46.914 25.846 46.914Z" fill="#5F3414"></path>
<path d="M37.2796 25.1925C38.4406 25.1925 39.3817 24.0392 39.3817 22.6165C39.3817 21.1937 38.4406 20.0404 37.2796 20.0404C36.1186 20.0404 35.1775 21.1937 35.1775 22.6165C35.1775 24.0392 36.1186 25.1925 37.2796 25.1925Z" fill="#5F3414"></path>
<path d="M63.6648 26.8456C66.0943 22.9659 65.4966 18.2025 62.3298 16.2062C59.163 14.21 54.6263 15.7369 52.1968 19.6167C49.7673 23.4964 50.3651 28.2599 53.5319 30.2561C56.6987 32.2523 61.2353 30.7254 63.6648 26.8456Z" fill="#5F3414"></path>
<path d="M52.1476 46.019C53.4011 44.0173 52.794 41.3713 50.7916 40.1091C48.7892 38.8469 46.1498 39.4464 44.8963 41.4481C43.6429 43.4499 44.25 46.0959 46.2523 47.3581C48.2547 48.6203 50.8941 48.0208 52.1476 46.019Z" fill="#5F3414"></path>
<path d="M87.9567 39.6332C89.2102 37.6314 88.6031 34.9855 86.6007 33.7232C84.5983 32.461 81.9589 33.0605 80.7054 35.0623C79.4519 37.064 80.059 39.71 82.0614 40.9722C84.0638 42.2344 86.7032 41.6349 87.9567 39.6332Z" fill="#5F3414"></path>
<path d="M79.7395 21.4529C80.348 20.4811 80.0532 19.1966 79.0811 18.5838C78.1089 17.971 76.8275 18.2619 76.219 19.2337C75.6105 20.2055 75.9053 21.49 76.8775 22.1028C77.8496 22.7156 79.131 22.4247 79.7395 21.4529Z" fill="#5F3414"></path>
<path d="M66.6094 82.169C67.2179 81.1973 66.9231 79.9127 65.9509 79.2999C64.9788 78.6871 63.6974 78.9781 63.0889 79.9498C62.4804 80.9216 62.7752 82.2061 63.7473 82.819C64.7195 83.4318 66.0009 83.1408 66.6094 82.169Z" fill="#5F3414"></path>
<path d="M47.2285 79.4434C49.5417 75.7492 48.4204 70.8656 44.724 68.5356C41.0276 66.2055 36.1558 67.3113 33.8425 71.0054C31.5293 74.6996 32.6506 79.5832 36.347 81.9132C40.0434 84.2433 44.9152 83.1375 47.2285 79.4434Z" fill="#5F3414"></path>
<path d="M25.5823 65.7985C26.6671 64.0661 26.1409 61.7756 24.407 60.6826C22.673 59.5896 20.388 60.108 19.3031 61.8404C18.2183 63.5728 18.7445 65.8633 20.4784 66.9563C22.2124 68.0493 24.4975 67.531 25.5823 65.7985Z" fill="#5F3414"></path>
<path d="M71.6863 59.0241C72.7711 57.2917 72.2449 55.0012 70.511 53.9082C68.777 52.8152 66.492 53.3336 65.4071 55.066C64.3223 56.7984 64.8485 59.0889 66.5825 60.1819C68.3164 61.2749 70.6015 60.7565 71.6863 59.0241Z" fill="#5F3414"></path>
<path d="M99.7729 57.1092C100.447 56.0319 100.121 54.6081 99.0436 53.9289C97.9662 53.2498 96.546 53.5726 95.8714 54.6499C95.1968 55.7272 95.5233 57.1511 96.6006 57.8302C97.678 58.5093 99.0983 58.1865 99.7729 57.1092Z" fill="#5F3414"></path>
<path d="M99.7729 57.1092C100.447 56.0319 100.121 54.6081 99.0436 53.9289C97.9662 53.2498 96.546 53.5726 95.8714 54.6499C95.1968 55.7272 95.5233 57.1511 96.6006 57.8302C97.678 58.5093 99.0983 58.1865 99.7729 57.1092Z" fill="#5F3414"></path>
<path d="M88.3457 72.1864C90.4675 68.798 90.3437 64.8889 88.0693 63.4552C85.7949 62.0215 82.231 63.6061 80.1092 66.9945C77.9874 70.3829 78.1111 74.292 80.3856 75.7257C82.66 77.1594 86.2239 75.5748 88.3457 72.1864Z" fill="#5F3414"></path>
<path d="M93.7189 100.038C94.3782 100.607 95.1539 101.151 96.0072 101.681C98.66 103.323 102.12 102.031 103.027 99.0423C103.361 97.9371 103.562 96.7697 103.617 95.5323C103.764 92.0768 100.312 89.6953 97.1087 90.9716C96.108 91.3686 95.1617 91.8511 94.2541 92.427C91.547 94.1314 91.2755 97.9683 93.7189 100.046V100.038Z" fill="#BA7F3B"></path>
<path d="M108.108 86.162C107.798 86.3021 107.48 86.4811 107.154 86.6912C106.138 87.3449 106.006 88.7769 106.89 89.6019C107.216 89.9054 107.596 90.17 108.015 90.3957C109.194 91.0261 110.606 90.2167 110.699 88.8781C110.73 88.4579 110.722 88.0454 110.676 87.6329C110.536 86.3954 109.241 85.6561 108.108 86.162Z" fill="#BA7F3B"></path>
<path d="M1.80731 53.7471C1.49703 53.8872 1.179 54.0662 0.853211 54.2763C-0.162943 54.9301 -0.294811 56.3621 0.589476 57.1871C0.915266 57.4906 1.29535 57.7552 1.71423 57.9809C2.89328 58.6113 4.30503 57.8019 4.39812 56.4633C4.42914 56.043 4.42139 55.6305 4.37485 55.218C4.23522 53.9806 2.93982 53.2412 1.80731 53.7471Z" fill="#BA7F3B"></path>
</g>
<defs>
<clipPath id="clip0_26215_132585">
<rect width="110.714" height="106" fill="white"></rect>
</clipPath>
</defs>
</svg>