<svg width="111" height="101" viewBox="0 0 111 101" fill="none" xmlns="http://www.w3.org/2000/svg">
<path d="M105.508 40.716L109.181 37.0432C110.577 35.6473 110.087 33.2708 108.251 32.5479L103.373 30.6201C101.744 29.972 101.121 27.986 102.102 26.5319L105.425 21.6044C106.564 19.9093 105.525 17.6159 103.506 17.3417L99.2681 16.785C97.2074 16.5108 96.1853 14.1426 97.3985 12.4558L98.8776 10.395C100.664 7.91054 101.296 4.76959 100.606 1.78652L100.199 0.0166188L70.9082 19.6932C68.7477 21.1474 67.0028 23.1416 65.8644 25.4849L59.7237 38.057C57.9455 41.6965 52.7688 41.6965 50.9906 38.057L44.8499 25.4849C43.7032 23.1416 41.9666 21.1474 39.8061 19.6932L10.5238 0L10.1167 1.7699C9.427 4.75297 10.0585 7.89392 11.845 10.3784L13.3241 12.4392C14.5373 14.126 13.5069 16.4941 11.4545 16.7683L7.2167 17.3251C5.19752 17.591 4.15885 19.8927 5.29723 21.5878L8.62099 26.5153C9.6015 27.9694 8.9866 29.9637 7.34965 30.6035L2.47204 32.5313C0.635668 33.2625 0.145414 35.6307 1.54139 37.0266L5.21414 40.6994C6.33591 41.8211 6.27774 43.6575 5.08119 44.7128L0.934806 48.344C-0.311602 49.4409 -0.311602 51.3853 0.934806 52.4738L5.08119 56.105C6.27774 57.152 6.33591 58.9883 5.21414 60.1184L1.54139 63.7912C0.145414 65.1871 0.635668 67.5636 2.47204 68.2865L7.34965 70.2143C8.97829 70.8625 9.6015 72.8484 8.62099 74.3025L5.29723 79.23C4.15885 80.9251 5.18921 83.2185 7.2167 83.4927L11.4545 84.0495C13.5152 84.3237 14.5373 86.6918 13.3241 88.3786L11.845 90.4394C10.0585 92.9239 9.427 96.0648 10.1167 99.0479L10.5238 100.818L39.8144 81.1412C41.9749 79.687 43.7198 77.6928 44.8582 75.3495L50.9989 62.7774C52.7771 59.1379 57.9538 59.1379 59.732 62.7774L65.8727 75.3495C67.0194 77.6928 68.756 79.687 70.9165 81.1412L100.207 100.818L100.614 99.0479C101.304 96.0648 100.672 92.9239 98.8859 90.4394L97.4068 88.3786C96.1936 86.6918 97.224 84.3237 99.2764 84.0495L103.514 83.4927C105.533 83.2268 106.572 80.9251 105.434 79.23L102.11 74.3025C101.129 72.8484 101.744 70.8541 103.381 70.2143L108.259 68.2865C110.095 67.5553 110.585 65.1871 109.19 63.7912L105.517 60.1184C104.395 58.9966 104.453 57.1603 105.65 56.105L109.796 52.4738C111.043 51.3769 111.043 49.4325 109.796 48.344L105.65 44.7128C104.453 43.6658 104.395 41.8295 105.517 40.6994L105.508 40.716Z" fill="#FEE600"></path>
<path d="M28.4407 29.8562L45.0761 41.1902C51.9064 45.8435 60.9636 45.536 67.4616 40.4341L80.9228 29.8562L75.6962 47.2727H36.642L28.4324 29.8562H28.4407Z" fill="#FBBA00"></path>
<path d="M28.4407 70.5389L45.0761 59.2049C51.9064 54.5517 60.9636 54.8591 67.4616 59.9611L80.9228 70.5389L75.6962 53.1224H36.642L28.4324 70.5389H28.4407Z" fill="#FBBA00"></path>
</svg>