<svg width="97" height="109" viewBox="0 0 97 109" fill="none" xmlns="http://www.w3.org/2000/svg">
<g clip-path="url(#clip0_26215_132567)">
<path d="M79.7126 64.7005C81.4175 68.6071 82.3549 72.8679 82.3549 77.3284C82.3549 86.7901 78.1379 95.357 71.3239 101.559C64.5099 107.761 55.0935 108.667 44.6946 108.667C35.5942 108.667 27.2506 108.659 20.7393 103.769C12.3719 97.4847 7.03698 87.9725 7.03698 77.3284C7.03698 75.8398 7.14055 74.3725 7.34237 72.9345C7.52825 71.6083 7.80177 70.3034 8.14964 69.0279C8.17619 68.9213 8.20806 68.8148 8.23727 68.7083L9.36851 60.7432C10.282 54.3201 9.73497 47.7744 7.77256 41.5909L0.092859 17.3948C-0.119581 16.7237 0.0424046 15.9808 0.536327 15.4801C2.59699 13.3923 5.13299 11.8345 8.12839 10.7879C9.07906 10.455 10.1253 10.9344 10.5157 11.8664C13.527 19.0698 17.566 31.2132 22.2264 46.3204C21.2412 33.8842 18.9363 21.8048 15.1947 10.1195C14.8548 9.06227 15.2531 7.89853 16.1772 7.28604C18.4264 5.79742 20.9677 4.66032 23.825 3.90402C25.0386 3.58446 26.3053 4.23956 26.7594 5.41395C30.2035 14.2738 33.2653 27.7459 36.0987 43.953C36.5316 43.8624 36.4466 35.4074 36.4466 35.4074L52.8602 39.7587L52.353 43.7639H52.3504C52.3504 43.7639 52.353 43.7639 52.353 43.7666L65.1313 1.10254L77.3572 1.91742L69.2101 34.7869C68.5994 37.2475 68.2913 39.7747 68.2913 42.3099L85.0316 7.73076L96.976 11.174L81.29 44.7945C79.062 49.5693 78.2123 54.8394 78.7938 60.0162C78.9664 61.5927 79.2745 63.1586 79.7153 64.7005H79.7126Z" fill="#CCE60C"></path>
<path d="M52.8567 39.7665C53.3287 38.1887 50.04 35.8051 45.5111 34.4426C40.9822 33.08 36.9282 33.2544 36.4562 34.8322C35.9842 36.4099 39.2729 38.7935 43.8018 40.1561C48.3306 41.5187 52.3847 41.3442 52.8567 39.7665Z" fill="#F9F4DC"></path>
<path d="M77.3618 1.91591C77.415 1.11318 74.7213 0.280153 71.3453 0.0552858C67.9693 -0.169581 65.1895 0.298866 65.1363 1.10159C65.0831 1.90432 67.7768 2.73734 71.1528 2.96221C74.5288 3.18708 77.3087 2.71863 77.3618 1.91591Z" fill="#F9F4DC"></path>
<path d="M96.9756 11.1723C97.2759 10.1249 94.8456 8.50492 91.5474 7.55399C88.2492 6.60307 85.332 6.68127 85.0317 7.72866C84.7315 8.77604 87.1618 10.396 90.46 11.3469C93.7582 12.2978 96.6754 12.2196 96.9756 11.1723Z" fill="#F9F4DC"></path>
<path d="M82.355 77.3283C82.355 86.79 78.138 95.3569 71.324 101.559C64.51 107.761 55.0936 108.667 44.6947 108.667C35.5943 108.667 27.2508 108.659 20.7395 103.769C12.372 97.4846 7.03711 87.9724 7.03711 77.3283C7.03711 75.8397 7.14067 74.3724 7.34249 72.9344C7.52838 71.6082 7.80189 70.3033 8.14976 69.0278C16.8917 58.0988 31.6429 50.9193 48.3646 50.9193C59.8842 50.9193 70.4663 54.3253 78.794 60.0161C78.9666 61.5926 79.2746 63.1585 79.7154 64.7004C81.4202 68.607 82.3576 72.8678 82.3576 77.3283H82.355Z" fill="#F9F4DC"></path>
</g>
<defs>
<clipPath id="clip0_26215_132567">
<rect width="97" height="108.667" fill="white"></rect>
</clipPath>
</defs>
</svg>