<svg width="109" height="109" viewBox="0 0 109 109" fill="none" xmlns="http://www.w3.org/2000/svg">
<path d="M104.632 75.6931C90.1326 111.468 59.3626 113.527 44.2283 102.256C34.8684 95.293 29.1447 91.373 22.2533 83.838L22.2406 83.8253C17.9764 79.181 13.2679 73.1518 6.97301 64.1873C-9.51931 40.6801 27.7931 4.66331 50.4026 7.7256C72.8598 10.7688 75.7407 16.779 93.6799 0C93.6799 0 97.5888 1.43584 101.853 6.49306C79.1483 35.4386 116.956 45.3053 104.632 75.6994V75.6931Z" fill="#FFFEEA"></path>
<path d="M83.349 82.6858C96.992 68.337 94.9234 44.1923 78.7287 28.7571C62.534 13.3219 38.3458 12.4412 24.7028 26.79C11.0598 41.1389 13.1284 65.2836 29.3231 80.7188C45.5178 96.154 69.706 97.0347 83.349 82.6858Z" fill="#F5778A"></path>
<path d="M104.632 75.6931C90.1325 111.468 59.3625 113.527 44.2281 102.256C34.8683 95.293 29.1445 91.373 22.2532 83.838C22.9004 84.4161 45.7447 104.581 66.9709 100.865C88.5144 97.0846 107.126 64.8925 99.6446 51.0741C92.1631 37.2557 86.7185 17.4588 101.853 6.48035C79.1482 35.4259 116.956 45.2926 104.632 75.6867V75.6931Z" fill="#592968"></path>
</svg>