<svg width="111" height="111" viewBox="0 0 111 111" fill="none" xmlns="http://www.w3.org/2000/svg">
<path d="M110.698 25.527C110.131 46.9038 100.131 67.8721 83.4459 80.3315C62.2025 94.9577 38.2506 81.1565 25.4912 53.8543C20.6992 43.6035 21.8659 34.161 26.683 26.3354C29.8166 21.2433 34.5086 16.8346 40.1257 13.351C48.2514 8.30891 60.069 3.48353 72.2367 1.17501C83.4876 -0.958498 94.6135 -0.43347 101.981 4.85863C107.481 8.80062 110.89 15.4012 110.698 25.527Z" fill="#CB1C48"></path>
<g opacity="0.45">
<path d="M50.3515 50.4706C50.5682 50.754 50.5432 51.2124 50.4015 51.5374C50.2598 51.8541 50.0015 52.0958 49.7348 52.3125C49.0847 52.8292 48.3513 53.2042 47.5346 53.3875C47.2596 53.4542 46.9679 53.4876 46.6929 53.3959C45.6762 53.0542 46.3428 51.9708 46.8012 51.5541C47.3012 51.0957 47.9263 50.7457 48.5597 50.504C48.9848 50.3456 49.4931 50.1623 49.9598 50.2373C50.1348 50.2706 50.2682 50.354 50.3515 50.4706Z" fill="#D9254E"></path>
<path d="M74.0868 33.5359C74.3284 33.786 74.3701 34.2527 74.2617 34.5944C74.1617 34.9277 73.9367 35.2028 73.695 35.4528C73.12 36.0528 72.4366 36.5195 71.6615 36.8112C71.3948 36.9112 71.1115 36.9862 70.8281 36.9279C69.778 36.7195 70.3114 35.5528 70.7114 35.0694C71.1448 34.5527 71.7199 34.1193 72.3199 33.7943C72.7116 33.5859 73.195 33.3359 73.6617 33.3526C73.8367 33.3526 73.9784 33.4276 74.0784 33.5359H74.0868Z" fill="#D9254E"></path>
<path d="M99.9723 15.9846C100.214 16.2346 100.256 16.7013 100.147 17.043C100.047 17.3764 99.8222 17.6514 99.5805 17.9014C99.0055 18.5014 98.3221 18.9598 97.547 19.2598C97.2803 19.3599 96.997 19.4348 96.7136 19.3765C95.6635 19.1682 96.1969 18.0014 96.5969 17.518C97.0303 17.0013 97.6054 16.5679 98.2054 16.2429C98.5971 16.0346 99.0805 15.7845 99.5472 15.8012C99.7222 15.8012 99.8639 15.8762 99.9639 15.9846H99.9723Z" fill="#D9254E"></path>
<path d="M67.903 68.2305C68.1446 68.4805 68.1863 68.9472 68.078 69.2889C67.9697 69.6223 67.753 69.8973 67.5113 70.1473C66.9362 70.739 66.2528 71.2057 65.4694 71.4974C65.2028 71.5974 64.9194 71.6724 64.636 71.6141C63.586 71.3974 64.1193 70.239 64.5277 69.7556C64.9611 69.2389 65.5361 68.8055 66.1362 68.4888C66.5362 68.2805 67.0112 68.0304 67.4863 68.0554C67.6613 68.0554 67.803 68.1305 67.903 68.2388V68.2305Z" fill="#D9254E"></path>
<path d="M36.4087 41.1283C36.6754 41.3617 36.7504 41.82 36.6837 42.1701C36.6087 42.5118 36.417 42.8118 36.2003 43.0868C35.6836 43.7369 35.0502 44.2619 34.3085 44.6286C34.0585 44.7536 33.7835 44.8536 33.4918 44.8203C32.4333 44.7036 32.85 43.4868 33.2084 42.9701C33.5918 42.4117 34.1251 41.9284 34.6835 41.5534C35.0586 41.3033 35.5086 41.0116 35.9753 40.9866C36.1503 40.9783 36.292 41.0366 36.4087 41.1283Z" fill="#D9254E"></path>
<path d="M81.5207 18.4681C81.7041 18.7681 81.6374 19.2265 81.4624 19.5265C81.2874 19.8265 81.004 20.0432 80.7123 20.2266C80.0123 20.6683 79.2372 20.9683 78.4038 21.0683C78.1205 21.1016 77.8204 21.11 77.5537 20.9933C76.5703 20.5516 77.3454 19.5515 77.8538 19.1765C78.3955 18.7765 79.0622 18.4931 79.7206 18.3181C80.1539 18.2014 80.6873 18.0764 81.1457 18.2014C81.3207 18.2514 81.4374 18.3431 81.5207 18.4681Z" fill="#D9254E"></path>
<path d="M87.3962 69.0639C87.6796 69.2722 87.7963 69.7306 87.7546 70.0806C87.7129 70.4306 87.5462 70.7473 87.3546 71.039C86.8962 71.7307 86.3128 72.3141 85.6044 72.7392C85.3627 72.8808 85.0961 73.0058 84.8127 72.9975C83.7543 72.9725 84.071 71.7224 84.3793 71.1724C84.7127 70.5806 85.196 70.0473 85.7294 69.6306C86.0795 69.3472 86.5045 69.0222 86.9628 68.9555C87.1379 68.9305 87.2796 68.9722 87.4046 69.0639H87.3962Z" fill="#D9254E"></path>
<path d="M87.5128 6.21705C87.6628 6.53374 87.5378 6.97546 87.3128 7.25048C87.0961 7.51717 86.7877 7.69218 86.471 7.84219C85.7126 8.18388 84.9042 8.36723 84.0542 8.35889C83.7708 8.35889 83.4708 8.32555 83.2208 8.1672C82.2957 7.60049 83.2041 6.71709 83.7541 6.4254C84.3542 6.10037 85.0459 5.90869 85.7293 5.83369C86.1793 5.78368 86.7294 5.72534 87.1711 5.90869C87.3377 5.97536 87.4461 6.09204 87.5044 6.22539L87.5128 6.21705Z" fill="#D9254E"></path>
<path d="M104.606 33.0526C104.923 33.2026 105.123 33.6276 105.148 33.9943C105.173 34.3527 105.073 34.6944 104.948 35.0194C104.639 35.8028 104.189 36.4945 103.589 37.0613C103.389 37.2529 103.156 37.428 102.872 37.478C101.839 37.6613 101.897 36.3612 102.089 35.7528C102.297 35.0944 102.664 34.4777 103.089 33.9527C103.373 33.6026 103.723 33.1943 104.156 33.0359C104.323 32.9776 104.473 32.9943 104.598 33.0526H104.606Z" fill="#D9254E"></path>
<path d="M92.4133 33.4026C92.6966 33.611 92.8216 34.061 92.78 34.4194C92.7383 34.7694 92.5716 35.0861 92.3882 35.3778C91.9382 36.0779 91.3549 36.6613 90.6548 37.0946C90.4131 37.2446 90.1548 37.3696 89.8631 37.3613C88.8046 37.3446 89.113 36.0862 89.413 35.5362C89.7464 34.9361 90.2214 34.4027 90.7465 33.9777C91.0965 33.6943 91.5132 33.361 91.9799 33.2943C92.1549 33.2693 92.2966 33.311 92.4216 33.3943L92.4133 33.4026Z" fill="#D9254E"></path>
<path d="M52.1015 66.0803C52.3182 66.3636 52.2932 66.822 52.1515 67.147C52.0099 67.4637 51.7515 67.7054 51.4848 67.9221C50.8348 68.4388 50.1014 68.8138 49.2846 68.9972C49.0096 69.0638 48.7179 69.0972 48.4429 69.0055C47.4261 68.6638 48.0929 67.5804 48.5512 67.1637C49.0513 66.7053 49.6763 66.3553 50.3097 66.1136C50.7347 65.9552 51.2431 65.7719 51.7098 65.8469C51.8848 65.8802 52.0182 65.9636 52.1015 66.0803Z" fill="#D9254E"></path>
<path d="M57.9687 31.4108C58.1854 31.6942 58.1604 32.1526 58.0187 32.4776C57.877 32.7943 57.6187 33.036 57.352 33.2526C56.702 33.7693 55.9686 34.1444 55.1518 34.3277C54.8768 34.3944 54.5851 34.4278 54.3101 34.3361C53.2933 33.9944 53.9601 32.9109 54.4184 32.4942C54.9185 32.0359 55.5435 31.6859 56.1769 31.4442C56.6019 31.2858 57.1103 31.1025 57.577 31.1775C57.7521 31.2108 57.8854 31.2942 57.9687 31.4108Z" fill="#D9254E"></path>
<path d="M70.3697 51.5874C70.6364 51.8125 70.7281 52.2708 70.6614 52.6292C70.5947 52.9709 70.4031 53.2793 70.203 53.5543C69.703 54.2127 69.078 54.7544 68.3446 55.1377C68.0946 55.2627 67.8195 55.3711 67.5361 55.3461C66.4777 55.2544 66.8778 54.0293 67.2194 53.5043C67.5945 52.9376 68.1112 52.4375 68.6696 52.0541C69.0363 51.7958 69.4863 51.4958 69.953 51.4624C70.128 51.4458 70.2697 51.5041 70.3864 51.5958L70.3697 51.5874Z" fill="#D9254E"></path>
<path d="M40.0508 24.9102C40.2674 25.1936 40.2424 25.6519 40.1008 25.977C39.9591 26.2937 39.7007 26.5353 39.434 26.752C38.784 27.2687 38.0506 27.6438 37.2338 27.8271C36.9588 27.8938 36.6671 27.9271 36.3921 27.8354C35.3754 27.4937 36.0421 26.4103 36.5005 25.9936C37.0005 25.5353 37.6255 25.1852 38.2589 24.9435C38.684 24.7852 39.1924 24.6019 39.6591 24.6769C39.8341 24.7102 39.9674 24.7935 40.0508 24.9102Z" fill="#D9254E"></path>
<path d="M88.4631 52.0708C88.7381 52.2875 88.8464 52.7458 88.7964 53.0958C88.7464 53.4459 88.5714 53.7542 88.3714 54.0376C87.8963 54.721 87.3046 55.2877 86.5796 55.6961C86.3379 55.8377 86.0712 55.9544 85.7795 55.9378C84.7211 55.8877 85.0628 54.646 85.3878 54.1043C85.7379 53.5209 86.2295 53.0042 86.7712 52.5875C87.1296 52.3125 87.563 51.9958 88.0213 51.9374C88.1964 51.9208 88.3381 51.9624 88.4547 52.0541L88.4631 52.0708Z" fill="#D9254E"></path>
<path d="M63.5693 14.7428C63.736 15.0511 63.6526 15.5012 63.4526 15.7928C63.2609 16.0845 62.9692 16.2845 62.6692 16.4512C61.9441 16.8596 61.1524 17.1096 60.319 17.168C60.0356 17.1846 59.7356 17.1763 59.4773 17.043C58.5105 16.5512 59.3439 15.5928 59.869 15.2511C60.4357 14.8761 61.1107 14.6261 61.7858 14.4927C62.2275 14.4011 62.7692 14.301 63.2192 14.4511C63.3942 14.5094 63.5109 14.6094 63.5776 14.7344L63.5693 14.7428Z" fill="#D9254E"></path>
</g>
<path d="M28.0497 66.2886C28.5915 62.955 23.191 62.98 21.0158 63.1884C18.2489 63.4467 15.5904 64.3218 13.1319 65.4969C10.5817 66.722 8.27316 68.3138 6.15632 70.1306C4.97289 71.1474 3.84778 72.2141 2.80603 73.3559C1.73928 74.5226 0.564191 75.7477 0.0558164 77.2479C-0.344216 78.4396 1.50591 79.3314 2.42265 78.6563C3.55607 77.8229 4.31448 76.5978 5.24789 75.5644C6.10629 74.6143 7.02307 73.6976 7.98982 72.8392C9.73996 71.2807 11.6818 69.8806 13.7486 68.7222C15.6821 67.6471 17.7489 66.8053 19.9574 66.3553C21.0325 66.1386 22.1159 66.0136 23.216 65.9886C24.5828 65.9636 25.7496 66.297 27.0163 66.8137C27.4664 66.997 27.9831 66.722 28.0497 66.2803V66.2886Z" fill="#CDD508"></path>
<path d="M28.0497 66.2886C28.5915 62.955 23.191 62.98 21.0158 63.1884C18.2489 63.4467 15.5904 64.3218 13.1319 65.4969C10.5817 66.722 8.27316 68.3138 6.15632 70.1306C4.97289 71.1474 3.84778 72.2141 2.80603 73.3559C1.73928 74.5226 0.564191 75.7477 0.0558164 77.2479C-0.344216 78.4396 1.50591 79.3314 2.42265 78.6563C3.55607 77.8229 4.31448 76.5978 5.24789 75.5644C6.10629 74.6143 7.02307 73.6976 7.98982 72.8392C9.73996 71.2807 11.6818 69.8806 13.7486 68.7222C15.6821 67.6471 17.7489 66.8053 19.9574 66.3553C21.0325 66.1386 22.1159 66.0136 23.216 65.9886C24.5828 65.9636 25.7496 66.297 27.0163 66.8137C27.4664 66.997 27.9831 66.722 28.0497 66.2803V66.2886Z" fill="#CDD508"></path>
<path d="M66.5112 98.5497C66.5028 97.9329 66.4612 97.3246 66.4028 96.7079C66.2778 95.4161 66.0361 94.1326 65.6945 92.8742C65.4278 91.8908 65.111 90.899 64.736 89.924C64.7194 89.8823 64.7027 89.849 64.6944 89.8073C64.5277 89.3823 64.3526 88.9656 64.1526 88.5572C64.136 88.5322 64.1276 88.4988 64.111 88.4738C63.9193 88.0738 63.7109 87.6738 63.4859 87.2904C63.4359 87.2071 63.3859 87.1237 63.3443 87.0487C63.1109 86.6654 62.8692 86.282 62.5942 85.9236C60.3357 82.8984 56.927 80.7732 53.3184 80.0481C50.9015 74.5477 45.5011 69.5556 40.759 67.7138C40.5257 67.6221 40.2924 67.5388 40.0507 67.4555C39.5256 67.2721 38.9339 67.0804 38.3172 66.8971C37.2671 66.5804 36.1337 66.247 35.0169 65.9053C35.3503 65.5803 35.6503 65.2219 35.8503 64.7802C37.9922 60.0799 34.7919 54.5461 29.8998 53.1293C29.3748 52.9793 28.8414 52.8876 28.3164 52.8126C28.2997 52.7626 28.283 52.7043 28.2664 52.6459C28.1664 52.3376 28.0747 52.0209 27.9914 51.7042C27.9914 51.6708 27.9747 51.6458 27.9663 51.6125C27.8913 51.3208 27.8163 51.0208 27.7497 50.7208C26.8496 46.7038 26.8746 42.4617 24.9411 38.7948C23.591 36.2446 21.3158 34.1611 18.6739 33.0693C16.032 31.9775 13.0484 31.8692 10.4482 32.7776C13.5902 33.4943 15.807 36.5696 16.8571 39.6615C16.9238 39.8532 16.9738 40.0449 17.0321 40.2366C14.2319 38.7531 11.115 38.0697 8.0314 37.0196C7.14799 36.7196 6.25623 36.4029 5.40616 35.9945C4.45609 35.5445 1.67256 32.861 2.31428 35.6528C4.03942 43.2368 8.58976 50.279 14.8319 55.0294C15.4903 55.5295 16.1654 56.0045 16.8571 56.4712C15.1653 57.8797 13.7819 59.6215 12.9735 61.6966C12.8235 62.0883 12.7234 62.6217 13.0735 62.8884C13.2485 63.0217 13.4735 63.0301 13.6902 63.0384C15.8404 63.0634 17.9988 62.5467 20.1324 62.9884C20.5741 63.0801 21.0074 63.2134 21.4325 63.3718C20.124 65.2719 18.9406 67.2804 18.1072 69.464C17.2321 71.7641 16.7654 74.2894 16.9405 76.7896C16.9905 77.5313 17.1071 78.273 17.2821 79.0147C18.5072 76.8062 20.6241 75.2644 22.8326 74.056C24.3244 73.2393 25.8828 72.5309 27.383 71.7308C27.808 75.0894 29.5915 78.298 31.1499 81.4149C33.5251 86.1737 35.5086 91.5491 34.2835 96.5412C36.8504 94.9994 38.7422 92.5158 39.859 89.6823C40.6841 92.0825 41.8175 94.3993 43.2092 96.5662C46.2512 101.308 52.11 107.434 56.9104 110.084C54.7269 105.75 54.7769 100.05 54.4685 95.6244C54.3685 94.1243 54.1102 92.5908 53.7101 91.0907C54.4435 91.3907 55.1936 91.6574 55.9353 91.9241C57.2937 92.4158 58.6522 92.9075 59.9273 93.5993C62.6692 95.0994 64.9194 97.4829 66.4945 100.2C66.3278 99.9165 66.5362 98.8997 66.5279 98.5497H66.5112Z" fill="#CDD508"></path>
</svg>