<svg width="111" height="88" viewBox="0 0 111 88" fill="none" xmlns="http://www.w3.org/2000/svg">
<path d="M106.749 39.6452H3.95641C2.07671 39.6452 0.465539 38.326 0.0806482 36.4773C-0.295292 34.6376 0.671413 32.7799 2.39 32.0351L74.5794 0.876714C79.5561 -1.07966 84.7298 0.347238 88.0058 4.07152L109.909 33.2825C110.804 34.485 110.947 36.0914 110.285 37.4375C109.613 38.7837 108.244 39.6272 106.749 39.6272V39.6452Z" fill="#E29100"></path>
<path d="M98.8454 87.2095H63.2654C61.0814 87.2095 59.3091 85.4327 59.3091 83.243C59.3091 78.8725 55.7645 75.3188 51.4054 75.3188C47.0463 75.3188 43.5017 78.8725 43.5017 83.243C43.5017 85.4327 41.7294 87.2095 39.5454 87.2095H11.869C5.3259 87.2095 0.0090332 81.8789 0.0090332 75.3188L0.0090332 67.3946C0.0090332 65.2048 1.78132 63.428 3.96535 63.428C6.14938 63.428 7.92167 61.6511 7.92167 59.4614C7.92167 57.2717 6.14938 55.4948 3.96535 55.4948C1.78132 55.4948 0.0090332 53.7179 0.0090332 51.5282L0.0090332 35.6708C0.0090332 33.4811 1.78132 31.7042 3.96535 31.7042L106.758 31.7042C108.942 31.7042 110.714 33.4811 110.714 35.6708V75.3098C110.714 81.8699 105.398 87.2006 98.8544 87.2006L98.8454 87.2095Z" fill="#FBBA00"></path>
<path d="M29.6546 67.394C35.1122 67.394 39.5364 62.9582 39.5364 57.4865C39.5364 52.0147 35.1122 47.579 29.6546 47.579C24.197 47.579 19.7727 52.0147 19.7727 57.4865C19.7727 62.9582 24.197 67.394 29.6546 67.394Z" fill="#E29100"></path>
<path d="M79.0729 43.6125C85.623 43.6125 90.9329 38.2888 90.9329 31.7217C90.9329 25.1546 85.623 19.8309 79.0729 19.8309C72.5228 19.8309 67.2129 25.1546 67.2129 31.7217C67.2129 38.2888 72.5228 43.6125 79.0729 43.6125Z" fill="#E29100"></path>
</svg>