<svg width="36" height="109" viewBox="0 0 36 109" fill="none" xmlns="http://www.w3.org/2000/svg">
<g clip-path="url(#clip0_26215_132584)">
<path d="M26.7627 5.64612L26.9418 4.71484H9.06269L9.24179 5.64612C10.1463 10.406 9.72537 15.3233 8.02388 19.8582L1.07015 38.3937C0.362687 40.2742 0 42.2672 0 44.2738V102.539C0 104.384 1.22239 105.999 2.98657 106.507C12.994 109.386 23.006 109.386 33.0134 106.507C34.7776 105.999 36 104.384 36 102.539V44.2738C36 42.2627 35.6373 40.2742 34.9343 38.3937L27.9806 19.8582C26.2791 15.3233 25.8582 10.406 26.7627 5.64612Z" fill="#FBBA00"></path>
<path d="M26.991 2.48792H9.0626C8.44916 2.48792 7.95215 2.98729 7.95215 3.60364C7.95215 4.22 8.44916 4.71937 9.0626 4.71937C9.07155 5.09278 13.079 5.38971 18.0268 5.38971C22.9745 5.38971 26.982 5.08828 26.991 4.71937C27.6044 4.71937 28.1014 4.22 28.1014 3.60364C28.1014 2.98729 27.6044 2.48792 26.991 2.48792Z" fill="#888888"></path>
<path d="M18.0268 3.80614C23.5117 3.80614 27.9581 3.47178 27.9581 3.05932C27.9581 2.64686 23.5117 2.3125 18.0268 2.3125C12.5419 2.3125 8.09546 2.64686 8.09546 3.05932C8.09546 3.47178 12.5419 3.80614 18.0268 3.80614Z" fill="#E7E7E7"></path>
<path d="M6.98511 0.827759H29.0642V1.94349C29.0642 2.55984 28.5672 3.05922 27.9538 3.05922H8.09555C7.48212 3.05922 6.98511 2.55984 6.98511 1.94349V0.827759Z" fill="#E7E7E7"></path>
<path d="M18.0269 1.6556C24.1251 1.6556 29.0687 1.28498 29.0687 0.827799C29.0687 0.370618 24.1251 0 18.0269 0C11.9287 0 6.98511 0.370618 6.98511 0.827799C6.98511 1.28498 11.9287 1.6556 18.0269 1.6556Z" fill="#888888"></path>
<path d="M36 89.7892V53.6225C36 54.8507 27.9403 55.8449 18 55.8449C8.0597 55.8449 0 54.8462 0 53.618V89.7892C0 91.0174 8.0597 92.0117 18 92.0117C27.9403 92.0117 36 91.0174 36 89.7892C36 89.7892 36 89.7892 36 89.7847V89.7892Z" fill="white"></path>
</g>
<defs>
<clipPath id="clip0_26215_132584">
<rect width="36" height="108.667" fill="white"></rect>
</clipPath>
</defs>
</svg>