<svg width="111" height="96" viewBox="0 0 111 96" fill="none" xmlns="http://www.w3.org/2000/svg">
<g clip-path="url(#clip0_26215_132566)">
<path d="M67.9399 15.0273C66.4416 11.3467 64.4182 7.80767 61.5528 5.0309C58.6982 2.25414 54.9359 0.272284 50.9549 0.0327201C48.1222 -0.141509 45.3115 0.544517 42.4788 0.555406C39.7118 0.566295 36.9447 -0.0652835 34.1886 0.152502C31.695 0.34851 29.3983 0.990978 27.3093 1.99279C21.8955 2.75504 16.9192 5.52092 12.8179 9.12528C11.3633 10.4102 9.99619 11.804 8.86969 13.383C7.37133 15.4628 6.31045 17.8149 5.26051 20.1561C4.37462 22.1271 3.47779 24.1089 2.5919 26.0799C1.53102 28.432 0.459206 30.8276 0.120162 33.3866C-0.262629 36.3703 0.371711 39.3757 1.00605 42.3158C2.22005 47.9129 3.81684 54.9801 7.79787 59.3685C12.3367 64.3775 19.6972 66.3594 25.975 68.1126C28.5342 68.8204 31.1372 69.55 33.7949 69.4846C34.4183 69.4737 35.0308 69.4193 35.6432 69.3213C37.2072 69.3431 38.7712 69.2342 40.3242 69.0055C51.8627 67.3068 62.1215 59.3249 67.2071 48.8712C72.2928 38.4175 72.3147 25.7968 67.9399 15.0382V15.0273Z" fill="#FFD789"></path>
<path d="M68.618 45.5607C68.7055 45.3321 68.7821 45.1034 68.8587 44.8638C68.979 44.5372 69.0883 44.1996 69.1977 43.862C69.2743 43.6116 69.3508 43.3502 69.4274 43.0998C69.4821 42.9147 69.5477 42.7404 69.5914 42.5553C69.6024 42.5117 69.6024 42.4682 69.6133 42.4246C71.7022 34.911 71.571 26.7767 69.3836 19.2413C67.4478 19.2087 65.2385 20.156 63.4886 20.8529C58.403 22.8675 53.711 25.7967 49.566 29.3357C43.4741 34.5408 38.5744 41.009 34.6371 47.9782C34.5605 47.9782 34.473 48 34.3965 48C31.9466 48.4573 29.5186 49.4809 26.9703 49.2849C24.5095 49.0889 22.9893 47.8366 21.1519 46.3666C20.1894 45.5934 19.1614 45.0925 18.002 44.7005C17.2037 44.4283 16.4818 44.1778 15.924 43.5245C15.3006 42.8058 15.0819 41.9346 14.2288 41.401C13.332 40.8457 12.2164 40.715 11.2977 40.1923C9.40564 39.1252 8.27914 37.1324 7.87448 35.0526C7.66668 33.9637 7.57918 32.8529 7.31669 31.7749C7.04327 30.686 6.47455 29.8475 5.96052 28.8784C4.71371 26.548 5.36993 24.2722 6.11364 21.8874C6.52924 20.548 6.33237 19.2087 6.54017 17.8366C6.57299 17.597 6.62767 17.3575 6.69329 17.1179C6.19019 18.1197 5.73084 19.1433 5.27149 20.156C4.3856 22.127 3.48878 24.1088 2.60289 26.0798C1.54201 28.4319 0.470193 30.8275 0.131149 33.3865C-0.251643 36.3702 0.382698 39.3756 1.01704 42.3157C2.23103 47.9128 3.82782 54.98 7.80886 59.3793C12.3477 64.3883 19.7082 66.3702 25.986 68.1234C27.3969 68.5154 28.8186 68.9074 30.2514 69.1687C30.2842 69.1687 30.3279 69.1687 30.3608 69.1796C30.8857 69.2776 31.4216 69.3539 31.9575 69.4083C32.0122 69.4083 32.0778 69.4083 32.1325 69.4192C32.6903 69.4736 33.2481 69.4954 33.8059 69.4845C34.4293 69.4736 35.0417 69.4192 35.6542 69.3212C37.2182 69.343 38.7822 69.2341 40.3243 69.0054C51.8627 67.3067 62.1215 59.3248 67.2072 48.8711C67.4697 48.3266 67.7212 47.7822 67.9509 47.2268C68.0274 47.0417 68.104 46.8457 68.1806 46.6606C68.3337 46.2903 68.4759 45.931 68.618 45.5607Z" fill="#E0B86C"></path>
<path d="M55.0563 33.2342C53.7439 27.0055 51.8846 20.8966 49.5113 14.9946C48.341 12.0763 47.0067 9.15794 44.885 6.81674C41.1883 2.74414 35.3589 0.93652 29.8686 1.41565C27.7687 1.60077 25.7235 2.0799 23.7549 2.79859C24.9689 2.42835 26.2157 2.14523 27.4844 1.971C32.9528 1.24142 38.8588 2.77681 42.7414 6.66429C44.9615 8.89659 46.438 11.7496 47.7505 14.6135C50.3972 20.4066 52.5408 26.4175 54.1485 32.5808C55.9094 39.3539 56.9812 46.7042 54.3892 53.2051C53.2627 56.0472 51.4799 58.5735 49.391 60.8276C51.4143 58.7695 53.1533 56.461 54.3454 53.8476C57.2327 47.4774 56.5109 40.0835 55.0672 33.2342H55.0563Z" fill="#7C410B"></path>
<path d="M84.3015 13.7967C87.5061 13.7205 90.6559 14.7005 93.1932 16.6388C101.341 22.8675 108.078 31.1652 110.047 41.0962C110.572 43.775 110.747 46.5082 110.703 49.2414C110.474 61.8838 105.279 74.4392 96.2009 83.2704C88.895 90.3811 79.0956 94.9437 68.9461 95.9347C64.3636 96.3811 59.8794 94.5082 56.8718 91.0454C51.0096 84.3049 46.1208 76.4755 43.8569 68.0145C41.0133 57.3866 41.8117 45.6152 47.1051 35.9564C48.7238 33.0054 50.7252 30.2831 52.9236 27.735C56.5546 23.51 60.7981 19.677 65.84 17.2813C71.4835 14.6025 77.9363 13.9492 84.2906 13.7967H84.3015Z" fill="#FFD789"></path>
<path d="M99.5696 25.7314C102.588 29.5209 104.426 34.1053 105.727 38.755C106.296 40.8022 106.777 42.8712 107.05 44.9728C108.046 52.5191 106.405 60.3049 102.894 67.0563C99.3837 73.8077 94.0574 79.5572 87.8781 84.0218C83.6564 87.0708 78.7676 89.608 73.5507 89.6298C69.5806 89.6407 65.709 88.1706 62.3842 86.0037C59.0593 83.8367 56.2376 80.9946 53.6018 78.0436C50.5504 74.6352 47.6521 70.9547 46.1647 66.6425C44.9398 63.0599 44.7429 59.2051 44.9835 55.4374C45.6726 44.7659 49.9926 34.1815 57.7469 26.7877C62.242 22.4973 67.9073 19.4156 73.9663 17.9674C80.0363 16.53 85.1548 17.1071 90.8639 19.2414C94.309 20.5372 97.2838 22.8675 99.5587 25.7205L99.5696 25.7314Z" fill="#7C410B"></path>
<path d="M78.7349 54.5989C71.9102 73.3503 75.2241 102.882 87.5172 76.8893C88.6984 74.4065 90.7436 72.3376 93.3685 71.4991C99.0885 69.6697 101.188 61.5245 100.073 54.98C99.7228 52.9111 99.9197 50.7986 100.751 48.8712C103.704 41.9456 98.2354 42.5336 99.5697 36.196C100.16 33.3757 99.679 30.4356 98.0276 28.0726C85.3408 9.93105 81.6003 37.8294 79.2161 52.7369C79.1177 53.3793 78.9427 53.9891 78.7239 54.5989H78.7349Z" fill="#FFD789"></path>
<path d="M66.0369 76.334C56.2156 92.657 48.0785 60.9256 51.5455 51.2886C51.819 50.5263 52.0596 49.7641 52.1799 48.9583C52.5627 46.1597 54.0391 43.8512 56.1062 42.2723C58.5233 40.4211 60.1857 37.7314 60.3607 34.7042C60.6341 29.9347 63.8386 29.7605 66.5182 25.7205C67.4369 24.3376 68.6509 23.1724 70.1055 22.3666C97.9508 6.99096 71.8116 58.2795 67.0541 74.0581C66.8135 74.853 66.4744 75.6262 66.0369 76.3449V76.334Z" fill="#FFD789"></path>
</g>
<defs>
<clipPath id="clip0_26215_132566">
<rect width="110.714" height="96" fill="white"></rect>
</clipPath>
</defs>
</svg>