<svg width="97" height="109" viewBox="0 0 97 109" fill="none" xmlns="http://www.w3.org/2000/svg">
<path d="M95.7553 72.2966C94.6208 78.2497 92.2945 83.9683 88.8336 89.0579C85.4874 93.9816 81.104 98.3048 75.758 101.696C60.1039 111.618 40.6681 110.628 26.3148 100.758C22.0976 97.8588 18.3216 94.2046 15.2102 89.8127C14.7633 89.2008 14.345 88.566 13.9267 87.9027C13.5142 87.2565 13.1188 86.6046 12.7464 85.9298C11.3597 83.6366 10.1278 81.3091 8.97037 78.9416C5.96791 72.7941 3.75044 66.4522 2.2664 60.0073C1.00582 54.5403 0.278123 49.0162 0.0775767 43.4863C-0.134429 38.4139 0.089033 33.3414 0.736511 28.3319C1.10322 25.6957 1.55589 23.0765 2.13461 20.486C2.71333 17.8955 3.7046 15.3907 5.05112 13.0804C7.09097 9.54059 9.99029 6.41823 13.6861 4.07932C14.0642 3.84486 14.4539 3.61612 14.8378 3.40453C15.0211 3.30731 15.2045 3.2101 15.3879 3.10717C21.0891 0.041991 27.5295 -0.695719 33.4886 0.630998C35.2534 1.02558 37.0067 1.49451 38.7429 1.99203C44.7707 3.73621 50.6152 6.08655 56.1847 9.04307C61.164 11.7079 65.8969 14.8303 70.3433 18.4388C74.8126 22.0586 78.9839 26.1417 82.7657 30.6823C84.7138 33.0326 86.5646 35.4859 88.3065 38.0765C88.7477 38.7055 89.1832 39.3346 89.59 39.9865C90.0083 40.6441 90.3979 41.3017 90.7646 41.9651C91.6413 43.4691 92.369 45.0074 93.0279 46.5686C93.727 48.2156 94.3171 49.8682 94.8042 51.5609L94.8156 51.5724C96.7982 58.3947 97.0618 65.5029 95.7668 72.3023L95.7553 72.2966Z" fill="#D1D1D1"></path>
<path d="M95.7553 72.297C94.6208 78.25 91.6928 86.6278 86.1921 90.8653C71.5236 102.177 51.0908 99.7978 36.7374 89.9275C32.5316 87.0281 28.7442 83.3739 25.6443 78.982C25.1917 78.3701 24.7676 77.7354 24.3494 77.072C23.9368 76.4258 23.5357 75.7739 23.169 75.0991C21.7881 72.8059 20.5504 70.4727 19.393 68.1109C16.402 61.9634 14.1845 55.6272 12.7005 49.1766C11.4342 43.7097 10.7008 38.1855 10.5002 32.6556C10.2882 27.5832 10.5231 22.505 11.1706 17.5013C11.5259 14.865 12.2937 11.7769 13.2907 9.31221C17.0781 -0.0434349 27.5295 -0.701076 33.4885 0.625641C35.2533 1.02023 37.0067 1.48915 38.7428 1.98667C44.7707 3.73085 50.6152 6.08121 56.1846 9.03773C61.1639 11.7026 65.8968 14.825 70.3432 18.4334C74.8125 22.0533 78.9839 26.1364 82.7656 30.6769C84.7138 33.0273 86.5645 35.4806 88.3064 38.0711C88.7476 38.7001 89.1831 39.3292 89.5899 39.9811C90.0082 40.6387 90.3978 41.2964 90.7645 41.9597C91.6412 43.4637 92.3689 45.0021 93.0279 46.5632C93.7269 48.2102 94.3171 49.8629 94.8041 51.5556L94.8156 51.567C96.7981 58.3893 97.0617 65.4975 95.7667 72.297H95.7553Z" fill="white"></path>
<path d="M82.1297 43.2404C74.0562 31.2656 57.7891 28.0803 45.785 36.1379C42.5762 38.2938 40.9489 42.9716 40.3702 48.8332C38.9836 62.9982 49.3088 76.7972 60.0696 80.0168C65.725 81.7037 71.7987 81.6694 75.0074 79.5135C87.0058 71.4617 90.1974 55.2209 82.1239 43.2404H82.1297Z" fill="#FBBA00"></path>
</svg>