<svg width="111" height="93" viewBox="0 0 111 93" fill="none" xmlns="http://www.w3.org/2000/svg">
<path d="M3.25338 18.8136C3.26016 18.7933 3.24321 18.8374 3.25338 18.8136C3.389 18.4271 3.11097 19.1934 3.25338 18.8136C3.25677 18.7967 3.2466 18.8272 3.25338 18.8136C-3.48391 37.8082 0.161075 59.5493 14.9512 75.2143C35.9836 97.4877 71.0941 98.5015 93.3709 77.4691C104.33 67.1207 110.138 53.3749 110.714 39.4222C110.582 32.4917 106.696 25.0593 98.8367 18.2372C80.11 1.98229 45.9251 -4.63971 22.4819 3.45046C12.4862 6.89878 5.88794 12.3069 3.25338 18.8136Z" fill="#FC7800"></path>
<path d="M3.25341 18.8136C3.2602 18.7933 3.24324 18.8374 3.25341 18.8136C3.11101 19.1934 3.11777 19.8003 2.98214 20.1869C2.97536 20.2004 2.96519 20.2242 2.9618 20.2411C0.211956 28.7382 3.71114 38.6559 13.9408 47.5327C32.6676 63.7877 66.8525 70.4097 90.2956 62.3195C103.089 57.9014 110.046 50.0147 110.667 41.1175V41.1108C110.708 40.5513 110.721 39.9851 110.708 39.4222C110.575 32.4917 106.69 25.0593 98.83 18.2372C80.1032 1.98229 45.9184 -4.63971 22.4752 3.45046C12.4795 6.89878 5.88119 12.3069 3.24663 18.8136H3.25341Z" fill="white"></path>
<path opacity="0.6" d="M3.25341 18.8136C3.2602 18.7933 3.24324 18.8374 3.25341 18.8136C3.11101 19.1934 3.11777 19.8003 2.98214 20.1869C2.97536 20.2004 2.96519 20.2242 2.9618 20.2411C0.211956 28.7382 3.71114 38.6559 13.9408 47.5327C32.6676 63.7877 66.8525 70.4097 90.2956 62.3195C103.089 57.9014 110.046 50.0147 110.667 41.1175V41.1108C110.708 40.5513 110.721 39.9851 110.708 39.4222C110.575 32.4917 106.69 25.0593 98.83 18.2372C80.1032 1.98229 45.9184 -4.63971 22.4752 3.45046C12.4795 6.89878 5.88119 12.3069 3.24663 18.8136H3.25341Z" fill="white"></path>
<path d="M20.4576 16.6978C15.8226 14.894 10.4382 15.9756 9.58032 18.9018C9.40739 19.4884 9.26837 20.0817 9.15648 20.6853C9.04798 21.2888 8.96999 21.8924 8.92252 22.5027C8.68857 25.5441 13.344 28.4635 18.3181 28.4194L47.1118 27.6362C48.5901 27.6226 48.8071 26.4291 47.4305 25.8934L20.4576 16.7012V16.6978Z" fill="#FC7800"></path>
<path d="M36.2617 9.11967C33.8272 6.90216 28.3038 5.74933 24.9063 6.75976C23.7467 7.10561 22.6413 7.48536 21.5902 7.90241C20.5391 8.31947 19.5558 8.76704 18.6369 9.24513C15.9481 10.6455 17.5214 13.3648 21.8445 14.8364L50.6348 24.6185C51.9504 25.0661 53.2049 24.5676 52.4624 23.8929L36.2617 9.11967Z" fill="#FC7800"></path>
<path d="M58.3044 10.0792C58.7011 7.90582 54.4797 5.4747 49.7463 5.16954C48.7969 5.1085 47.8509 5.06103 46.9117 5.02713C45.9691 4.99322 45.04 4.97627 44.1178 4.97288C39.52 4.95592 37.489 7.17004 39.9812 9.44179L53.4388 21.7161C54.1779 22.3908 56.0462 22.4552 56.1649 21.811L58.3044 10.0792Z" fill="#FC7800"></path>
<path d="M82.2086 16.9284C85.267 15.7145 84.2838 13.0155 80.1641 11.3778C78.7603 10.8184 77.3125 10.286 75.8274 9.7842C74.3016 9.26543 72.7521 8.78395 71.1822 8.33299C66.7438 7.06488 62.2138 7.90576 61.8306 10.0012L59.2537 24.1268C59.1351 24.771 60.905 25.3746 61.8374 25.005L82.2086 16.9284Z" fill="#FC7800"></path>
<path d="M93.5607 27.6498C98.2364 27.8125 100.647 25.7273 98.4127 23.425C97.9651 22.9639 97.4905 22.5027 96.9886 22.045C96.4868 21.5872 95.9613 21.1329 95.412 20.6853C92.6723 18.4509 86.9251 17.4947 83.7921 18.7391L66.8692 25.4492C65.9367 25.8188 66.9336 26.7275 68.3238 26.775L93.5641 27.6498H93.5607Z" fill="#FC7800"></path>
<path d="M93.3913 42.8434C97.633 44.4913 102.638 43.6199 103.611 40.9853C103.953 40.0529 104.214 39.1001 104.394 38.1236C104.57 37.1471 104.665 36.1638 104.672 35.1703C104.692 32.3628 100.318 29.7723 95.7715 29.813L64.7841 29.1654C63.3837 29.179 63.1769 30.3115 64.4823 30.8167L93.3947 42.8434H93.3913Z" fill="#FC7800"></path>
<path d="M65.0009 35.7839L78.4992 53.0527C80.9982 56.2501 87.0471 57.5047 90.7396 55.5686C91.4788 55.182 92.201 54.7752 92.8995 54.3513C93.5979 53.9275 94.2693 53.4867 94.9169 53.0357C98.1449 50.7708 96.7343 46.6986 92.0925 44.8032L67.0252 34.5599C65.6452 33.9971 64.2617 34.8379 65.0043 35.7873L65.0009 35.7839Z" fill="#FC7800"></path>
<path d="M53.8051 54.0124C53.2694 56.9589 57.0907 60.0003 61.719 60.2105C63.3567 60.2851 64.991 60.3021 66.6185 60.2648C68.202 60.2275 69.7617 60.1393 71.2943 59.9969C75.7903 59.5799 77.8417 56.4198 75.536 53.5072L60.1762 34.1158C59.4743 33.2309 57.5857 33.2716 57.4196 34.1803L53.8018 54.0158L53.8051 54.0124Z" fill="#FC7800"></path>
<path d="M33.2643 46.2544C29.9754 48.3532 30.8705 52.361 35.1055 54.3615C35.9531 54.7616 36.8211 55.1482 37.6993 55.5177C38.5775 55.8873 39.4693 56.2365 40.3678 56.5688C44.8537 58.2235 49.8041 56.6672 50.3941 53.4359L53.5779 35.9908C53.7542 35.0312 52.008 34.2988 51.0281 34.9227L33.2643 46.2544Z" fill="#FC7800"></path>
<path d="M16.955 30.8031C12.0352 30.9184 9.25819 34.0514 11.2689 37.2556C11.9538 38.3474 12.7201 39.429 13.5644 40.4971C14.4086 41.5651 15.3241 42.6061 16.3074 43.6199C19.1929 46.5969 25.1469 47.4751 28.5478 45.4441L51.1738 31.9051C52.208 31.288 51.2009 30.0131 49.7023 30.0504L16.9517 30.8099L16.955 30.8031Z" fill="#FC7800"></path>
<g opacity="0.45">
<path d="M20.4576 16.6978C15.8226 14.894 10.4382 15.9756 9.58032 18.9018C9.40739 19.4884 9.26837 20.0817 9.15648 20.6853C9.04798 21.2888 8.96999 21.8924 8.92252 22.5027C8.68857 25.5441 13.344 28.4635 18.3181 28.4194L47.1118 27.6362C48.5901 27.6226 48.8071 26.4291 47.4305 25.8934L20.4576 16.7012V16.6978Z" fill="#FC7800"></path>
<path d="M36.2617 9.11967C33.8272 6.90216 28.3038 5.74933 24.9063 6.75976C23.7467 7.10561 22.6413 7.48536 21.5902 7.90241C20.5391 8.31947 19.5558 8.76704 18.6369 9.24513C15.9481 10.6455 17.5214 13.3648 21.8445 14.8364L50.6348 24.6185C51.9504 25.0661 53.2049 24.5676 52.4624 23.8929L36.2617 9.11967Z" fill="#FC7800"></path>
<path d="M58.3044 10.0792C58.7011 7.90582 54.4797 5.4747 49.7463 5.16954C48.7969 5.1085 47.8509 5.06103 46.9117 5.02713C45.9691 4.99322 45.04 4.97627 44.1178 4.97288C39.52 4.95592 37.489 7.17004 39.9812 9.44179L53.4388 21.7161C54.1779 22.3908 56.0462 22.4552 56.1649 21.811L58.3044 10.0792Z" fill="#FC7800"></path>
<path d="M82.2086 16.9284C85.267 15.7145 84.2838 13.0155 80.1641 11.3778C78.7603 10.8184 77.3125 10.286 75.8274 9.7842C74.3016 9.26543 72.7521 8.78395 71.1822 8.33299C66.7438 7.06488 62.2138 7.90576 61.8306 10.0012L59.2537 24.1268C59.1351 24.771 60.905 25.3746 61.8374 25.005L82.2086 16.9284Z" fill="#FC7800"></path>
<path d="M93.5607 27.6498C98.2364 27.8125 100.647 25.7273 98.4127 23.425C97.9651 22.9639 97.4905 22.5027 96.9886 22.045C96.4868 21.5872 95.9613 21.1329 95.412 20.6853C92.6723 18.4509 86.9251 17.4947 83.7921 18.7391L66.8692 25.4492C65.9367 25.8188 66.9336 26.7275 68.3238 26.775L93.5641 27.6498H93.5607Z" fill="#FC7800"></path>
<path d="M93.3913 42.8434C97.633 44.4913 102.638 43.6199 103.611 40.9853C103.953 40.0529 104.214 39.1001 104.394 38.1236C104.57 37.1471 104.665 36.1638 104.672 35.1703C104.692 32.3628 100.318 29.7723 95.7715 29.813L64.7841 29.1654C63.3837 29.179 63.1769 30.3115 64.4823 30.8167L93.3947 42.8434H93.3913Z" fill="#FC7800"></path>
<path d="M65.0009 35.7839L78.4992 53.0527C80.9982 56.2501 87.0471 57.5047 90.7396 55.5686C91.4788 55.182 92.201 54.7752 92.8995 54.3513C93.5979 53.9275 94.2693 53.4867 94.9169 53.0357C98.1449 50.7708 96.7343 46.6986 92.0925 44.8032L67.0252 34.5599C65.6452 33.9971 64.2617 34.8379 65.0043 35.7873L65.0009 35.7839Z" fill="#FC7800"></path>
<path d="M53.8051 54.0124C53.2694 56.9589 57.0907 60.0003 61.719 60.2105C63.3567 60.2851 64.991 60.3021 66.6185 60.2648C68.202 60.2275 69.7617 60.1393 71.2943 59.9969C75.7903 59.5799 77.8417 56.4198 75.536 53.5072L60.1762 34.1158C59.4743 33.2309 57.5857 33.2716 57.4196 34.1803L53.8018 54.0158L53.8051 54.0124Z" fill="#FC7800"></path>
<path d="M33.2643 46.2544C29.9754 48.3532 30.8705 52.361 35.1055 54.3615C35.9531 54.7616 36.8211 55.1482 37.6993 55.5177C38.5775 55.8873 39.4693 56.2365 40.3678 56.5688C44.8537 58.2235 49.8041 56.6672 50.3941 53.4359L53.5779 35.9908C53.7542 35.0312 52.008 34.2988 51.0281 34.9227L33.2643 46.2544Z" fill="#FC7800"></path>
<path d="M16.955 30.8031C12.0352 30.9184 9.25819 34.0514 11.2689 37.2556C11.9538 38.3474 12.7201 39.429 13.5644 40.4971C14.4086 41.5651 15.3241 42.6061 16.3074 43.6199C19.1929 46.5969 25.1469 47.4751 28.5478 45.4441L51.1738 31.9051C52.208 31.288 51.2009 30.0131 49.7023 30.0504L16.9517 30.8099L16.955 30.8031Z" fill="#FC7800"></path>
</g>
</svg>