<svg width="100" height="92" viewBox="0 0 100 92" fill="none" xmlns="http://www.w3.org/2000/svg">
<g clip-path="url(#clip0_26215_132564)">
<path d="M59.237 3.98227C58.2757 3.81682 57.4094 3.30509 56.7824 2.54711C55.5323 1.03885 52.9638 0 49.9962 0C47.0287 0 44.4601 1.035 43.21 2.54711C42.583 3.30509 41.7205 3.81682 40.7554 3.98227C17.5621 7.92991 0 26.4753 0 48.7568C0 62.5851 6.75963 74.9705 17.4367 83.3237C26.1836 90.1685 37.5636 92 50 92C62.4364 92 73.1629 90.4032 81.8033 83.9046C92.9174 75.5515 100 62.9044 100 48.753C100 26.4715 82.4379 7.92606 59.2408 3.97842L59.237 3.98227Z" fill="#FC7800"></path>
<path d="M22.3045 21.082C23.3151 20.1136 23.6233 18.7818 22.993 18.1073C22.3627 17.4328 21.0325 17.6711 20.0219 18.6394C19.0114 19.6078 18.7031 20.9396 19.3334 21.6141C19.9638 22.2886 21.294 22.0503 22.3045 21.082Z" fill="#DF6530"></path>
<path d="M25.0406 25.9996C26.0512 25.0312 26.3594 23.6994 25.7291 23.0249C25.0988 22.3504 23.7686 22.5887 22.758 23.557C21.7474 24.5254 21.4392 25.8572 22.0695 26.5317C22.6999 27.2062 24.03 26.9679 25.0406 25.9996Z" fill="#DF6530"></path>
<path d="M19.1007 27.0634C20.1112 26.095 20.4195 24.7633 19.7891 24.0888C19.1588 23.4143 17.8286 23.6525 16.8181 24.6209C15.8075 25.5893 15.4993 26.921 16.1296 27.5955C16.7599 28.27 18.0901 28.0318 19.1007 27.0634Z" fill="#DF6530"></path>
</g>
<defs>
<clipPath id="clip0_26215_132564">
<rect width="100" height="92" fill="white"></rect>
</clipPath>
</defs>
</svg>