<svg width="111" height="62" viewBox="0 0 111 62" fill="none" xmlns="http://www.w3.org/2000/svg">
<g clip-path="url(#clip0_26215_132556)">
<path d="M70.2315 7.20984C69.2201 10.2823 66.1809 12.3484 62.8301 12.0036C62.1431 11.9321 61.5071 11.7355 60.8967 11.4877C60.8916 11.595 60.907 11.6971 60.8967 11.8044C60.4983 15.6711 57.0403 18.4805 53.1736 18.0821C49.3069 17.6836 46.4949 14.2256 46.8959 10.3589C46.9112 10.2056 46.9623 10.0652 46.9879 9.91448C46.2063 10.1137 45.3865 10.2056 44.5386 10.1162C41.1878 9.77146 38.6339 7.12811 38.2712 3.91267L0.29631 0C-2.84762 30.4918 19.3233 57.7553 49.8125 60.8992C80.3043 64.0432 107.568 41.8722 110.712 11.383L70.2315 7.20984Z" fill="#6F6014"></path>
<path d="M70.2314 7.20988C69.22 10.2823 66.1808 12.3485 62.83 12.0037C62.143 11.9322 61.507 11.7355 60.8966 11.4878C60.8915 11.595 60.9069 11.6972 60.8966 11.8045C60.4982 15.6712 57.0402 18.4805 53.1735 18.0821C49.3068 17.6837 46.4949 14.2256 46.8958 10.3589C46.9111 10.2057 46.9622 10.0652 46.9878 9.91453C46.2063 10.1137 45.3864 10.2057 44.5385 10.1163C41.1877 9.77151 38.6338 7.12816 38.2711 3.91272L5.50886 0.536377C2.66119 28.1498 22.7379 52.8415 50.3513 55.6867C77.9648 58.5343 102.656 38.4576 105.502 10.8442L70.2314 7.20733V7.20988Z" fill="#EDFDC4"></path>
<path d="M70.2314 7.2098C69.22 10.2822 66.1808 12.3484 62.83 12.0036C62.143 11.9321 61.507 11.7354 60.8966 11.4877C60.8915 11.595 60.9069 11.6971 60.8966 11.8044C60.4982 15.6711 57.0402 18.4804 53.1735 18.082C49.3068 17.6836 46.4948 14.2255 46.8958 10.3588C46.9111 10.2056 46.9622 10.0651 46.9878 9.91445C46.2062 10.1137 45.3864 10.2056 44.5385 10.1162C41.1877 9.77143 38.6337 7.12807 38.2711 3.91264L10.0677 1.00623C7.48051 26.1015 25.726 48.5406 50.8213 51.1277C75.9165 53.7149 98.3556 35.4694 100.943 10.3742L70.2339 7.20725L70.2314 7.2098Z" fill="#CB1C48"></path>
<path d="M51.784 41.7343C51.5644 43.2948 50.8314 44.4799 50.1444 44.3854C49.4574 44.2883 49.0768 42.9475 49.2939 41.387C49.5136 39.8265 50.2466 38.6415 50.9336 38.736C51.6206 38.833 52.0011 40.1739 51.784 41.7343Z" fill="#292929"></path>
<path d="M31.3781 24.5436C30.2901 25.6827 29.0004 26.2165 28.4998 25.7363C27.9992 25.2562 28.4742 23.946 29.5622 22.807C30.6502 21.6679 31.94 21.1341 32.4405 21.6143C32.9437 22.0944 32.4661 23.4071 31.3781 24.5436Z" fill="#292929"></path>
<path d="M21.535 23.8081C20.138 24.5385 18.7461 24.6305 18.4243 24.015C18.1025 23.3995 18.9734 22.3089 20.3704 21.581C21.7674 20.8506 23.1593 20.7587 23.4811 21.3742C23.8029 21.9897 22.932 23.0802 21.535 23.8081Z" fill="#292929"></path>
<path d="M30.359 34.4274C29.2711 35.5665 27.9813 36.1003 27.4807 35.6201C26.9802 35.14 27.4552 33.8298 28.5432 32.6907C29.6312 31.5517 30.9209 31.0179 31.4215 31.498C31.9246 31.9782 31.447 33.2909 30.359 34.4274Z" fill="#292929"></path>
<path d="M38.6898 33.3957C37.8853 34.7493 36.7488 35.5589 36.1512 35.2064C35.5536 34.8514 35.7221 33.4672 36.5266 32.1136C37.3311 30.76 38.4677 29.9504 39.0653 30.3028C39.6629 30.6578 39.4943 32.0421 38.6898 33.3957Z" fill="#292929"></path>
<path d="M47.2559 35.7173C46.6991 37.1909 45.7235 38.187 45.0722 37.9418C44.4235 37.6966 44.3469 36.3021 44.9037 34.8285C45.4605 33.3549 46.4361 32.3588 47.0873 32.604C47.736 32.8492 47.8127 34.2436 47.2559 35.7173Z" fill="#292929"></path>
<path d="M40.9732 41.9233C40.4164 43.397 39.4408 44.393 38.7895 44.1478C38.1408 43.9026 38.0642 42.5082 38.621 41.0345C39.1777 39.5609 40.1534 38.5649 40.8046 38.81C41.4533 39.0552 41.5299 40.4497 40.9732 41.9233Z" fill="#292929"></path>
<path d="M75.2805 29.0692C76.1131 30.405 77.2675 31.1916 77.8549 30.8238C78.4449 30.456 78.2457 29.0743 77.4131 27.7386C76.5805 26.4029 75.4261 25.6163 74.8387 25.984C74.2487 26.3518 74.4479 27.7335 75.2805 29.0692Z" fill="#292929"></path>
<path d="M85.0647 30.359C86.283 31.3576 87.6264 31.7331 88.0682 31.1967C88.5075 30.6604 87.8792 29.4141 86.661 28.4155C85.4427 27.4169 84.0993 27.0414 83.6601 27.5778C83.2208 28.1141 83.8491 29.3604 85.0673 30.359H85.0647Z" fill="#292929"></path>
<path d="M74.2615 38.953C75.0941 40.2887 76.2484 41.0754 76.8359 40.7076C77.4258 40.3398 77.2266 38.9581 76.394 37.6224C75.5614 36.2867 74.407 35.5001 73.8196 35.8678C73.2297 36.2356 73.4289 37.6173 74.2615 38.953Z" fill="#292929"></path>
<path d="M66.316 36.2433C66.8268 37.7323 67.7743 38.759 68.4307 38.5317C69.0871 38.3069 69.2046 36.915 68.6938 35.4261C68.183 33.9371 67.2355 32.9104 66.5791 33.1377C65.9227 33.3625 65.8052 34.7544 66.316 36.2433Z" fill="#292929"></path>
<path d="M57.4564 36.7694C57.7016 38.3248 58.455 39.4996 59.1395 39.3923C59.8265 39.285 60.1841 37.9365 59.9389 36.3812C59.6963 34.8258 58.9403 33.651 58.2558 33.7583C57.5688 33.8655 57.2112 35.214 57.4564 36.7694Z" fill="#292929"></path>
<path d="M62.3422 44.1274C62.5848 45.6828 63.3408 46.8576 64.0252 46.7503C64.7122 46.6431 65.0698 45.2946 64.8246 43.7392C64.5794 42.1838 63.826 41.009 63.1416 41.1163C62.4545 41.2236 62.097 42.5721 62.3422 44.1274Z" fill="#292929"></path>
</g>
<defs>
<clipPath id="clip0_26215_132556">
<rect width="110.714" height="61.1955" fill="white"></rect>
</clipPath>
</defs>
</svg>