<svg width="111" height="104" viewBox="0 0 111 104" fill="none" xmlns="http://www.w3.org/2000/svg">
<path d="M105.471 75.4671C101.058 82.2176 93.6752 87.6101 82.6601 90.4607C78.7807 91.4595 75.1595 93.2495 71.9257 95.6063C37.6004 120.672 3.92064 84.2545 0.58579 57.0113C-2.90626 28.4943 9.29345 12.0137 35.0684 12.081C41.1429 12.0979 39.3913 7.15984 47.5993 2.45751C48.739 1.80098 50.1369 1.24545 51.7538 0.8246C61.7584 -1.7903 80.0888 1.03222 97.055 21.5193C110.108 37.2817 115.593 59.9741 105.465 75.4671H105.471Z" fill="#F5778A"></path>
<path d="M105.471 75.467L105.46 75.4782C96.1512 84.7931 81.3184 72.3807 80.656 80.7809C79.9991 89.1812 63.3249 114.219 30.5434 92.374C-2.24366 70.529 0.108697 44.3182 5.66116 30.0317C11.2136 15.7451 27.9889 12.137 41.1318 16.9291C41.0027 8.50645 45.2134 3.36643 51.7596 0.818862C61.7641 -1.79604 80.0945 1.02649 97.0607 21.5136C110.114 37.276 115.599 59.9684 105.471 75.4614V75.467Z" fill="#FEE5E7"></path>
<path d="M43.209 28.107C35.1413 35.6038 39.5316 53.1 50.7152 62.4374C61.8987 71.7747 72.3075 65.344 75.676 68.2563C76.288 61.3712 81.3408 61.3712 80.5772 49.8903C79.8137 38.4095 55.6164 16.5812 43.209 28.107Z" fill="#9D6520"></path>
</svg>