<svg width="112" height="65" viewBox="0 0 112 65" fill="none" xmlns="http://www.w3.org/2000/svg">
<path d="M23.2039 59.2665L85.1387 64.759C93.1549 65.4686 101.092 62.644 106.131 57.1653C107.675 55.4881 109.155 53.7509 110.583 51.9723C112.143 50.0278 110.467 47.3691 107.749 47.4797L103.646 47.6502C100.88 47.7654 98.1147 47.7193 95.3546 47.5119L34.2287 42.9594C30.1519 42.6553 26.2443 44.48 24.3037 47.6179C22.765 50.1015 21.4959 52.7925 20.4595 55.6586C19.8515 57.3404 21.1892 59.0868 23.2039 59.2619V59.2665Z" fill="#FFDD1B"></path>
<path d="M3.08122 27.8477L64.1189 41.3326C72.0204 43.0781 80.4188 41.2093 86.3596 36.2669C88.1814 34.7538 89.9498 33.1743 91.67 31.5427C93.5506 29.7592 92.3112 26.8374 89.5758 26.605L85.4407 26.254C82.6573 26.0169 79.8953 25.6184 77.1706 25.0587L16.7847 12.6411C12.7564 11.811 8.5519 13.1723 6.08902 16.1226C4.14436 18.4562 2.42943 21.0365 0.922856 23.8255C0.0360061 25.4619 1.08847 27.4114 3.07587 27.8477H3.08122Z" fill="#FFDD1B"></path>
<path d="M9.30953 61.4086L58.166 27.528C64.4895 23.1419 67.9793 16.1937 67.3076 9.0528C67.1029 6.8668 66.809 4.6761 66.4365 2.4854C66.0324 0.0925591 62.742 -0.847655 60.8686 0.901143L58.0506 3.53844C56.1509 5.31545 54.1252 6.97963 51.9789 8.51688L4.44487 42.5949C1.27523 44.8656 -0.104924 48.6076 0.960367 52.1193C1.80525 54.8976 3.00174 57.6666 4.50784 60.4214C5.38946 62.0386 7.71946 62.5087 9.30953 61.4039V61.4086Z" fill="#FFDD1B"></path>
<path d="M21.4955 56.1006C22.6743 52.9649 24.3771 49.9212 26.4727 46.9419C28.1427 44.574 31.4718 43.4154 34.6535 44.0545C36.5527 44.4361 37.3659 46.3396 36.1816 47.6499C32.4705 51.7327 28.5793 55.227 24.4316 57.8753C23.8859 58.2247 23.1491 58.2845 22.5215 58.0454C21.6483 57.7098 21.2063 56.8776 21.4955 56.1052V56.1006Z" fill="#FBBA00"></path>
<path d="M2.97318 24.3666C4.61181 21.3416 6.74732 18.4762 9.24227 15.7279C11.2298 13.5378 14.6075 12.778 17.557 13.8098C19.3172 14.4241 19.7877 16.4501 18.4345 17.6226C14.211 21.29 9.9083 24.3478 5.49985 26.5145C4.9184 26.8006 4.2048 26.7678 3.64449 26.4488C2.86218 26.0033 2.57145 25.1122 2.97847 24.3666H2.97318Z" fill="#FBBA00"></path>
<path d="M6.56019 59.2196C4.97356 56.3316 3.81643 53.2101 2.96753 49.9134C2.29044 47.2904 3.64969 44.5821 6.26713 43.2302C7.8285 42.4217 9.81937 43.311 10.0114 44.91C10.6127 49.9044 10.6481 54.5844 9.8699 58.8109C9.76884 59.3678 9.31912 59.8259 8.71782 60.0101C7.87902 60.2706 6.94927 59.9292 6.56019 59.2196Z" fill="#FBBA00"></path>
</svg>