<svg width="56" height="109" viewBox="0 0 56 109" fill="none" xmlns="http://www.w3.org/2000/svg">
<g clip-path="url(#clip0_26215_132563)">
<path d="M21.0597 33.7802L19.311 30.9193C18.2168 29.1291 16.9351 27.4593 15.4931 25.9376L8.19827 18.2569C7.3972 17.4134 6.03367 17.4754 5.32464 18.4015C4.34972 19.6787 3.82135 20.8527 4.07701 21.8511L4.34631 24.2231L20.9541 37.3606L21.0597 33.7768V33.7802Z" fill="#837710"></path>
<path d="M21.2983 25.6829L18.4451 18.46C17.9952 17.3239 17.4668 16.2222 16.8566 15.1619L13.0694 8.57935C12.732 7.99408 12.0025 7.77375 11.4059 8.07671C10.5231 8.52082 10.0151 9.292 9.81403 10.3317C9.76289 10.6002 9.79698 10.8825 9.91629 11.1304L13.8637 19.4997L20.2484 32.4444L21.0631 33.7802L21.2983 25.6794V25.6829Z" fill="#9E980A"></path>
<path d="M25.5252 51.7409L18.3939 44.1703C16.8191 42.4971 15.3464 40.7276 13.9863 38.8719L10.3525 33.9109C8.61404 31.5389 6.59261 29.3872 4.33597 27.5109L0.541963 24.3573C0.265849 24.1267 0.0749556 23.803 0.0340498 23.4416C-0.061397 22.6153 0.068138 21.8923 0.371522 21.2451C0.75331 20.4292 1.77595 20.1606 2.49862 20.6908L14.242 29.2977C15.9055 30.5164 17.436 31.9073 18.8098 33.4496L21.0017 35.9077L27.1205 49.0934L25.5252 51.7374V51.7409Z" fill="#CDD508"></path>
<path d="M21.4278 21.2142L15.9873 4.09C15.6805 3.12604 14.7261 2.527 13.7341 2.67159C13.141 2.75766 12.5853 2.91947 12.0706 3.15702C11.1843 3.56671 10.7377 4.58576 10.9798 5.5394L11.757 8.59655L21.213 28.5403L21.4278 21.2176V21.2142Z" fill="#9E980A"></path>
<path d="M42.5419 72.2459L52.7956 93.1364C54.2103 96.018 55.2466 99.0751 55.8806 102.229L55.9113 102.387C56.2624 104.139 55.5193 105.93 54.033 106.904L52.4138 107.964C51.006 108.887 49.1925 108.901 47.771 107.999L46.2337 107.021C44.2463 105.757 42.7669 103.823 42.0613 101.557L32.7177 71.609C32.353 70.4384 31.9507 69.2782 31.5144 68.1318L23.2446 45.7781L35.1993 52.4157L42.5453 72.2459H42.5419Z" fill="#E6DDAD"></path>
<path d="M24.2468 3.45309L23.4833 1.39778C23.1765 0.571521 22.3993 0.0206829 21.5232 2.64599e-05C20.4256 -0.0240727 19.4677 0.137736 18.6393 0.475125C17.811 0.812513 17.361 1.61123 17.3713 2.47536L17.4633 8.74803L21.8777 24.8497L24.2434 3.45309H24.2468Z" fill="#9E980A"></path>
<path d="M26.2683 2.88845C26.9603 2.87812 27.6523 2.90567 28.3511 2.96419C30.0998 3.11912 31.4667 4.55474 31.552 6.32431L32.2508 21.1625C32.3837 23.9821 32.7314 26.788 33.2939 29.5559L39.4229 59.7797C39.7638 61.4598 40.1524 63.1295 40.5853 64.7889L42.542 72.2459L39.9411 66.6273C37.8446 62.1036 34.8892 58.0377 31.2452 54.6638L27.1955 50.9147C23.0947 47.1208 20.8312 41.7122 20.9949 36.1006L21.8334 7.30205C21.905 4.86803 23.8583 2.92288 26.2717 2.88501L26.2683 2.88845Z" fill="#CDD508"></path>
</g>
<defs>
<clipPath id="clip0_26215_132563">
<rect width="56" height="108.667" fill="white"></rect>
</clipPath>
</defs>
</svg>