<svg width="59" height="109" viewBox="0 0 59 109" fill="none" xmlns="http://www.w3.org/2000/svg">
<g clip-path="url(#clip0_26215_132559)">
<path fill-rule="evenodd" clip-rule="evenodd" d="M51.8692 29.64C51.8692 29.64 48.3499 36.3607 49.0466 36.8269C49.7433 37.293 50.6244 37.8524 50.7755 37.4049C50.9266 36.9574 53.8184 31.5126 53.8414 30.5456C53.8568 29.909 52.653 28.5638 51.8692 29.64Z" fill="#984F08"></path>
<path fill-rule="evenodd" clip-rule="evenodd" d="M30.3029 40.4336C23.2541 48.3957 24.9344 47.5246 11.3363 58.9576C-2.25916 70.3933 -7.35363 92.9449 17.5193 104.977C42.3923 117.012 54.1898 96.9113 54.7097 83.2487C55.2297 69.5861 59.4584 58.4914 58.9589 47.5353C58.398 35.2579 42.5665 26.5766 30.3029 40.4336Z" fill="#CDD508"></path>
<g opacity="0.2">
<path fill-rule="evenodd" clip-rule="evenodd" d="M54.6688 83.1555C55.1888 69.4929 59.4175 58.3983 58.9181 47.4421C58.6235 40.9877 54.1053 35.5323 48.1067 33.8195C50.2762 35.5669 52.0819 38.0496 51.9129 41.4326C51.5056 49.5758 45.9501 73.0438 41.2373 88.9146C37.2442 102.369 20.2754 103.358 10.3298 100.539C12.3738 102.095 14.7327 103.557 17.4785 104.884C42.3514 116.919 54.1489 96.8181 54.6688 83.1555Z" fill="black"></path>
</g>
<path fill-rule="evenodd" clip-rule="evenodd" d="M50.0816 34.568C52.4252 27.6288 51.9616 20.362 48.7804 14.1847C45.5967 8.00469 39.7159 2.94882 32.2778 0C33.5226 13.1511 39.9797 24.9437 50.079 34.568C50.12 34.4748 49.9228 34.5494 49.9637 34.4561" fill="#837710"></path>
</g>
<defs>
<clipPath id="clip0_26215_132559">
<rect width="59" height="108.667" fill="white"></rect>
</clipPath>
</defs>
</svg>