<svg width="100" height="99" viewBox="0 0 100 99" fill="none" xmlns="http://www.w3.org/2000/svg">
<g clip-path="url(#clip0_26215_132571)">
<path d="M74.0471 68.821L76.3545 67.234C82.5618 62.9573 90.7191 62.8099 97.0933 66.8624L98.9593 68.0501C100.543 69.0534 100.264 71.4531 98.498 72.0637L79.6339 78.561L71.994 70.8897L74.0471 68.8281V68.821Z" fill="#1B7EDC"></path>
<path d="M69.9444 72.9405L68.3639 75.2574C64.1046 81.4901 63.9577 89.6809 67.9935 96.0813L69.1763 97.955C70.1756 99.5454 72.5654 99.2647 73.1735 97.4919L79.6445 78.5503L72.0046 70.879L69.9514 72.9405L69.9444 72.9405Z" fill="#1B7EDC"></path>
<path d="M32.8148 10.7189L60.8961 16.7793C62.2677 17.0745 62.9144 18.6574 62.1471 19.8318C60.2816 22.6971 57.2694 24.6019 53.8892 25.0551L49.1801 25.6874L32.8113 10.7224L32.8148 10.7189Z" fill="#1B7EDC"></path>
<path d="M12.6979 34.6386L18.7333 62.8352C19.0273 64.2125 20.6038 64.8619 21.7734 64.0914C24.627 62.2183 26.524 59.1937 26.9754 55.7996L27.6052 51.0712L12.7015 34.6351L12.6979 34.6386Z" fill="#1B7EDC"></path>
<path d="M38.7866 64.4133C41.1332 66.7696 44.3179 68.1003 47.6351 68.1002L61.4612 68.1143L33.2526 51.0841L29.3822 54.9703L38.7866 64.4133Z" fill="#1B7EDC"></path>
<path d="M65.1008 37.9913C67.4474 40.3476 68.7726 43.5454 68.7725 46.8762L68.7864 60.7591L51.8261 32.4345L55.6965 28.5483L65.1008 37.9913Z" fill="#1B7EDC"></path>
<path d="M74.7182 73.618L6.06493 4.6822L5.55162 2.54722C5.20823 1.12035 6.41959 -0.202268 7.86518 0.0257547L15.8794 1.2764C20.9459 2.07095 25.8193 3.50599 30.4041 5.50709C44.5643 11.6843 55.9837 23.2709 61.8716 38.0305L70.6681 60.0602C71.587 62.3619 72.9605 64.4553 74.7072 66.2093C75.7271 67.2333 76.2396 68.5754 76.2409 69.9134C76.2423 71.2585 75.736 72.596 74.7182 73.618Z" fill="#F1F7FE"></path>
<path d="M74.7182 73.618L73.947 74.3924C73.1405 75.2022 72.0869 75.6011 71.0293 75.6C69.9717 75.5989 68.9208 75.1943 68.1127 74.3829C65.8542 72.1151 63.886 71.0158 60.9412 69.7704L39.703 60.7577C23.9278 54.0621 11.6402 41.4764 5.16984 25.9976C3.15914 21.1992 1.7122 16.1182 0.896087 10.8502L0.0267361 5.2247C-0.0868132 4.48832 0.169852 3.81249 0.634717 3.34572C1.13832 2.84006 1.89246 2.57889 2.67526 2.77084C3.95877 3.08365 5.12979 3.74321 6.06493 4.6822L74.7182 73.618Z" fill="#BEDBF9"></path>
<path d="M5.16984 25.9976C3.15914 21.1992 1.7122 16.1182 0.896087 10.8502L0.0267361 5.2247C-0.0868132 4.48832 0.169852 3.81249 0.634717 3.34572C1.13832 2.84006 1.89246 2.57889 2.67526 2.77084C3.95877 3.08365 5.12979 3.74321 6.06493 4.6822L5.55162 2.54722C5.20823 1.12035 6.41959 -0.202268 7.86518 0.0257547L15.8794 1.2764C20.9459 2.07095 25.8193 3.50599 30.4041 5.50709C29.2557 13.2792 26.723 18.7136 23.6773 22.3671C16.6635 30.7703 6.9468 29.7267 5.16984 25.9976Z" fill="#1B7EDC"></path>
<path d="M13.3443 11.3692C14.4786 12.5081 16.3157 12.51 17.4477 11.3734C18.5797 10.2367 18.5778 8.39205 17.4435 7.25311C16.3093 6.11417 14.4721 6.11229 13.3401 7.24891C12.2082 8.38553 12.21 10.2302 13.3443 11.3692Z" fill="#F1F7FE"></path>
<path d="M13.9887 10.7222C14.7663 11.503 16.0258 11.5043 16.8019 10.725C17.5779 9.9458 17.5766 8.68114 16.799 7.90032C16.0214 7.1195 14.7619 7.11821 13.9859 7.89744C13.2098 8.67667 13.2111 9.94133 13.9887 10.7222Z" fill="#1B7EDC"></path>
<path d="M14.7661 9.03443C15.113 9.38276 15.6749 9.38333 16.0211 9.03571C16.3673 8.68808 16.3667 8.1239 16.0198 7.77556C15.6729 7.42723 15.111 7.42665 14.7648 7.77428C14.4186 8.1219 14.4192 8.68609 14.7661 9.03443Z" fill="#F1F7FE"></path>
</g>
<defs>
<clipPath id="clip0_26215_132571">
<rect width="100" height="99" fill="white"></rect>
</clipPath>
</defs>
</svg>