<svg width="111" height="76" viewBox="0 0 111 76" fill="none" xmlns="http://www.w3.org/2000/svg">
<path d="M104.27 47.547C107.295 45.8521 109.305 43.5363 110.181 40.8639C110.181 40.8639 110.181 40.8639 110.181 40.8681C109.8 42.0218 108.352 46.7541 107.958 47.9749C107.089 50.6683 105.071 52.9967 102.034 54.7C99.5085 56.1096 96.4292 57.02 92.968 57.4185V57.4269C93.2575 55.2118 92.8212 52.8666 91.6885 50.4879C96.5928 50.4124 100.918 49.4139 104.27 47.5428V47.547Z" fill="#837710"></path>
<path d="M78.1711 53.8903C77.6467 53.3198 77.4999 52.7618 77.6509 52.3003C77.9026 51.5367 79.6773 45.7346 79.8912 45.1389C79.736 45.6004 79.8786 46.1626 80.4072 46.7331C85.9324 52.7366 84.5732 58.5303 78.9011 61.295C79.8912 60.8126 80.7513 60.2336 81.4645 59.5833C81.0365 57.771 79.9709 55.8411 78.1711 53.8903Z" fill="#837710"></path>
<path d="M93.3539 34.7471C91.4954 33.5766 89.4775 31.3825 88.9111 29.9225C87.9672 27.5018 85.773 25.0811 82.4671 23.3359C76.0189 19.9419 68.0647 18.6497 62.1073 19.988C59.4391 20.588 57.1695 21.7165 55.6172 23.4198C54.5558 24.5861 51.4681 24.1204 50.0501 22.5807L49.576 22.0647C42.8761 14.7901 29.9881 11.48 21.6059 13.7329C18.6273 14.5384 17.0415 16.4053 16.7981 18.6581C16.6555 20.0258 15.1452 21.6871 13.4796 22.3122C12.9384 22.5136 12.4434 22.7444 11.9861 23.0045C11.6295 22.0983 11.4156 21.1921 11.3652 20.3069C11.2352 17.9785 12.9762 16.1829 15.7157 15.1593C17.3813 14.5342 18.8916 12.8728 19.0342 11.5051C19.2775 9.25647 20.8676 7.38537 23.842 6.57987C32.22 4.327 45.1122 7.63709 51.8121 14.9117L52.2861 15.4278C53.7 16.9632 56.7919 17.4331 57.8533 16.2668C59.4056 14.5635 61.6752 13.4308 64.3434 12.8351C70.3007 11.4968 78.255 12.7889 84.7032 16.1829C88.0133 17.9282 90.2032 20.3488 91.1472 22.7695C91.7135 24.2295 93.7357 26.4236 95.59 27.5941C98.6568 29.5323 100.91 31.9363 101.4 34.315C101.946 37 101.077 39.4039 99.0889 41.2163C98.4973 38.9214 96.3116 36.614 93.3539 34.7471Z" fill="#837710"></path>
<path d="M2.57604 16.0194C2.57604 16.0194 2.58445 16.0026 2.58864 15.99C2.31175 16.8374 2.19429 17.7352 2.24882 18.6666C2.446 22.0732 4.2248 25.6811 7.38386 29.1129C11.6379 33.7277 17.8386 37.4867 24.8279 39.8109C23.4561 44.0649 25.067 49.0867 29.5224 53.9239C32.6731 57.343 36.9943 60.3679 42.0454 62.6795C47.6503 65.2386 54.002 66.4217 59.9593 66.0063C60.4082 66.0147 61.4151 66.1658 61.8808 66.2958C68.1863 68.5571 74.4918 69.2829 79.6227 68.3347C86.2219 67.1223 90.8997 63.8961 92.4729 59.4868C92.0911 60.5608 90.7109 65.3141 90.2368 66.6398C88.6636 71.0491 83.9816 74.2753 77.3866 75.4877C72.2515 76.4358 65.9502 75.7101 59.6447 73.4488C59.179 73.3146 58.1721 73.1635 57.7232 73.1593C51.7659 73.5747 45.4142 72.3958 39.8093 69.8325C34.7582 67.5208 30.437 64.496 27.2864 61.0769C22.8309 56.2397 21.22 51.2221 22.5918 46.9639C15.6025 44.6397 9.40179 40.8807 5.14776 36.2659C1.9887 32.8341 0.209902 29.2262 0.0127232 25.8196C-0.0418156 24.8798 0.0798552 23.9778 0.36094 23.1262C0.746907 21.9599 2.31174 16.8584 2.58024 16.0194H2.57604Z" fill="#837710"></path>
<path d="M92.4772 59.4868C92.7163 58.8197 92.8757 58.1317 92.968 57.4311C93.2575 55.216 92.8212 52.8708 91.6885 50.4921C96.5928 50.4166 100.918 49.4181 104.27 47.547C107.295 45.8521 109.304 43.5363 110.181 40.8639C112.652 33.2997 106.045 27.5438 100.377 23.6086C98.8708 20.9404 97.3815 18.1925 94.8936 16.1619C93.2029 14.639 91.2144 13.2756 88.9657 12.0925C79.2536 7.14206 67.4396 4.66683 56.8885 7.78393C55.9739 8.0818 55.1055 8.42162 54.2958 8.81179C51.8205 7.02039 49.0097 5.43457 45.9681 4.11725C38.8319 1.06307 30.9321 -0.518563 23.2338 0.152685C21.4927 0.316301 19.8314 0.60578 18.2791 1.02111C13.4294 2.32585 10.4004 5.31291 9.93887 9.21873C7.33779 11.1905 3.53686 12.34 2.58453 15.9941C2.30764 16.8416 2.19017 17.7394 2.24471 18.6707C2.44189 22.0773 4.22069 25.6853 7.37975 29.117C11.6338 33.7319 17.8344 37.4908 24.8238 39.815C23.4519 44.0691 25.0629 49.0908 29.5183 53.928C32.669 57.3472 36.9902 60.372 42.0413 62.6836C47.6462 65.2427 53.9979 66.4258 59.9552 66.0105C60.4041 66.0189 61.411 66.1699 61.8767 66.3C68.1822 68.5612 74.4877 69.287 79.6186 68.3389C86.2178 67.1264 90.8955 63.9002 92.4688 59.491L92.4772 59.4868ZM96.4795 42.9405C91.164 46.4436 81.6659 42.5 79.8913 45.1389C79.7361 45.6004 79.8787 46.1625 80.4073 46.7331C85.9325 52.7366 84.5732 58.5303 78.9012 61.295C77.5964 61.9243 76.1994 62.3438 74.7688 62.6123C71.9873 63.1241 68.673 62.7423 65.4553 61.7564C64.3771 61.425 63.3618 61.0055 62.2375 60.7622C60.5635 60.3678 58.6379 60.1119 57.1486 60.1035C54.6062 60.2545 52.0765 60.2 49.5761 59.5791C48.2084 59.2561 46.8491 58.8071 45.5486 58.2114C39.1004 55.4132 29.3925 47.3037 35.3918 39.9535L35.7442 39.5591C36.407 38.8333 35.9623 37.8139 34.9345 37.0587C34.5233 36.7567 34.0199 36.4966 33.4535 36.3162C25 34.8856 15.6864 31.1014 11.9904 23.0045C11.6338 22.0983 11.4198 21.1921 11.3695 20.3069C11.2394 17.9785 12.9805 16.1829 15.72 15.1593C17.3855 14.5342 18.8958 12.8728 19.0385 11.5052C19.2818 9.25648 20.8718 7.38538 23.8463 6.57988C32.2243 4.32701 45.1164 7.63711 51.8163 14.9118L52.2904 15.4278C53.7042 16.9632 56.7962 17.4331 57.8576 16.2668C59.4098 14.5635 61.6795 13.4308 64.3477 12.8351C70.305 11.4968 78.2593 12.7889 84.7075 16.1829C88.0176 17.9282 90.2075 20.3489 91.1515 22.7695C91.7178 24.2295 93.74 26.4236 95.5943 27.5941C98.661 29.5324 100.914 31.9363 101.405 34.315C101.95 37 101.082 39.4039 99.0931 41.2163C98.338 41.9085 97.4192 42.4916 96.4837 42.9447L96.4795 42.9405Z" fill="#CDD508"></path>
</svg>