<svg width="90" height="109" viewBox="0 0 90 109" fill="none" xmlns="http://www.w3.org/2000/svg">
<path d="M17.0202 76.3911L15.752 78.3551C13.7992 81.3779 11.2315 83.9616 8.21705 85.9434L3.26333 89.1981C0.123199 91.2602 -0.913784 95.362 0.870634 98.6545C2.51589 101.689 6.08921 103.149 9.40891 102.141L10.3651 101.851C12.4211 100.931 14.843 101.8 15.8328 103.813C17.6935 107.605 22.0412 109.506 26.1151 108.312C30.5458 107.012 33.1809 102.502 32.117 98.037L30.3461 90.607L36.5029 80.2633L38 75.3033L23.7583 69.7859L17.0224 76.3934L17.0202 76.3911Z" fill="#F9F4DC"></path>
<path d="M86.7096 44.9161C81.0405 57.6173 69.5394 66.9528 55.6881 69.8883L52.7585 70.509C51.0899 70.8631 49.5391 71.6339 48.2554 72.7477L45.4752 75.1543L44.2662 77.6574C42.5817 81.1464 37.859 81.8299 35.235 78.9661L34.5422 78.2087C32.6835 76.1784 30.1863 74.9415 27.5487 74.6188C25.8711 74.4104 24.1368 74.574 22.4728 75.1409L19.4979 76.156C15.8641 77.393 12.8122 73.2205 15.1328 70.1908L16.9214 67.8581C18.1712 66.2267 18.8481 64.2368 18.8481 62.1909C18.8481 61.0346 18.6602 59.8851 18.2934 58.787L16.249 52.6874C12.4092 41.2231 13.548 28.8042 19.1922 18.3124C20.0412 16.7326 21.0442 15.2424 22.1785 13.8576C23.3127 12.475 24.5783 11.1954 25.9571 10.0369C28.2709 8.08959 30.7794 6.39549 33.4374 4.97926C36.0976 3.55855 38.905 2.41571 41.821 1.57314C48.2689 -0.293503 55.0904 -0.501904 61.6447 0.963625L62.4145 1.13617L63.7955 1.44541C68.2466 2.4426 72.4169 4.26891 76.105 6.78765C78.5343 8.44813 80.7553 10.4089 82.7023 12.6318C90.246 21.9852 90.246 36.9184 86.7096 44.9161Z" fill="#BB6702"></path>
<path d="M86.7265 44.8534C81.099 57.5769 69.6823 66.9286 55.9328 69.8693L53.0246 70.4911C51.3683 70.8458 49.8289 71.618 48.5546 72.7337L45.7948 75.1446L44.5947 77.652C42.9226 81.1471 38.2346 81.8318 35.6299 78.963L34.9422 78.2042C33.0971 76.1704 30.6182 74.9313 28 74.6081C34.423 75.0211 40.5606 78.6981 43.6957 73.1153C46.8309 67.5302 62.5468 67.299 70.4576 58.1829C78.2987 49.1477 90.5358 7.62357 62.6097 0.996948L63.9806 1.30673C68.399 2.30566 72.5387 4.13516 76.1997 6.65831C78.6111 8.32169 80.8158 10.2859 82.7486 12.5127C90.2369 21.8825 90.2369 36.8417 86.7265 44.8534Z" fill="#7C410B"></path>
<path d="M30.084 19.0969L28.0792 20.6662C26.6148 21.8116 25.8412 23.6334 26.0273 25.4891L26.283 28.0212C26.6059 31.2274 29.6243 33.4461 32.7615 32.7809L34.7214 32.3661C37.3294 31.8136 39.1436 29.4259 38.9911 26.7518L38.7803 23.0653C38.5314 18.7023 33.5149 16.4115 30.084 19.0969Z" fill="#E29100"></path>
<path d="M38.5 15.951C39.8807 15.951 41 14.8352 41 13.4587C41 12.0822 39.8807 10.9663 38.5 10.9663C37.1193 10.9663 36 12.0822 36 13.4587C36 14.8352 37.1193 15.951 38.5 15.951Z" fill="#E29100"></path>
</svg>