<svg width="90" height="109" viewBox="0 0 90 109" fill="none" xmlns="http://www.w3.org/2000/svg">
<g clip-path="url(#clip0_26215_132560)">
<path d="M87.5677 103.315C85.9682 101.721 81.3821 102.306 82.158 96.9631C83.2191 89.6732 79.6132 90.1858 79.5166 85.444C79.3915 79.3244 88.4862 66.5528 77.9694 55.3881C70.794 47.772 61.6787 47.1012 52.8818 53.3939C52.3513 53.7729 51.8223 54.1784 51.295 54.6086C51.1525 54.7239 51.0099 54.836 50.8674 54.9563C50.7708 55.0371 50.679 55.1195 50.5839 55.2019C50.0408 55.6667 49.515 56.1381 49.0082 56.616C40.9271 64.2338 37.5904 73.4256 43.2708 82.9767C47.7398 90.494 58.7887 95.127 67.8691 92.7685C70.1115 92.185 75.065 91.0626 77.8269 94.8056C80.1675 97.9767 77.8094 98.2437 79.7494 101.123C81.0274 103.018 83.5833 102.236 85.661 103.753C88.3642 105.728 88.654 109.494 89.8291 108.505C90.3659 108.054 89.6486 105.388 87.5677 103.317V103.315Z" fill="#F9A8B3"></path>
<path d="M47.7207 53.1549C45.9153 51.7903 44.1433 50.3629 42.3126 49.0658C40.7559 48.6917 39.242 48.4494 37.8611 48.2698C40.0449 49.8586 42.2398 51.4755 44.2098 52.9506C46.0816 54.3515 47.7492 55.6222 49.0097 56.6177C49.5165 56.1398 50.0422 55.6684 50.5854 55.2036C49.6131 54.5575 48.6613 53.8669 47.7223 53.1566L47.7207 53.1549Z" fill="#837710"></path>
<path d="M12.3443 31.0052C11.0046 30.552 8.19048 29.901 6.98535 30.496C10.9903 31.6134 19.6796 35.691 27.0672 40.6272C28.2834 40.764 29.5915 41.0145 30.7174 41.0063C29.1575 39.9696 27.5929 38.9593 26.0299 38.0033C21.7383 35.3795 17.111 32.6155 12.3443 31.0052Z" fill="#837710"></path>
<path d="M31.9636 25.8794C32.3801 25.919 32.7126 25.8794 32.9723 25.7772C32.9518 25.6882 32.9312 25.6042 32.9122 25.5267C31.8543 21.3437 28.7853 16.7981 24.1089 17.0568C21.3866 17.2068 20.712 18.555 20.9701 20.3663C23.9505 19.0494 29.6626 25.6586 31.9636 25.8794Z" fill="#6F6014"></path>
<path d="M32.9281 47.6385C30.8821 47.2282 28.5273 47.477 26.5572 46.8062C25.1066 46.3118 22.8437 44.5482 23.0321 42.6875C23.2538 40.4971 25.0306 40.4015 27.0672 40.6289C19.678 35.691 10.9903 31.6151 6.98534 30.4977C8.19047 29.9027 11.0046 30.5537 12.3443 31.0069C17.1126 32.6172 21.7383 35.3812 26.0299 38.005C27.5929 38.961 29.1575 39.9713 30.7174 41.008C32.1522 40.9965 33.2876 40.5597 33.5521 38.9132C33.9986 36.1228 28.0078 34.2373 26.1344 33.4133C25.341 33.0638 24.546 32.6238 23.7922 32.103C21.6702 32.4194 17.2012 28.566 16.0325 27.6991C13.9327 26.1432 11.7061 25.0488 9.12797 24.6549C6.72405 24.2857 2.83944 24.5346 1.09113 26.608C-2.16637 30.4713 2.60981 33.6737 5.67253 35.1669C8.01628 36.3091 10.6609 37.1562 13.1979 37.6688C14.5471 37.9408 16.5725 37.6375 17.67 38.6594C20.1848 41.0014 12.2968 44.9586 11.2057 46.6117C10.2824 48.011 9.92453 49.768 11.0932 51.1458C12.8574 53.2242 15.7016 52.3408 17.9028 51.7243C19.4215 51.2991 24.7408 48.4577 26.1645 50.2525C27.2762 51.6535 24.668 52.5863 23.93 53.3099C22.5016 54.7108 22.4873 56.5188 24.1565 57.7945C26.6396 59.6932 29.9699 58.7274 32.434 57.3858C36.5498 55.1443 39.7883 52.8698 44.205 52.9506C42.2334 51.4755 40.0401 49.8603 37.8563 48.2698C35.8356 48.0061 34.0968 47.8726 32.925 47.6369L32.9281 47.6385Z" fill="#6F6014"></path>
<path d="M42.3125 49.0658C44.1447 50.3629 45.9152 51.7902 47.7205 53.1549C47.2946 52.288 46.943 51.3996 46.6548 50.5013C45.2168 49.8701 43.7473 49.4103 42.3125 49.0658Z" fill="#6F6014"></path>
<path d="M50.6122 48.9454C47.4751 42.6857 43.5255 34.4532 41.5935 30.1383C37.8103 21.6881 35.05 11.7975 34.5433 7.40845C33.8069 8.56546 34.027 11.5569 34.2661 13.0007C35.1213 18.1413 37.0929 23.3 38.979 28.0945C41.3782 34.1927 44.3617 40.3915 47.1298 46.3199C48.1164 48.4329 49.2471 50.498 50.3082 52.5912C50.647 53.2603 50.9764 53.9328 51.2947 54.6085C51.8221 54.1784 52.351 53.7729 52.8815 53.3938C52.2164 52.1231 51.442 50.6018 50.6122 48.9438V48.9454Z" fill="#6F6014"></path>
<path d="M58.0664 28.9781C57.0909 27.0778 55.3695 26.8355 53.8334 28.1079C53.04 28.7655 51.7826 31.3201 50.6076 29.9752C49.1032 28.2529 52.5602 23.1766 53.181 21.6718C54.0805 19.4929 55.3252 16.6861 53.5975 14.5748C52.4525 13.1739 50.7311 13.2942 49.2694 14.0457C47.5417 14.9341 42.6578 22.5008 40.7876 19.577C39.972 18.3013 40.5485 16.2576 40.4804 14.8286C40.3553 12.1421 39.9245 9.29574 39.1707 6.71966C38.1857 3.35246 35.8182 -2.02384 31.6818 0.782977C29.4616 2.2894 28.6745 6.25652 28.6824 8.78481C28.6919 11.496 29.4172 13.9452 30.597 16.3301C31.373 17.8958 35.4587 24.7934 32.9725 25.7757C32.7112 25.8779 32.3802 25.9175 31.9637 25.8779C29.6643 25.657 23.9506 19.0479 20.9702 20.3648C20.2133 20.6994 19.6321 21.5449 19.3296 23.1387C18.6075 26.9294 20.9037 30.1071 23.7938 32.1014C24.5492 32.6222 25.3442 33.0622 26.136 33.4117C28.011 34.2357 34.0002 36.1212 33.5536 38.9116C33.2908 40.5581 32.1537 40.9948 30.719 41.0064C29.5946 41.0163 28.285 40.7641 27.0687 40.6273C25.0322 40.3982 23.2554 40.4955 23.0337 42.6859C22.8452 44.5466 25.1082 46.3102 26.5588 46.8046C28.5288 47.4771 30.8821 47.2265 32.9297 47.6369C34.1032 47.8726 35.8404 48.0061 37.8611 48.2698C39.242 48.4495 40.7559 48.6918 42.3126 49.0659C43.7474 49.4104 45.217 49.8702 46.6549 50.5014C47.9139 51.0536 49.1475 51.7376 50.3099 52.5913C49.2488 50.4982 48.1181 48.433 47.1316 46.3201C44.3634 40.3916 41.3783 34.1929 38.9807 28.0947C37.0946 23.3002 35.123 18.1414 34.2679 13.0008C34.0271 11.5554 33.807 8.56395 34.545 7.40859C35.0517 11.7976 37.8104 21.6883 41.5952 30.1384C43.5272 34.4533 47.4768 42.6859 50.6139 48.9456C51.165 44.3835 53.7875 41.3706 56.505 37.448C58.1313 35.0994 59.5218 31.8063 58.0696 28.9781H58.0664Z" fill="#CDD508"></path>
<path d="M52.8819 53.3939C61.6788 47.1014 70.7936 47.7721 77.9688 55.388C80.0053 57.5499 81.3041 59.773 82.0792 61.9955C80.2834 61.5632 78.4167 61.3334 76.5001 61.3333C62.4168 61.3333 51.0001 73.6455 51.0001 88.8333C51.0001 89.3027 51.0108 89.7692 51.0323 90.2328C47.7786 88.4204 45.0202 85.9199 43.2706 82.9769C37.5902 73.4258 40.9267 64.2334 49.0079 56.6156C49.5146 56.1376 50.0409 55.6663 50.5841 55.2015C50.679 55.1192 50.7708 55.0371 50.8673 54.9564C51.0098 54.8361 51.1525 54.7241 51.295 54.6087C51.8224 54.1786 52.3514 53.773 52.8819 53.3939Z" fill="#CB1C48"></path>
</g>
<defs>
<clipPath id="clip0_26215_132560">
<rect width="90" height="108.667" fill="white"></rect>
</clipPath>
</defs>
</svg>