<svg width="111" height="103" viewBox="0 0 111 103" fill="none" xmlns="http://www.w3.org/2000/svg">
<path d="M0.415153 32.6084C-0.648288 36.7344 0.284219 41.6844 3.75876 44.1529C5.77706 45.5868 8.55223 46.1744 9.80089 48.3141C11.8575 51.8302 8.38936 57.2016 11.2827 60.0694C14.2079 62.9691 19.8253 59.4084 23.1115 61.8929C25.9984 64.0741 24.5517 68.5354 24.3314 72.1473C24.0216 77.1675 27.5121 82.5294 32.51 83.1138C38.6255 83.8292 44.294 77.7232 50.2627 79.2433C54.2195 80.2524 56.5412 84.1868 59.1151 87.3548C65.7832 95.5557 76.8104 99.9883 87.3011 98.679C82.1372 97.5517 76.6316 95.3673 74.2492 90.6473C71.7519 85.7006 73.5115 79.8085 74.4632 74.3508C75.4148 68.8931 74.8272 62.0686 69.8869 59.5585C67.7855 58.4918 65.0008 58.2683 63.8 56.2372C63.3753 55.5155 63.2284 54.666 63.123 53.8357C62.5641 49.4254 62.8995 44.9449 62.414 40.5251C61.9286 36.1053 60.466 31.5354 57.0809 28.6548C53.6957 25.7743 48.0304 25.3016 45.0126 28.5686C45.4661 26.1894 45.8078 23.6921 45.1052 21.3736C44.4026 19.0551 42.3811 16.9698 39.9572 16.9442C37.3545 16.9187 35.333 19.1062 33.6788 21.1149C33.3147 18.0013 32.4621 14.7854 30.2937 12.5212C28.1253 10.257 24.3442 9.31171 21.7766 11.1097C19.1515 12.9491 18.9982 16.347 17.0502 18.6432C14.7732 21.3257 12.7932 20.7413 9.67315 21.4247C4.51881 22.5552 1.69895 27.6169 0.415153 32.6052V32.6084Z" fill="#CDD508"></path>
<path d="M17.9986 30.951C17.708 30.852 17.2577 31.1202 17.6537 31.3438C24.9669 35.441 31.7914 40.2569 37.7761 46.1457C43.7767 52.0505 48.9565 58.6898 53.8299 65.5335C58.799 72.5145 63.4136 79.7542 68.5392 86.6235C70.9183 89.8138 73.5434 92.8125 76.7337 95.2172C79.5568 97.3473 82.7471 98.9568 86.0907 100.094C92.8418 102.39 100.481 102.815 107.356 100.825C108.417 100.518 109.419 100.011 110.46 99.6339C110.965 99.4518 110.636 98.9025 110.179 99.0111C109.244 99.2347 108.324 99.2315 107.382 99.388C106.459 99.5413 105.53 99.6498 104.597 99.7425C102.745 99.9277 100.912 100.097 99.05 100.091C95.5244 100.078 92.0147 99.6658 88.6104 98.7301C85.2923 97.8168 82.1244 96.418 79.2502 94.5211C76.0216 92.391 73.3518 89.6094 70.9726 86.5788C68.3763 83.2735 66.0323 79.7638 63.6531 76.2989C61.2101 72.7445 58.7734 69.1837 56.2697 65.6677C51.4666 58.923 46.3922 52.3284 40.564 46.4299C34.9402 40.7391 28.4957 35.3452 21.0963 32.1453C20.0776 31.7046 19.0493 31.3086 18.0018 30.9478L17.9986 30.951Z" fill="#6F6014"></path>
<path d="M70.184 3.04602C67.4343 5.06113 65.5023 8.59635 66.3996 11.8857C66.9202 13.7986 68.3413 15.5678 68.0315 17.5254C67.5206 20.7445 62.6536 22.3093 62.989 25.5539C63.3275 28.8336 68.6096 29.4755 69.3856 32.6786C70.0658 35.4921 66.9106 37.52 64.9402 39.6437C62.2034 42.5945 61.6445 47.685 64.442 50.5783C67.8655 54.1231 74.4697 53.2161 77.3917 57.1825C79.3302 59.8139 78.7713 63.4258 78.7585 66.6928C78.7266 75.1492 83.3061 83.4843 90.4596 87.9935C87.8345 84.6786 85.5352 80.5335 86.4517 76.4074C87.413 72.0802 91.4911 69.3242 94.8475 66.4309C98.2038 63.5344 101.302 59.0124 99.5164 54.9566C98.7563 53.2289 97.1468 51.68 97.431 49.815C97.5332 49.154 97.8717 48.5536 98.2294 47.9852C100.12 44.9705 102.598 42.3678 104.54 39.3882C106.481 36.4087 107.893 32.8351 107.257 29.335C106.622 25.8349 103.355 22.6702 99.8325 23.162C101.321 21.9197 102.796 20.5465 103.537 18.7549C104.278 16.9634 104.083 14.6481 102.595 13.4026C100.998 12.0677 98.6382 12.3966 96.5943 12.799C97.9484 10.6881 99.0501 8.26422 98.8553 5.7637C98.6605 3.26318 96.8019 0.759465 94.3014 0.574241C91.7434 0.382631 89.9263 2.40732 87.5567 2.84164C84.7847 3.34941 83.8586 1.98258 81.5784 0.823335C77.8133 -1.08958 73.502 0.612564 70.1776 3.04921L70.184 3.04602Z" fill="#CDD508"></path>
<path d="M81.9074 10.9372C81.7797 10.7297 81.3645 10.6658 81.4954 11.0043C83.9417 17.2476 85.7268 23.6889 86.4454 30.3666C87.1671 37.0634 87.0043 43.7985 86.5508 50.5049C86.0877 57.3454 85.2702 64.1667 84.9604 71.0136C84.8167 74.1944 84.9189 77.3815 85.6757 80.4856C86.3432 83.2352 87.5024 85.8475 88.9938 88.249C92.0053 93.0936 96.5209 97.2292 101.784 99.4838C102.595 99.8319 103.473 100.027 104.31 100.321C104.715 100.461 104.789 99.9564 104.45 99.7936C103.757 99.4583 103.189 98.9888 102.528 98.6088C101.88 98.2352 101.247 97.8328 100.625 97.4144C99.3855 96.5905 98.1656 95.7666 97.0159 94.8181C94.8411 93.0233 92.8771 90.9891 91.2452 88.6833C89.6549 86.4383 88.403 83.9633 87.5855 81.3319C86.6657 78.3779 86.423 75.2993 86.4869 72.2208C86.5572 68.858 86.8861 65.4984 87.1671 62.1484C87.4577 58.709 87.7547 55.2696 87.9879 51.827C88.435 45.2196 88.6393 38.5643 88.0198 31.957C87.4226 25.5827 86.1707 18.9785 83.2136 13.2462C82.808 12.4574 82.3705 11.6909 81.9042 10.9372H81.9074Z" fill="#6F6014"></path>
</svg>