<svg width="100" height="94" viewBox="0 0 100 94" fill="none" xmlns="http://www.w3.org/2000/svg">
<path d="M69.3869 71.8441L57.476 94C42.3919 90.3021 25.7811 77.8209 13.0501 60.6154C2.47351 46.3293 -2.22333 33.1356 1.00358 27.3627C1.02251 27.347 1.02882 27.3313 1.03828 27.3125C1.05405 27.3031 1.05721 27.2968 1.05721 27.2968L12.9807 5.12207C12.4476 16.853 18.5387 28.0816 26.0807 37.8286C26.8819 38.8645 27.7021 39.8784 28.5285 40.8766C32.3011 45.4315 36.2851 49.6191 39.8842 53.3076C51.7225 65.434 69.3837 71.8472 69.3837 71.8472L69.3869 71.8441Z" fill="#4F4F4F"></path>
<path d="M92.0164 71.119L89.291 68.3251C98.3345 64.238 98.8203 52.1618 90.6032 36.0173C83.3608 21.7877 71.4247 8.72895 62.2298 4.9777C51.8519 0.743027 49.8615 3.93237 47.5494 7.62084C46.5936 9.15901 45.5968 10.7348 43.9156 11.6483L43.496 11.8806L42.8115 11.6891C40.0767 10.9201 37.1842 9.45722 34.3894 8.04776C27.6517 4.64809 21.8319 1.71301 17.0436 6.43425C12.8041 10.6218 17.3212 23.9066 27.7779 38.042C39.6414 54.061 54.899 65.6349 68.5921 68.9969L69.387 71.8441C54.3029 68.1462 37.6889 55.6713 24.9579 38.4658C13.5076 22.9931 8.95267 8.79801 13.8798 3.93865C19.8226 -1.92209 28.1501 2.2812 34.8468 5.66517C37.2157 6.85803 39.4711 7.99753 41.4899 8.65989C42.6097 7.89708 43.3793 6.65713 44.19 5.35753C46.4864 1.69418 49.3411 -2.87638 62.214 2.37851C72.8978 6.73561 85.9032 20.6607 93.8364 36.2496C102.656 53.5744 101.978 66.6143 92.0132 71.1158L92.0164 71.119Z" fill="#4F4F4F"></path>
<path d="M92.0163 71.1189L89.2878 68.3251L77.377 90.4778L80.1086 93.2654C82.8718 92.0191 84.9253 90.1106 86.2565 87.6369L98.202 65.4214L92.0195 71.1189H92.0163Z" fill="#292929"></path>
<path d="M89.291 68.3283C84.3575 60.4303 72.7684 46.9383 59.1227 36.5918C56.7916 45.5257 62.3275 58.9612 68.5921 68.9969C54.899 65.6381 39.6414 54.0641 27.7778 38.0421C17.3211 23.9066 12.8041 10.6187 17.0436 6.43428C21.8287 1.71305 27.6485 4.64813 34.3894 8.04779C37.1841 9.45726 40.0798 10.9232 42.8115 11.6892L43.496 11.8807L43.9155 11.6484C45.5968 10.738 46.5936 9.15904 47.5493 7.62087C49.8615 3.93241 51.8519 0.743062 62.2297 4.97773C71.4247 8.72898 83.3608 21.7877 90.6032 36.0173C98.8234 52.1618 98.3376 64.238 89.2941 68.3283H89.291Z" fill="#F9A8B3"></path>
<path d="M89.2909 68.3283L77.38 90.4842L66.6426 76.9483L69.3869 71.8473L68.592 69.0001C62.3274 58.9643 56.7915 45.5289 59.1226 36.595C72.7683 46.9415 84.3574 60.4334 89.2909 68.3315V68.3283Z" fill="#F5778A"></path>
<path d="M57.9049 23.3258C59.6524 26.1228 58.3875 28.4771 55.0786 28.5839C51.7697 28.6906 47.6722 26.5089 45.9247 23.7088C44.1772 20.9118 45.4421 18.5575 48.751 18.4508C52.0599 18.344 56.1574 20.5257 57.9049 23.3258Z" fill="#F9A8B3"></path>
<path d="M57.9049 23.3258C59.6524 26.1228 58.3875 28.4771 55.0786 28.5839C51.7697 28.6906 47.6722 26.5089 45.9247 23.7088C44.1772 20.9118 45.4421 18.5575 48.751 18.4508C52.0599 18.344 56.1574 20.5257 57.9049 23.3258Z" fill="#FCCFD5"></path>
<path d="M8.59621 26.8259C8.82648 28.1412 10.0567 29.3027 11.0818 30.2319C11.4162 30.5364 11.7979 30.8534 12.2521 30.844C15.5547 30.7781 13.5896 23.3446 11.6591 22.3809C11.555 22.3307 11.4414 22.2836 11.3279 22.3056C11.2238 22.3244 11.1386 22.3998 11.0598 22.472C10.2459 23.2191 9.53936 24.0823 8.96527 25.0241C8.58359 25.6488 8.49527 26.2515 8.59621 26.8259Z" fill="#292929"></path>
<path d="M4.62171 33.776C4.85198 35.0913 6.08218 36.2528 7.10734 37.1819C7.44171 37.4833 7.82338 37.8035 8.27761 37.7941C11.5802 37.7282 9.61506 30.2947 7.68459 29.331C7.5805 29.2808 7.46694 29.2337 7.35338 29.2557C7.24929 29.2745 7.16412 29.3498 7.08526 29.422C6.27144 30.1692 5.56486 31.0324 4.99077 31.9742C4.60909 32.5988 4.51762 33.2015 4.62171 33.776Z" fill="#292929"></path>
<path d="M10.9715 36.1304C11.2017 37.4457 12.4319 38.6071 13.4571 39.5363C13.7914 39.8377 14.1731 40.1579 14.6274 40.1484C17.93 40.0825 15.9648 32.6491 14.0343 31.6854C13.9302 31.6351 13.8167 31.5881 13.7031 31.61C13.599 31.6289 13.5139 31.7042 13.435 31.7764C12.6212 32.5235 11.9146 33.3868 11.3405 34.3285C10.9588 34.9532 10.8705 35.5559 10.9715 36.1304Z" fill="#292929"></path>
<path d="M23.2039 54.7798C23.5446 55.2852 23.9893 55.7467 24.4215 56.139C25.475 57.0933 27.1752 58.6472 28.5001 57.0965C28.8502 56.6884 28.9007 56.1077 28.8818 55.5709C28.8313 54.0609 28.3392 52.573 27.4875 51.3236C26.9954 50.6048 26.2731 49.9173 25.3993 49.9267C24.3679 49.9424 23.349 50.9909 22.8822 51.8385C22.3081 52.8775 22.6046 53.8946 23.2008 54.7767L23.2039 54.7798Z" fill="#292929"></path>
<path d="M18.8194 62.4016C19.2231 62.86 19.7184 63.2618 20.201 63.5977C21.3649 64.4107 23.2512 65.7417 24.371 64.0371C24.6644 63.5882 24.6423 63.0044 24.5571 62.4738C24.3143 60.9859 23.6392 59.567 22.6361 58.4369C22.0557 57.784 21.2545 57.1907 20.3871 57.3131C19.3651 57.4575 18.4882 58.6284 18.1317 59.5231C17.6964 60.6249 18.116 61.598 18.8194 62.3985V62.4016Z" fill="#4F4F4F"></path>
<path d="M26.0713 63.1675C26.2984 64.059 26.8599 64.8187 27.803 65.3994C28.9197 66.0869 30.2319 66.451 31.5441 66.4322C31.7207 66.4322 31.9037 66.4196 32.0677 66.3506C32.2191 66.2846 32.3453 66.1716 32.4494 66.0429C34.2474 63.811 31.0362 60.3549 29.0364 59.5826C27.7179 59.0741 26.3615 59.6799 26.0681 61.1051C25.9136 61.8459 25.9104 62.5397 26.0713 63.1675Z" fill="#292929"></path>
<path d="M43.3698 81.4027C43.3383 81.5 43.313 81.5974 43.2909 81.6978C43.1458 82.3382 43.1931 83.0445 43.5401 83.6064C44.0164 84.3755 44.947 84.7271 45.8302 84.9374C47.0005 85.2168 48.2054 85.3392 49.4072 85.3015C49.8678 85.2858 50.3441 85.2482 50.7605 85.0535C51.1768 84.8589 51.5396 84.4822 51.5932 84.0239C51.6405 83.6252 51.4607 83.2391 51.262 82.8938C50.6153 81.7543 49.5492 80.8314 48.7133 79.8489C48.0761 79.1018 47.1929 78.1318 46.1078 78.1412C45.0384 78.1475 44.6252 79.0452 44.089 79.9085C43.7988 80.3825 43.5275 80.8754 43.3635 81.4027H43.3698Z" fill="#292929"></path>
<path d="M52.2619 78.6874C52.2303 78.7847 52.2051 78.882 52.183 78.9825C52.0379 79.6229 52.0852 80.3292 52.4322 80.8911C52.9085 81.6601 53.8422 82.0117 54.7223 82.222C55.8925 82.5014 57.0975 82.6238 58.2993 82.5862C58.763 82.5705 59.2362 82.5328 59.6525 82.3382C60.0721 82.1436 60.4317 81.7669 60.4853 81.3086C60.5326 80.9099 60.3528 80.5238 60.1541 80.1785C59.5074 79.039 58.4413 78.1161 57.6054 77.1335C56.9682 76.3864 56.085 75.4164 54.9999 75.4258C53.9305 75.4321 53.5173 76.3299 52.9811 77.1932C52.6909 77.6672 52.4196 78.16 52.2556 78.6874H52.2619Z" fill="#292929"></path>
<path d="M33.7868 61.5886C34.5218 63.2147 36.8307 63.9272 38.4805 64.1627C38.9315 64.2254 39.411 64.2537 39.8242 64.0559C41.638 63.1927 39.3258 60.1634 38.5656 59.3221C37.8528 58.5374 36.755 57.3037 35.6195 57.2064C34.0454 57.0683 33.3294 59.2342 33.484 60.4868C33.5344 60.8948 33.6385 61.2621 33.7899 61.5886H33.7868Z" fill="#4F4F4F"></path>
</svg>