<svg width="111" height="81" viewBox="0 0 111 81" fill="none" xmlns="http://www.w3.org/2000/svg">
<path d="M109.042 29.3236L107.632 23.9661L107.22 25.1277C106.046 22.9099 104.574 20.8145 102.793 18.9011C94.5236 9.99913 81.8085 4.69946 69.0508 9.13173C59.3546 12.4993 45.1564 20.0695 34.8377 23.3504C19.0866 28.3575 1.22827 30.7743 2.10077 51.8268L0.821777 50.3539L2.92225 58.0228C6.60958 73.5612 22.0936 79.5514 47.0392 80.8236C74.643 82.2319 94.777 69.8178 103.043 60.1998C110.431 51.6023 112.598 39.6287 109.042 29.3236Z" fill="#99183D"></path>
<path d="M0.0767122 45.1851C1.3438 64.6949 17.3636 71.8791 44.9692 73.2856C72.5731 74.6939 92.7071 62.2798 100.973 52.6618C111.072 40.911 111.416 22.8503 100.725 11.3648C92.4553 2.46288 79.7402 -2.8368 66.9826 1.59547C57.2863 4.96304 43.0881 12.5333 32.7694 15.8141C16.7972 20.891 -1.34175 23.3044 0.0784095 45.1851H0.0767122Z" fill="#CB1C48"></path>
<path d="M24.922 31.8917C24.922 31.8917 12.8872 24.0579 7.51095 32.2574C2.13474 40.4569 3.44946 51.1209 13.7937 59.2541C24.1379 67.3856 55.2352 69.3568 58.2644 68.5047C61.2935 67.6543 63.928 67.6288 61.1999 63.6064C58.4718 59.5857 32.317 33.9157 24.922 31.8917Z" fill="#D9254E"></path>
<path d="M38.3225 25.8539C38.9756 26.3914 39.4399 27.138 39.6491 27.9867C39.7002 29.1654 39.1219 30.31 38.1405 30.9665C36.637 32.0856 34.7645 32.4734 33.0348 32.0227C31.3084 31.5448 29.9104 30.2947 29.2097 28.6007C28.5379 27.0394 28.7113 25.1872 29.6672 23.7041C30.7693 22.2448 32.7269 21.8605 34.1556 22.8214L38.3225 25.8539Z" fill="#D9254E"></path>
<path d="M40.7682 37.705C47.9829 45.5083 55.0752 51.5087 62.2577 59.3731C64.1779 61.8716 66.6696 63.8258 69.5252 65.0759C72.7533 66.0011 76.262 65.6066 79.3473 63.9704C82.3781 62.3393 85.2201 60.3324 87.807 57.9972C89.9381 56.6434 91.4671 54.4493 92.0216 51.9526C92.2274 49.313 90.2375 47.204 88.3734 45.5168C82.9172 40.2375 76.7042 35.858 69.93 32.5176C63.0979 29.1824 55.2521 28.4323 47.6938 30.3916C44.6817 31.3032 41.7393 32.1724 40.2256 35.0212C40.2562 34.96 39.4109 36.2492 40.7682 37.705Z" fill="#D9254E"></path>
<path d="M103.687 35.6045C103.533 26.5563 100.352 18.0047 94.6868 11.4124C90.6014 6.24543 84.4157 3.35918 77.8115 3.53946C66.241 3.91364 57.4853 9.09596 46.7039 13.9976C45.0219 14.5912 43.5031 15.6372 42.3074 17.0285C40.6151 19.8246 41.1355 23.386 43.5184 25.3317C45.8859 27.1091 48.8674 27.837 51.8472 27.3676C56.3611 26.7672 60.7508 25.1889 64.729 22.7346C67.1254 21.0934 69.7259 19.8178 72.4438 18.947C75.2263 18.1357 78.1227 19.0796 79.8371 21.3553C81.5532 24.1463 80.3116 27.9289 80.4545 31.3066C80.6552 34.448 81.9138 37.3598 84.0109 39.5402C86.0977 41.7104 88.62 43.3806 91.4178 44.4419C94.4912 45.6902 98.3333 46.2753 100.896 44.1119C103.036 41.8175 104.068 38.6694 103.687 35.6028V35.6045Z" fill="#D9254E"></path>
<path d="M78.3694 26.9696C78.4647 26.0835 78.4204 25.194 78.2334 24.3368C78.0242 23.4575 77.4782 22.7193 76.7197 22.289L77.0071 22.4353C74.0188 20.8842 70.3604 21.238 67.5218 23.352C66.7836 23.7959 66.2768 24.5681 66.1577 25.4304C66.2223 26.257 66.6288 26.9951 67.2734 27.4561C69.0508 29.1058 71.1853 30.2998 73.5171 30.9495C74.495 31.322 75.5937 31.2811 76.5819 30.8338C77.7401 29.8984 78.4068 28.4527 78.3694 26.9696Z" fill="#D9254E"></path>
</svg>