<svg width="111" height="94" viewBox="0 0 111 94" fill="none" xmlns="http://www.w3.org/2000/svg">
<path d="M5.45241 19.5376C-0.52216 27.4414 -1.86885 38.3538 2.82316 50.4044C12.2072 74.5004 42.1976 94.0059 69.8099 93.9792C83.6188 93.9632 94.2159 89.0681 100.185 81.1644C101.035 80.0421 104.418 75.5639 105.262 74.4416C111.236 66.5379 112.583 55.6255 107.891 43.5748C98.5071 19.4788 68.5167 -0.0266925 40.9044 2.74192e-05C27.0955 0.0160594 16.4984 4.91115 10.5292 12.8149C9.67949 13.9371 6.29676 18.4154 5.45241 19.5376ZM15.9587 18.5917C20.7415 14.5517 27.8811 12.3553 36.5544 12.35C48.4607 12.3393 61.3344 16.4381 72.8079 23.9036C84.2814 31.3638 92.8264 41.1968 96.8718 51.5855C99.8217 59.1525 100.035 66.1318 97.5719 71.6788C92.789 75.7189 85.6495 77.9152 76.9762 77.9206C65.0698 77.9313 52.1962 73.8324 40.7227 66.3669C29.2491 58.9067 20.7041 49.0738 16.6587 38.6851C13.7089 31.118 13.4951 24.1388 15.9587 18.5917Z" fill="#83183A"></path>
<path d="M10.9727 13.1035C5.05689 20.9324 3.7209 31.7486 8.37016 43.6817C17.6687 67.5533 47.3812 86.8771 74.737 86.8504C88.4123 86.8343 98.9132 81.982 104.829 74.1531C110.745 66.3241 112.081 55.5133 107.431 43.5748C98.133 19.7033 68.4205 0.379436 41.0646 0.406156C27.3894 0.422188 16.8885 5.27453 10.9727 13.1035Z" fill="#D9254E"></path>
<path d="M100.329 65.0577L100.249 43.6283C100.244 41.7526 97.7642 39.8501 95.5839 40.0478L66.7424 42.661C64.2094 42.8908 64.1506 45.675 66.6516 47.2996L95.5732 66.1104C97.7696 67.5373 100.335 66.9654 100.329 65.047V65.0577ZM60.8534 50.4633L68.0357 76.5151C68.5807 78.4817 71.3489 79.9941 73.2514 79.3635L94.9907 72.1277C96.9359 71.4811 96.642 69.0443 94.4456 67.6174L65.524 48.8066C63.0284 47.182 60.2228 48.1814 60.8534 50.4686V50.4633ZM21.0247 24.3846C18.7321 23.2357 16.4876 24.1281 16.7976 26.068L20.3086 48.2295C20.6239 50.2121 23.376 51.9222 25.4121 51.3984L52.2121 44.4726C54.5261 43.8741 54.0024 40.9617 51.3357 39.6257L21.0193 24.39L21.0247 24.3846ZM53.6283 46.498L26.8282 53.4238C24.7922 53.9475 24.8991 56.347 27.0206 57.8593L50.7479 74.7944C52.8267 76.2747 55.4399 75.9113 55.6697 74.1103L58.7425 50.2495C59.015 48.1546 55.9422 45.8995 53.6283 46.498ZM65.3049 41.0311L88.4336 30.2149C90.1811 29.3973 89.6574 26.9925 87.4503 25.6886L62.2 10.7682C59.9395 9.43219 57.4813 10.159 57.6416 12.1149L59.7632 37.8515C59.9449 40.0746 63.2742 41.9877 65.3102 41.0365L65.3049 41.0311ZM50.1547 8.19238L26.5023 12.6867C24.4341 13.0821 24.2952 15.3426 26.2404 16.9512L52.0091 38.1988C54.2749 40.0639 57.4011 39.5295 57.2195 37.3117L55.0979 11.5751C54.9376 9.61921 52.2656 7.80226 50.1494 8.20306L50.1547 8.19238Z" fill="#F9A8B3"></path>
</svg>