<svg width="104" height="109" viewBox="0 0 104 109" fill="none" xmlns="http://www.w3.org/2000/svg">
<g clip-path="url(#clip0_26215_132576)">
<path d="M100.516 56.4488H62.0914L55.7343 48.1212C54.2279 46.1458 55.7055 43.3939 58.2641 43.3939H100.98C102.725 43.3939 104.069 42.0454 103.998 40.4166L103.544 53.2329C103.732 54.9716 102.344 56.4488 100.516 56.4488Z" fill="#FBBA00"></path>
<path d="M79.9131 100.375C71.3596 105.767 62.9135 108.667 52.6007 108.667C22.6589 108.667 -1.05035 84.6004 0.0382363 56.4488V47.0776C1.05399 73.0947 23.7494 94.6477 52.0986 94.6477C62.3194 94.6477 72.2719 91.803 80.7563 86.5113C81.7242 85.9072 82.2397 84.8863 82.2282 83.8447L81.383 97.4394H81.3792C81.4731 98.5738 80.9557 99.7159 79.9131 100.375Z" fill="#99183D"></path>
<path d="M103.996 40.4167C104.067 42.0454 102.724 43.3939 100.978 43.3939H58.2622C55.7037 43.3939 54.226 46.1458 55.7324 48.1212L62.0895 56.4488L81.5748 81.9791C82.0079 82.5454 82.2188 83.197 82.2264 83.8447C82.2379 84.8863 81.7224 85.9072 80.7545 86.5113C72.2701 91.803 62.3176 94.6477 52.0968 94.6477C23.7476 94.6477 1.05219 73.0947 0.0383487 47.0776C-0.0114808 45.8579 -0.0114808 44.6307 0.0383487 43.3939C1.09435 16.8617 23.3068 0 50.9488 0C78.5908 0 101.309 15.2159 103.985 40.2348L103.996 40.4167Z" fill="#99183D"></path>
<path d="M64.2705 52.4224C66.0911 52.4224 67.567 50.9639 67.567 49.1648C67.567 47.3657 66.0911 45.9072 64.2705 45.9072C62.45 45.9072 60.9741 47.3657 60.9741 49.1648C60.9741 50.9639 62.45 52.4224 64.2705 52.4224Z" fill="#E29100"></path>
<path d="M70.9381 54.286C71.9807 54.286 72.8258 53.4508 72.8258 52.4205C72.8258 51.3902 71.9807 50.5549 70.9381 50.5549C69.8955 50.5549 69.0503 51.3902 69.0503 52.4205C69.0503 53.4508 69.8955 54.286 70.9381 54.286Z" fill="#E29100"></path>
<path d="M91.8721 49.9508C92.9147 49.9508 93.7599 49.1156 93.7599 48.0853C93.7599 47.055 92.9147 46.2197 91.8721 46.2197C90.8296 46.2197 89.9844 47.055 89.9844 48.0853C89.9844 49.1156 90.8296 49.9508 91.8721 49.9508Z" fill="#E29100"></path>
</g>
<defs>
<clipPath id="clip0_26215_132576">
<rect width="104" height="108.667" fill="white"></rect>
</clipPath>
</defs>
</svg>