<svg width="111" height="62" viewBox="0 0 111 62" fill="none" xmlns="http://www.w3.org/2000/svg">
<path d="M108.562 27.8316L107.617 21.8629C107.085 18.5004 105.527 15.3878 103.157 12.9638C95.0633 4.67915 84.0537 0.0135401 72.5583 3.61779e-05H69.2235C61.4489 -0.0134678 54.1469 3.75413 49.574 10.1347C44.9213 16.6369 43.5168 24.9553 45.7733 32.6593C47.677 39.1479 54.5862 42.6589 60.8498 40.3228L64.0648 39.1209C69.1103 37.2371 74.7748 38.9116 78.0298 43.2531C80.7322 46.8519 85.3384 48.3846 89.6184 47.1017L98.1851 44.536C105.294 42.4091 109.74 35.252 108.562 27.8249V27.8316Z" fill="#FFDD1B"></path>
<path d="M67.7191 26.0491C65.4294 23.4564 63.8851 20.2762 63.2594 16.853L62.7069 13.8416C62.2876 11.5594 60.0178 10.1415 57.8212 10.8032C55.7777 11.4109 54.6129 13.585 55.2053 15.6579L56.9093 21.5861C58.0542 25.563 56.7362 29.8437 53.5678 32.4567C51.9703 33.7734 51.744 36.1636 53.0686 37.7638C53.9605 38.8441 55.5447 39.0129 56.6364 38.1419L59.4986 35.8597C61.2891 34.4283 63.3659 33.4155 65.5891 32.8889C68.6244 32.1664 69.7892 28.4123 67.7125 26.0559L67.7191 26.0491Z" fill="#FBBA00"></path>
<path d="M98.8249 41.3071C105.391 36.1013 107.901 28.2299 104.431 23.7258C100.96 19.2217 92.8238 19.7905 86.2575 24.9963C79.6912 30.202 77.1815 38.0734 80.6519 42.5775C84.1222 47.0816 92.2586 46.5128 98.8249 41.3071Z" fill="#FBBA00"></path>
<path d="M0.150996 26.0693L0.0045572 32.1123C-0.0753185 35.522 0.896503 38.8643 2.78689 41.6866C9.25017 51.3284 19.2413 57.9521 30.5437 60.0992L33.8186 60.7204C41.4601 62.172 49.3212 59.8156 54.9591 54.387C60.7034 48.8572 63.579 40.9304 62.7469 32.9495C62.0414 26.2178 55.8843 21.4847 49.3012 22.6258L45.9264 23.2132C40.628 24.1315 35.3629 21.4375 32.94 16.5693C30.9298 12.5316 26.6764 10.1684 22.2433 10.6411L13.3571 11.5796C5.98858 12.3358 0.330716 18.5544 0.150996 26.0693Z" fill="#FFDD1B"></path>
<path d="M3.62555 27.3388L6.24148 31.6195C8.27831 34.9617 12.4385 36.2648 15.9797 34.6714L21.0984 32.3757C26.6165 29.8977 30.3573 24.5502 30.8299 18.4464C31.1361 14.5438 27.6149 11.4649 23.8541 12.3426L18.1829 13.6728C15.6934 14.2534 13.1507 14.5708 10.6014 14.6181H10.4616C4.09815 14.7396 0.277428 21.8427 3.62555 27.3388Z" fill="#FBBA00"></path>
<path d="M39.989 35.3803C41.7729 38.3512 42.7181 41.7609 42.7181 45.2449V48.3103C42.7181 50.633 44.695 52.4425 46.9715 52.2062C49.0882 51.9834 50.6258 50.0658 50.4128 47.9187L49.8004 41.7744C49.3877 37.6557 51.4578 33.6855 55.0389 31.7005C56.8428 30.7012 57.4951 28.392 56.4833 26.5757C55.7977 25.3469 54.2734 24.8877 53.042 25.5427L49.8204 27.2577C47.8035 28.3312 45.5736 28.9457 43.2972 29.0537C40.182 29.2022 38.3582 32.6795 39.9823 35.3803H39.989Z" fill="#FBBA00"></path>
</svg>